<svg width="51" height="46" viewBox="0 0 51 46" fill="none" xmlns="http://www.w3.org/2000/svg">
<path d="M7.65471 0.565247V2.25652" stroke="#4C241D" stroke-linecap="round" stroke-linejoin="round"/>
<path d="M7.65471 5.63907V7.33034" stroke="#4C241D" stroke-linecap="round" stroke-linejoin="round"/>
<path d="M4.27216 3.94781H5.96343" stroke="#4C241D" stroke-linecap="round" stroke-linejoin="round"/>
<path d="M9.34599 3.94781H11.0373" stroke="#4C241D" stroke-linecap="round" stroke-linejoin="round"/>
<path d="M8.92316 20.0149C10.0907 20.0149 11.0373 19.0684 11.0373 17.9008C11.0373 16.7332 10.0907 15.7867 8.92316 15.7867C7.75558 15.7867 6.80907 16.7332 6.80907 17.9008C6.80907 19.0684 7.75558 20.0149 8.92316 20.0149Z" stroke="#4C241D" stroke-linecap="round" stroke-linejoin="round"/>
<path d="M0.903986 13.1322C1.40324 13.1322 1.80797 12.7275 1.80797 12.2282C1.80797 11.729 1.40324 11.3242 0.903986 11.3242C0.404728 11.3242 0 11.729 0 12.2282C0 12.7275 0.404728 13.1322 0.903986 13.1322Z" fill="#4C241D"/>
<path d="M42.3258 3.59344V15.2988L44.6522 16.7516L50 11.5196L42.3258 3.59344Z" fill="#D6D6D6" stroke="#4C241D" stroke-linecap="round" stroke-linejoin="round"/>
<path d="M25.9822 2.1009C29.214 1.54242 32.5176 1.54242 35.7493 2.1009V9.07741H25.9822V2.1009Z" fill="#B5A19C" stroke="#4C241D" stroke-linecap="round" stroke-linejoin="round"/>
<path d="M19.4936 3.59344V15.2988L17.1673 16.7516L11.8195 11.5196L19.4936 3.59344Z" fill="#D6D6D6" stroke="#4C241D" stroke-linecap="round" stroke-linejoin="round"/>
<path d="M35.9548 2.11104C35.8254 3.37153 35.2328 4.53914 34.2918 5.38769C33.3507 6.23623 32.1283 6.7053 30.8612 6.70404C29.594 6.70278 28.3725 6.23126 27.4332 5.38085C26.4938 4.53043 25.9035 3.36164 25.7767 2.10089C23.6473 2.38533 21.5455 2.84811 19.4936 3.48435V37.6811H42.3258V3.48435C40.2423 2.85705 38.1117 2.39781 35.9548 2.11104Z" fill="white" stroke="#4C241D" stroke-linecap="round" stroke-linejoin="round"/>
<path d="M30.278 25.3686H10.1071C8.44296 29.2886 7.58563 33.5037 7.58621 37.7623V45.384H18.5135L20.3393 41.1558L21.8749 45.384H32.7989V37.7623C32.7995 33.5037 31.9421 29.2886 30.278 25.3686Z" fill="#D6D6D6" stroke="#4C241D" stroke-linecap="round" stroke-linejoin="round"/>
<path d="M9.96667 22.5518H30.421V25.9343H9.96667V22.5518Z" fill="white" stroke="#4C241D" stroke-linecap="round" stroke-linejoin="round"/>
<path d="M20.3392 26.78V41.1558" stroke="#4C241D" stroke-linecap="round" stroke-linejoin="round"/>
<path d="M17.8023 26.78V32.6994" stroke="#4C241D" stroke-linecap="round" stroke-linejoin="round"/>
<path d="M22.8762 26.78V32.6994" stroke="#4C241D" stroke-linecap="round" stroke-linejoin="round"/>
<path d="M39.7889 11.5585H36.4064V9.86719H33.8694V11.5585H30.4869V14.0954H33.8694V15.7866H36.4064V14.0954H39.7889V11.5585Z" fill="#E66353" stroke="#4C241D" stroke-linecap="round" stroke-linejoin="round"/>
</svg>
