<svg width="52" height="39" viewBox="0 0 52 39" fill="none" xmlns="http://www.w3.org/2000/svg">
<path d="M31.4359 3.53208C32.2289 3.53208 32.8717 2.88922 32.8717 2.09622C32.8717 1.30322 32.2289 0.660362 31.4359 0.660362C30.6429 0.660362 30 1.30322 30 2.09622C30 2.88922 30.6429 3.53208 31.4359 3.53208Z" stroke="#4C241D" stroke-width="0.8" stroke-linecap="round" stroke-linejoin="round"/>
<path d="M26.0043 25.551C26.3634 25.551 26.6545 25.2599 26.6545 24.9009C26.6545 24.5418 26.3634 24.2507 26.0043 24.2507C25.6453 24.2507 25.3542 24.5418 25.3542 24.9009C25.3542 25.2599 25.6453 25.551 26.0043 25.551Z" fill="#4C241D"/>
<path d="M3.0306 4.30031C3.38968 4.30031 3.68076 4.00923 3.68076 3.65016C3.68076 3.29109 3.38968 3 3.0306 3C2.67153 3 2.38045 3.29109 2.38045 3.65016C2.38045 4.00923 2.67153 4.30031 3.0306 4.30031Z" fill="#4C241D"/>
<path d="M50.8819 20.3411C51.241 20.3411 51.5321 20.05 51.5321 19.691C51.5321 19.3319 51.241 19.0408 50.8819 19.0408C50.5229 19.0408 50.2318 19.3319 50.2318 19.691C50.2318 20.05 50.5229 20.3411 50.8819 20.3411Z" fill="#4C241D"/>
<path d="M23.3262 3.74377L21.216 5.85391" stroke="#4C241D" stroke-width="0.8" stroke-linecap="round" stroke-linejoin="round"/>
<path d="M21.216 3.74377L23.3262 5.85391" stroke="#4C241D" stroke-width="0.8" stroke-linecap="round" stroke-linejoin="round"/>
<path d="M49.9941 37.8236H27.0204V32.315C27.0311 31.212 27.3663 30.1365 27.9841 29.2226C28.6019 28.3087 29.475 27.5969 30.4946 27.1758L38.5073 23.7522L46.5199 27.1758C47.5395 27.5969 48.4126 28.3087 49.0304 29.2226C49.6482 30.1365 49.9834 31.212 49.9941 32.315V37.8236Z" fill="#A9BA5A" stroke="#4C241D" stroke-width="0.8" stroke-linecap="round" stroke-linejoin="round"/>
<path d="M32.1895 35.5262V32.6545" stroke="#4C241D" stroke-width="0.8" stroke-linecap="round" stroke-linejoin="round"/>
<path d="M41.379 28.6341L38.5073 30.9315L35.6355 28.6341V21.742H41.379V28.6341Z" fill="#CEB365" stroke="#4C241D" stroke-width="0.8" stroke-linecap="round" stroke-linejoin="round"/>
<path d="M44.825 35.5262V32.6545" stroke="#4C241D" stroke-width="0.8" stroke-linecap="round" stroke-linejoin="round"/>
<path d="M46.2833 14.2129V12.7351C46.2833 8.82786 43.4564 5.66036 39.9695 5.66036H37.3322C33.8453 5.66036 31.0184 8.82786 31.0184 12.7351V14.2129C30.8169 14.2254 30.62 14.2781 30.4392 14.3679C30.2584 14.4577 30.0974 14.5827 29.9657 14.7357C29.8339 14.8887 29.7342 15.0664 29.6722 15.2586C29.6103 15.4507 29.5874 15.6533 29.6049 15.8544C29.6179 16.0988 29.6846 16.3373 29.8003 16.5531C29.9159 16.7688 30.0777 16.9563 30.2741 17.1024C30.4356 17.2414 30.6327 17.3326 30.8431 17.366C31.0536 17.3994 31.2692 17.3735 31.4658 17.2914C31.6948 18.7597 32.3033 20.1428 33.2311 21.3037C34.1589 22.4646 35.3738 23.3631 36.7555 23.9101C37.9252 24.1853 39.1439 24.1754 40.309 23.8814L40.56 23.7907C41.921 23.2491 43.1196 22.3659 44.0399 21.2263C44.9602 20.0867 45.5712 18.7291 45.8141 17.2845C46.0067 17.3675 46.2181 17.3973 46.4262 17.3709C46.6343 17.3444 46.8315 17.2626 46.9972 17.134C47.1854 17.0038 47.344 16.8354 47.4626 16.6397C47.5813 16.4441 47.6574 16.2256 47.6858 15.9985C47.722 15.7877 47.7136 15.5715 47.661 15.3641C47.6085 15.1567 47.5131 14.9626 47.3809 14.7944C47.2488 14.6261 47.0828 14.4874 46.8938 14.3873C46.7047 14.2871 46.4967 14.2277 46.2833 14.2129Z" fill="#EDEBDC" stroke="#4C241D" stroke-width="0.8" stroke-linecap="round" stroke-linejoin="round"/>
<path d="M36.7842 32.6545H40.2303" stroke="#F53E28" stroke-width="0.8" stroke-linecap="round" stroke-linejoin="round"/>
<path d="M32.1895 34.9519H44.825V37.8236H32.1895V34.9519Z" fill="#FFE5D2" stroke="#4C241D" stroke-width="0.8" stroke-linecap="round" stroke-linejoin="round"/>
<path d="M41.9533 22.1836C41.9533 21.2697 41.5903 20.3932 40.944 19.7469C40.2977 19.1006 39.4212 18.7376 38.5073 18.7376C37.5933 18.7376 36.7168 19.1006 36.0705 19.7469C35.4243 20.3932 35.0612 21.2697 35.0612 22.1836C35.0612 24.0135 38.5073 27.4854 38.5073 27.4854C38.5073 27.4854 41.9533 24.0135 41.9533 22.1836Z" fill="white" stroke="#4C241D" stroke-width="0.8" stroke-linecap="round" stroke-linejoin="round"/>
<path d="M41.379 15.4242H35.6355" stroke="#4C241D" stroke-width="0.8" stroke-linecap="round" stroke-linejoin="round"/>
<path d="M41.0918 18.2959C42.202 18.2959 43.102 17.3959 43.102 16.2857C43.102 15.1755 42.202 14.2755 41.0918 14.2755C39.9816 14.2755 39.0816 15.1755 39.0816 16.2857C39.0816 17.3959 39.9816 18.2959 41.0918 18.2959Z" fill="#9DC1E4"/>
<path d="M35.9227 18.2959C37.0329 18.2959 37.9329 17.3959 37.9329 16.2857C37.9329 15.1755 37.0329 14.2755 35.9227 14.2755C34.8125 14.2755 33.9125 15.1755 33.9125 16.2857C33.9125 17.3959 34.8125 18.2959 35.9227 18.2959Z" fill="#9DC1E4"/>
<path d="M36.7842 22.3163C37.2412 22.3163 37.6795 22.1348 38.0026 21.8116C38.3257 21.4885 38.5073 21.0503 38.5073 20.5933" stroke="#4C241D" stroke-width="0.8" stroke-linecap="round" stroke-linejoin="round"/>
<path d="M38.5073 20.5933C38.5073 21.0503 38.6888 21.4885 39.0119 21.8116C39.3351 22.1348 39.7733 22.3163 40.2303 22.3163" stroke="#4C241D" stroke-width="0.8" stroke-linecap="round" stroke-linejoin="round"/>
<path d="M36.2099 10.2551H40.8046" stroke="#B5A19C" stroke-width="0.8" stroke-linecap="round" stroke-linejoin="round"/>
<path d="M36.2099 11.9781H40.8046" stroke="#B5A19C" stroke-width="0.8" stroke-linecap="round" stroke-linejoin="round"/>
<path d="M23.9941 37.8236H1.0204V32.315C1.03114 31.212 1.36629 30.1365 1.9841 29.2226C2.6019 28.3087 3.47501 27.5969 4.4946 27.1758L12.5073 23.7522L20.5199 27.1758C21.5395 27.5969 22.4126 28.3087 23.0304 29.2226C23.6482 30.1365 23.9834 31.212 23.9941 32.315V37.8236Z" fill="#BD53B5" stroke="#4C241D" stroke-width="0.8" stroke-linecap="round" stroke-linejoin="round"/>
<path d="M6.18948 35.5262V32.6545" stroke="#4C241D" stroke-width="0.8" stroke-linecap="round" stroke-linejoin="round"/>
<path d="M15.379 28.6341L12.5073 30.9315L9.63554 28.6341V21.742H15.379V28.6341Z" fill="#BD53B5" stroke="#4C241D" stroke-width="0.8" stroke-linecap="round" stroke-linejoin="round"/>
<path d="M18.825 35.5262V32.6545" stroke="#4C241D" stroke-width="0.8" stroke-linecap="round" stroke-linejoin="round"/>
<path d="M20.2833 14.2129V12.7351C20.2833 8.82786 17.4564 5.66036 13.9695 5.66036H11.3322C7.84532 5.66036 5.0184 8.82786 5.0184 12.7351V14.2129C4.81692 14.2254 4.61998 14.2781 4.43918 14.3679C4.25838 14.4577 4.09738 14.5827 3.96565 14.7357C3.83393 14.8887 3.73416 15.0664 3.67221 15.2586C3.61026 15.4507 3.58739 15.6533 3.60494 15.8544C3.61792 16.0988 3.68461 16.3373 3.80026 16.5531C3.91591 16.7688 4.07768 16.9563 4.27405 17.1024C4.43563 17.2414 4.63266 17.3326 4.84312 17.366C5.05359 17.3994 5.26919 17.3735 5.46582 17.2914C5.69478 18.7597 6.30328 20.1428 7.23107 21.3037C8.15886 22.4646 9.37377 23.3631 10.7555 23.9101C11.9252 24.1853 13.1439 24.1754 14.309 23.8814L14.56 23.7907C15.921 23.2491 17.1196 22.3659 18.0399 21.2263C18.9602 20.0867 19.5712 18.7291 19.8141 17.2845C20.0067 17.3675 20.2181 17.3973 20.4262 17.3709C20.6343 17.3444 20.8315 17.2626 20.9972 17.134C21.1854 17.0038 21.344 16.8354 21.4626 16.6397C21.5813 16.4441 21.6574 16.2256 21.6858 15.9985C21.722 15.7877 21.7136 15.5715 21.661 15.3641C21.6085 15.1567 21.5131 14.9626 21.3809 14.7944C21.2488 14.6261 21.0828 14.4874 20.8938 14.3873C20.7047 14.2871 20.4967 14.2277 20.2833 14.2129Z" fill="#EDEBDC" stroke="#4C241D" stroke-width="0.8" stroke-linecap="round" stroke-linejoin="round"/>
<path d="M10.7842 32.6545H14.2303" stroke="#FFCE56" stroke-width="0.8" stroke-linecap="round" stroke-linejoin="round"/>
<path d="M6.18948 34.9519H18.825V37.8236H6.18948V34.9519Z" fill="#FFCE56" stroke="#4C241D" stroke-width="0.8" stroke-linecap="round" stroke-linejoin="round"/>
<path d="M15.9533 22.1836C15.9533 21.2697 15.5903 20.3932 14.944 19.7469C14.2977 19.1006 13.4212 18.7376 12.5073 18.7376C11.5933 18.7376 10.7168 19.1006 10.0705 19.7469C9.42427 20.3932 9.0612 21.2697 9.0612 22.1836C9.0612 24.0135 12.5073 27.4854 12.5073 27.4854C12.5073 27.4854 15.9533 24.0135 15.9533 22.1836Z" fill="white" stroke="#4C241D" stroke-width="0.8" stroke-linecap="round" stroke-linejoin="round"/>
<path d="M15.379 15.4242H9.63554" stroke="#4C241D" stroke-width="0.8" stroke-linecap="round" stroke-linejoin="round"/>
<path d="M15.0918 18.2959C16.202 18.2959 17.102 17.3959 17.102 16.2857C17.102 15.1755 16.202 14.2755 15.0918 14.2755C13.9816 14.2755 13.0816 15.1755 13.0816 16.2857C13.0816 17.3959 13.9816 18.2959 15.0918 18.2959Z" fill="#9DC1E4"/>
<path d="M9.92272 18.2959C11.0329 18.2959 11.9329 17.3959 11.9329 16.2857C11.9329 15.1755 11.0329 14.2755 9.92272 14.2755C8.81252 14.2755 7.91252 15.1755 7.91252 16.2857C7.91252 17.3959 8.81252 18.2959 9.92272 18.2959Z" fill="#9DC1E4"/>
<path d="M10.7842 22.3163C11.2412 22.3163 11.6795 22.1348 12.0026 21.8116C12.3257 21.4885 12.5073 21.0503 12.5073 20.5933" stroke="#4C241D" stroke-width="0.8" stroke-linecap="round" stroke-linejoin="round"/>
<path d="M12.5073 20.5933C12.5073 21.0503 12.6888 21.4885 13.0119 21.8116C13.3351 22.1348 13.7733 22.3163 14.2303 22.3163" stroke="#4C241D" stroke-width="0.8" stroke-linecap="round" stroke-linejoin="round"/>
<path d="M10.2099 10.2551H14.8046" stroke="#B5A19C" stroke-width="0.8" stroke-linecap="round" stroke-linejoin="round"/>
<path d="M10.2099 11.9781H14.8046" stroke="#B5A19C" stroke-width="0.8" stroke-linecap="round" stroke-linejoin="round"/>
</svg>
