<svg width="375" height="446" viewBox="0 0 375 446" fill="none" xmlns="http://www.w3.org/2000/svg">
<path d="M313.922 278.843C314.006 277.729 315.256 276.95 316.389 277.02C317.521 277.09 318.506 277.786 319.302 278.57C320.591 279.839 321.482 281.267 322.345 282.801C322.218 281.132 322.153 279.458 322.142 277.786C322.135 276.68 322.153 275.573 322.195 274.466C319.643 274.313 317.156 273.396 315.159 271.863C314.402 271.281 313.66 270.483 313.733 269.533C313.819 268.423 315.07 267.645 316.201 267.712C317.331 267.779 318.313 268.469 319.106 269.248C320.439 270.556 321.343 272.037 322.232 273.629C322.401 270.218 322.815 266.811 323.526 263.46C321.081 262.898 318.823 261.617 317.131 259.814C316.48 259.121 315.879 258.215 316.105 257.286C316.37 256.2 317.727 255.624 318.828 255.866C319.931 256.107 320.785 256.943 321.439 257.839C322.501 259.289 323.143 260.836 323.742 262.484C324.549 258.962 325.714 255.375 327.785 252.357C327.828 252.294 327.874 252.233 327.918 252.17C325.553 251.276 323.482 249.674 322.059 247.625C321.517 246.846 321.056 245.863 321.415 244.972C321.834 243.932 323.257 243.55 324.31 243.944C325.362 244.338 326.083 245.287 326.599 246.268C327.509 247.994 327.912 249.766 328.286 251.653C330.775 248.228 333.91 245.226 336.276 241.725C333.861 240.84 331.743 239.22 330.295 237.136C329.753 236.357 329.292 235.374 329.651 234.483C330.07 233.442 331.493 233.06 332.546 233.454C333.598 233.849 334.319 234.798 334.835 235.778C335.769 237.551 336.17 239.372 336.552 241.317C337.127 240.432 337.652 239.514 338.102 238.547C339.013 236.59 339.491 234.468 339.604 232.316C336.962 232.107 334.409 231.075 332.41 229.4C331.679 228.788 330.972 227.959 331.087 227.012C331.221 225.906 332.503 225.18 333.628 225.293C334.754 225.406 335.704 226.137 336.463 226.948C337.854 228.437 338.727 230.11 339.622 231.91C339.732 228.435 338.902 224.902 337.404 221.868C335.053 221.393 332.855 220.261 331.145 218.629C330.457 217.971 329.806 217.099 329.982 216.16C330.187 215.063 331.512 214.417 332.626 214.601C333.741 214.784 334.641 215.573 335.344 216.432C336.467 217.801 337.189 219.286 337.867 220.87C337.92 220.907 337.968 220.958 338.004 221.027C339.339 223.58 340.125 226.402 340.397 229.272C340.457 229.905 340.493 230.544 340.506 231.184C341.351 229.026 342.797 227.084 344.653 225.645C345.422 225.049 346.402 224.515 347.325 224.79C348.404 225.112 348.859 226.471 348.506 227.534C348.153 228.597 347.219 229.383 346.244 229.971C344.427 231.067 342.533 231.615 340.501 232.17C340.466 233.514 340.303 234.857 339.949 236.16C339.411 238.134 338.511 239.932 337.417 241.626C339.193 239.985 341.436 238.832 343.814 238.356C344.769 238.164 345.881 238.122 346.566 238.783C347.367 239.555 347.134 240.98 346.328 241.777C345.522 242.575 344.333 242.863 343.201 242.955C341.032 243.132 339.061 242.752 336.949 242.328C335.061 245.072 332.704 247.562 330.613 250.117C329.955 250.922 329.325 251.738 328.742 252.582C330.578 250.709 332.999 249.391 335.58 248.87C336.534 248.678 337.647 248.634 338.332 249.294C339.134 250.065 338.903 251.49 338.098 252.289C337.293 253.087 336.105 253.377 334.973 253.471C332.755 253.655 330.743 253.255 328.576 252.823C327.964 253.729 327.412 254.672 326.948 255.674C326.099 257.506 325.462 259.427 324.949 261.368C324.813 261.884 324.686 262.403 324.567 262.923C326.062 261.08 328.078 259.638 330.325 258.822C331.241 258.489 332.336 258.28 333.119 258.827C334.034 259.467 334.027 260.906 333.353 261.813C332.68 262.72 331.547 263.184 330.44 263.446C328.394 263.93 326.449 263.875 324.377 263.782C323.682 267.056 323.299 270.395 323.14 273.725C324.178 271.493 325.879 269.55 327.983 268.213C328.805 267.691 329.83 267.25 330.721 267.611C331.762 268.033 332.081 269.432 331.626 270.459C331.172 271.486 330.167 272.182 329.142 272.677C327.196 273.616 325.227 273.981 323.113 274.351C323.095 274.793 323.08 275.234 323.07 275.675C323.014 278.095 323.07 280.525 323.264 282.941C324.309 280.783 325.976 278.905 328.025 277.603C328.847 277.081 329.873 276.64 330.764 277.001C331.804 277.423 332.123 278.821 331.669 279.848C331.215 280.876 330.21 281.571 329.185 282.067C327.293 282.98 325.377 283.35 323.33 283.71C323.584 286.461 324.021 289.19 324.684 291.864C324.822 292.421 323.927 292.609 323.789 292.053C323.12 289.354 322.684 286.596 322.43 283.818C319.865 283.662 317.364 282.735 315.355 281.185C314.596 280.6 313.851 279.797 313.922 278.843Z" fill="url(#paint0_linear_82_1088)"/>
<path d="M185.962 446C282.038 446 359.924 437.777 359.924 427.635C359.924 417.492 282.038 409.269 185.962 409.269C89.8854 409.269 12 417.492 12 427.635C12 437.777 89.8854 446 185.962 446Z" fill="#B6CFFF" fill-opacity="0.34"/>
<path d="M333.288 174.156C333.952 173.272 333.954 172.001 333.447 171.026C332.939 170.051 331.991 169.359 330.96 168.977C329.928 168.595 328.812 168.496 327.709 168.478C325.885 168.448 323.999 168.655 322.351 169.41C323.342 166.92 324.527 164.505 325.89 162.191C326.014 161.98 326.142 161.772 326.268 161.564C327.841 162.639 329.414 163.715 330.986 164.79C332.036 165.508 333.119 166.241 334.363 166.513C335.607 166.787 337.067 166.494 337.836 165.471C338.5 164.588 338.502 163.316 337.994 162.342C337.487 161.367 336.539 160.674 335.507 160.293C334.476 159.911 333.359 159.811 332.257 159.794C330.375 159.763 328.427 159.984 326.743 160.798C328.333 158.277 330.134 155.888 332.122 153.665C333.757 154.693 335.393 155.722 337.029 156.75C338.105 157.427 339.216 158.117 340.47 158.342C341.724 158.568 343.172 158.219 343.901 157.169C344.531 156.261 344.484 154.99 343.939 154.036C343.394 153.082 342.42 152.426 341.375 152.084C340.329 151.742 339.209 151.686 338.107 151.71C336.342 151.749 334.526 152.01 332.945 152.767C334.419 151.193 335.987 149.705 337.644 148.322C338.134 147.912 338.635 147.515 339.14 147.125C340.858 148.127 342.575 149.129 344.292 150.131C345.39 150.772 346.523 151.425 347.784 151.609C349.045 151.793 350.481 151.398 351.175 150.324C351.776 149.396 351.687 148.128 351.111 147.192C350.535 146.257 349.539 145.634 348.483 145.326C347.426 145.019 346.305 144.999 345.204 145.06C343.63 145.147 342.023 145.412 340.589 146.043C342.349 144.779 344.189 143.629 346.097 142.601C348.04 142.661 349.982 142.721 351.924 142.781C353.198 142.821 354.51 142.855 355.71 142.416C356.911 141.978 357.99 140.948 358.091 139.678C358.179 138.579 357.496 137.51 356.542 136.964C355.588 136.417 354.413 136.345 353.334 136.578C352.254 136.81 351.256 137.326 350.312 137.903C348.574 138.965 346.927 140.315 345.956 142.092C345.95 142.095 345.943 142.096 345.937 142.1C343.904 143.19 341.948 144.42 340.082 145.774C341.007 144.416 341.556 142.794 341.905 141.177C342.137 140.099 342.294 138.988 342.156 137.896C342.019 136.804 341.56 135.723 340.726 135.007C339.893 134.291 338.655 134.005 337.644 134.451C336.474 134.968 335.858 136.324 335.841 137.598C335.825 138.872 336.292 140.094 336.752 141.279C337.453 143.085 338.154 144.89 338.855 146.695C336.621 148.42 334.527 150.325 332.596 152.385C333.235 150.78 333.383 148.981 333.316 147.243C333.275 146.142 333.151 145.029 332.746 144.008C332.341 142.986 331.627 142.054 330.641 141.569C329.654 141.083 328.382 141.113 327.511 141.796C326.505 142.585 326.244 144.05 326.544 145.286C326.845 146.522 327.602 147.588 328.343 148.62C329.471 150.191 330.599 151.763 331.727 153.334C331.668 153.4 331.608 153.465 331.549 153.532C329.619 155.714 327.869 158.052 326.316 160.512C326.797 158.638 326.577 156.623 326.11 154.736C325.846 153.669 325.499 152.605 324.895 151.688C324.291 150.77 323.402 150.004 322.336 149.729C321.27 149.453 320.028 149.74 319.314 150.583C318.487 151.559 318.528 153.044 319.073 154.192C319.618 155.34 320.576 156.23 321.512 157.089C322.983 158.44 324.454 159.791 325.925 161.141C325.903 161.176 325.883 161.21 325.862 161.245L325.805 161.247C325.818 161.257 325.831 161.265 325.844 161.274C324.372 163.693 323.091 166.226 322.021 168.848C321.756 167.133 320.975 165.498 320.039 164.021C319.439 163.076 318.761 162.161 317.88 161.469C316.999 160.778 315.892 160.323 314.771 160.398C313.65 160.473 312.539 161.146 312.119 162.189C311.633 163.395 312.15 164.815 313.048 165.748C313.946 166.681 315.161 167.233 316.344 167.763C318.024 168.515 319.705 169.267 321.385 170.019C321.431 170.051 321.478 170.083 321.524 170.114C320.422 173.032 319.586 176.044 319.038 179.112C318.98 179.436 319.475 179.586 319.534 179.257C320.072 176.242 320.89 173.282 321.963 170.415C323.455 171.435 324.947 172.456 326.44 173.476C327.489 174.194 328.572 174.926 329.816 175.199C331.06 175.471 332.52 175.178 333.288 174.156Z" fill="#4E79C2"/>
<path d="M278.808 61.5882C280.044 68.0084 290.236 77.2592 288.643 83.6753C280.962 83.6501 282.873 72.6666 279.33 67.6758C275.505 63.365 269.745 78.9627 272.95 86.8591C275.302 93.4127 284.194 92.6317 295.462 101.443C305.201 108.838 304.759 112.806 311.132 114.539C322.792 117.708 336.005 107.635 335.499 106.177C335.294 105.588 332.967 106.673 327.523 106.246C326.994 106.625 306.079 102.371 314.041 98.3415C323.495 96.3071 327.945 107.474 339.135 102.847C347.524 99.3737 349.85 86.5616 348.987 86.1037C346.183 92.2781 328.722 93.0658 322.587 88.9329C319.113 86.1513 322.696 85.1982 326.724 85.4126C340.069 84.3642 347.175 84.7363 354.089 76.4593C362.565 66.3134 353.495 55.2112 353.889 40.3383C353.889 40.3383 336.955 33.4854 325.828 38.6379C315.118 43.5967 322.083 54.8431 318.375 61.9239C317.07 65.1459 312.605 65.1472 310.93 62.6568C307.256 58.9095 308.199 52.0539 308.933 47.1175C310.153 38.9399 312.447 36.3915 311.12 35.1795C307.715 31.8559 294.469 42.3856 295.6 49.7216C293.241 58.2561 306.017 70.7437 300.549 78.7362C293.613 77.6205 289.277 58.905 290.214 51.4099C291.157 47.5215 293.439 45.2027 292.903 44.7134C288.72 45.8274 278.084 55.7473 278.808 61.5882Z" fill="#BFDDFF"/>
<path d="M269.146 105.664C269.005 107.686 269.379 109.718 270.207 111.571C271.01 113.37 272.247 114.907 273.743 116.195C275.386 117.603 277.249 118.722 279.072 119.886C281.044 121.151 282.954 122.516 284.761 124.003C285.575 124.676 286.412 125.346 287.146 126.105C287.758 126.736 288.307 127.511 288.22 128.426C288.219 128.436 288.227 128.441 288.226 128.451C288.118 128.573 288.017 128.699 287.904 128.818C287.534 129.22 287.152 129.615 286.753 129.995C286.82 130.035 286.878 130.081 286.94 130.129C287.655 129.438 288.335 128.704 288.966 127.935C288.973 127.934 288.979 127.932 288.982 127.928C289.332 127.68 289.743 127.501 290.155 127.364C290.541 127.233 290.989 127.108 291.397 127.193C292.005 127.325 292.568 127.686 293.084 128.018C293.597 128.355 294.107 128.705 294.605 129.065C298.115 131.594 301.294 134.603 305.122 136.682C308.27 138.389 311.9 139.489 315.512 138.882C315.658 138.858 315.607 138.635 315.455 138.661C313.35 139.011 311.2 138.772 309.167 138.155C305.187 136.946 301.859 134.419 298.649 131.889C296.872 130.486 295.107 129.062 293.205 127.824C292.505 127.369 291.684 126.837 290.81 126.967C290.321 127.036 289.817 127.208 289.362 127.441C291.079 125.237 292.429 122.785 293.777 120.353C293.841 120.242 293.903 120.125 293.967 120.014C293.967 120.014 293.967 120.014 293.973 120.012C295.727 118.943 297.778 118.469 299.831 118.42C304.016 118.315 307.837 120.015 311.502 121.815C312.505 122.308 313.509 122.807 314.521 123.284C315.47 123.733 316.435 124.182 317.445 124.497C319.164 125.026 321.148 125.122 322.703 124.093C322.824 124.011 322.717 123.808 322.593 123.893C320.638 125.189 318.19 124.626 316.173 123.783C312.165 122.103 308.451 119.675 304.171 118.659C300.885 117.879 297.168 117.957 294.177 119.632C295.445 117.355 296.758 115.084 298.423 113.059C299.337 111.952 300.356 110.953 301.445 110.027C301.453 110.022 301.464 110.023 301.475 110.013C301.482 110.002 301.494 109.992 301.503 109.977C302.492 109.141 303.532 108.362 304.598 107.62C306.372 106.387 308.204 105.237 309.994 104.023C312.227 103.536 314.553 103.614 316.815 103.84C320.874 104.242 324.94 105.358 329.043 104.845C332.694 104.386 336.56 102.239 337.473 98.4913C337.509 98.3472 337.288 98.283 337.252 98.4275C336.746 100.512 335.217 102.161 333.36 103.221C329.766 105.271 325.459 104.848 321.522 104.258C317.899 103.714 314.113 103.039 310.461 103.701C310.689 103.544 310.921 103.39 311.151 103.23C313.412 101.627 315.481 99.8168 317.334 97.7701C321.129 93.575 324.025 88.6984 326.876 83.8642C326.953 83.7402 326.756 83.6207 326.679 83.7451C326.331 84.3374 325.984 84.9293 325.632 85.5193C322.865 90.164 319.948 94.8077 316.137 98.7045C316.715 97.3584 316.674 95.8046 316.648 94.3724C316.615 92.5777 316.655 90.4905 318.114 89.1895C318.224 89.0905 318.067 88.9259 317.956 89.0249C316.588 90.2416 316.392 92.1763 316.408 93.8859C316.423 95.665 316.602 97.6439 315.608 99.22C315.603 99.2276 315.612 99.2325 315.607 99.2401C315.607 99.2401 315.607 99.2401 315.604 99.2441C313.648 101.16 311.459 102.779 309.178 104.3C306.993 105.756 304.76 107.141 302.672 108.736C302.474 108.889 302.277 109.048 302.082 109.203C303.191 107.424 303.297 105.146 302.891 103.121C302.422 100.78 301.188 98.6715 300.006 96.6176C298.832 94.5781 297.782 92.5064 297.041 90.279C295.618 85.9885 295.202 81.3916 295.842 76.9231C295.867 76.7781 295.631 76.7741 295.612 76.9177C295.262 79.3529 295.225 81.8269 295.493 84.2719C295.734 86.4648 296.221 88.6297 296.945 90.7188C297.699 92.8739 298.74 94.8751 299.875 96.854C301.062 98.9172 302.283 101.038 302.71 103.403C303.104 105.586 302.879 108.091 301.337 109.823C299.748 111.185 298.325 112.7 297.104 114.406C295.435 116.751 294.107 119.307 292.705 121.808C292.582 122.022 292.461 122.233 292.341 122.443C292.413 120.872 292.01 119.287 291.358 117.857C290.66 116.318 289.626 114.952 288.605 113.608C287.542 112.219 286.501 110.821 285.588 109.33C283.816 106.437 282.437 103.323 281.492 100.079C281.45 99.9368 281.221 99.9907 281.265 100.13C281.786 101.909 282.431 103.656 283.201 105.34C283.893 106.853 284.683 108.324 285.565 109.733C286.473 111.179 287.498 112.535 288.532 113.891C289.564 115.252 290.598 116.645 291.267 118.22C291.889 119.68 292.248 121.293 292.079 122.88C292.08 122.886 292.087 122.884 292.084 122.888C291.007 124.746 289.843 126.551 288.453 128.187C288.437 127.376 287.977 126.66 287.425 126.071C286.624 125.202 285.667 124.454 284.753 123.705C282.98 122.261 281.122 120.926 279.191 119.691C277.328 118.503 275.413 117.364 273.754 115.903C272.245 114.575 271.033 112.989 270.27 111.144C269.555 109.414 269.245 107.532 269.374 105.67C269.385 105.525 269.154 105.519 269.146 105.664Z" fill="white"/>
<path d="M45.595 212.337C44.7964 211.013 45.5841 209.182 46.9179 208.4C48.2516 207.617 49.9207 207.656 51.448 207.938C53.9189 208.393 56.0693 209.331 58.2728 210.411C56.7922 208.619 55.3768 206.774 54.0249 204.892C53.1308 203.647 52.2638 202.381 51.4236 201.096C48.4202 202.864 44.8789 203.718 41.3961 203.501C40.0759 203.419 38.5989 203.08 37.9214 201.95C37.1292 200.629 37.9173 198.799 39.2466 198.014C40.5763 197.23 42.2372 197.265 43.7568 197.543C46.3088 198.01 48.5158 198.998 50.795 200.123C48.2521 196.136 45.9897 191.968 44.1076 187.637C40.8971 188.861 37.3223 189.127 33.9677 188.374C32.6774 188.085 31.273 187.518 30.7835 186.294C30.212 184.865 31.2816 183.182 32.7191 182.618C34.1567 182.054 35.7909 182.35 37.247 182.865C39.6069 183.698 41.5724 184.96 43.5683 186.369C41.6567 181.772 40.0968 176.829 40.0161 171.84C40.0143 171.736 40.0175 171.632 40.0165 171.528C36.6316 172.315 33.0101 172.077 29.762 170.842C28.5261 170.372 27.2178 169.61 26.9087 168.33C26.5479 166.834 27.8482 165.321 29.3519 164.967C30.8556 164.612 32.4305 165.138 33.7982 165.854C36.2079 167.116 38.0837 168.813 40.0175 170.664C40.0818 164.898 41.2143 159.119 41.0793 153.361C37.6445 154.196 33.955 153.973 30.6512 152.717C29.4153 152.247 28.1069 151.486 27.7983 150.206C27.4376 148.71 28.7378 147.196 30.2411 146.842C31.7448 146.488 33.3196 147.014 34.6874 147.73C37.1619 149.025 39.0734 150.78 41.063 152.689C41.0036 151.251 40.8604 149.814 40.593 148.379C40.0523 145.472 38.8913 142.709 37.2946 140.189C34.1454 141.961 30.4373 142.735 26.8384 142.36C25.5233 142.223 24.0617 141.823 23.4317 140.665C22.6962 139.312 23.5609 137.516 24.9219 136.788C26.2833 136.06 27.9411 136.165 29.448 136.506C32.2111 137.132 34.5369 138.361 36.9892 139.717C34.328 135.703 30.5606 132.337 26.4383 130.044C23.4054 131.294 20.0169 131.684 16.7797 131.138C15.4754 130.918 14.0428 130.426 13.4886 129.231C12.8409 127.834 13.8185 126.096 15.2234 125.456C16.6283 124.815 18.2766 125.025 19.7581 125.461C22.122 126.157 24.1265 127.287 26.1623 128.563C26.2515 128.565 26.3458 128.586 26.4428 128.637C29.995 130.51 33.1442 133.104 35.751 136.144C36.3257 136.814 36.8786 137.509 37.4057 138.224C36.6293 135.14 36.7055 131.845 37.6477 128.806C38.0379 127.548 38.7154 126.198 39.9785 125.808C41.4541 125.351 43.0566 126.544 43.5103 128.014C43.9639 129.485 43.5393 131.084 42.9111 132.489C41.7392 135.111 40.0397 137.17 38.1911 139.342C39.2289 140.89 40.1212 142.531 40.7652 144.276C41.7405 146.917 42.1656 149.634 42.2875 152.383C42.9773 149.177 44.5853 146.168 46.8866 143.821C47.8107 142.879 49.032 141.985 50.335 142.212C51.8568 142.477 52.736 144.266 52.4655 145.78C52.1949 147.295 51.0841 148.525 49.8809 149.49C47.5746 151.339 45.0452 152.407 42.3224 153.532C42.3913 158.071 41.726 162.679 41.4142 167.159C41.3163 168.57 41.2588 169.972 41.2773 171.37C41.8488 167.855 43.5243 164.525 46.0201 161.973C46.9428 161.03 48.1633 160.135 49.4662 160.36C50.9885 160.623 51.8704 162.411 51.6017 163.926C51.3334 165.441 50.224 166.672 49.0216 167.638C46.6654 169.533 44.0745 170.61 41.2823 171.768C41.319 173.259 41.45 174.745 41.7292 176.231C42.2395 178.949 43.0602 181.606 44.0369 184.191C44.2966 184.879 44.5694 185.561 44.8513 186.241C45.0625 183.019 46.1814 179.856 48.0631 177.225C48.8304 176.153 49.899 175.083 51.2214 175.107C52.7664 175.135 53.9121 176.768 53.879 178.306C53.8459 179.844 52.9391 181.229 51.899 182.367C49.9779 184.47 47.7391 185.887 45.3258 187.357C47.1649 191.588 49.4086 195.655 51.8972 199.543C51.2808 196.23 51.6429 192.739 52.9459 189.628C53.4553 188.413 54.2588 187.133 55.5536 186.865C57.0663 186.551 58.5469 187.89 58.8569 189.398C59.1674 190.904 58.5914 192.456 57.8309 193.795C56.3879 196.337 54.4568 198.246 52.3676 200.271C52.7016 200.784 53.0388 201.295 53.3805 201.801C55.2572 204.582 57.268 207.287 59.4225 209.873C58.8719 206.637 59.249 203.246 60.5188 200.215C61.0278 199 61.8317 197.721 63.1265 197.452C64.6393 197.139 66.1199 198.478 66.4303 199.985C66.7403 201.492 66.1643 203.043 65.4038 204.383C64.0003 206.854 62.1358 208.728 60.1127 210.692C62.6044 213.61 65.2856 216.365 68.1761 218.885C68.7779 219.41 67.9191 220.304 67.3181 219.78C64.3991 217.235 61.6976 214.447 59.1841 211.499C56.1649 213.271 52.5996 214.124 49.09 213.899C47.7631 213.812 46.2789 213.47 45.595 212.337Z" fill="#4E79C2"/>
<path d="M56.3801 304.474C59.7366 305.228 64.9904 305.923 73.7393 304.171C79.1039 303.076 86.5475 301.604 94.677 296.455C95.028 296.233 95.6489 295.846 96.4269 295.288C96.4668 295.265 96.5129 295.236 96.5482 295.207C96.6228 295.165 96.6979 295.113 96.7779 295.066C97.0439 294.885 97.3228 294.682 97.6331 294.494C103.441 290.302 114.991 280.551 115.209 267.772C115.233 267.037 115.32 257.742 110.746 255.954C105.005 253.777 96.0601 264.788 93.8773 263.058C92.777 262.176 94.7021 259.225 95.6845 255.093C97.9797 245.828 95.1512 232.93 87.3085 229.79C83.6103 228.268 78.6393 228.916 75.1698 231.681C69.4811 236.112 71.809 246.388 70.9381 246.487C69.6721 246.576 71.0661 226.148 60.8182 220.579C57.2128 218.642 51.8701 218.378 49.2346 220.797C45.3783 224.35 49.0575 232.252 46.7862 233.316C44.3779 234.445 40.7118 225.519 30.7213 221.683C28.1802 220.728 22.2154 218.449 17.4253 221.369C13.2493 223.858 11.108 229.331 12.0627 233.918C12.968 238.149 16.277 240.541 17.2058 241.169C23.1634 245.35 28.2554 241.98 39.7053 245.329C43.703 246.483 47.953 248.311 47.7857 249.711C47.5939 250.734 45.0662 250.571 41.9476 252.648C41.8789 252.685 41.7762 252.741 41.6531 252.843C40.7101 253.488 37.3628 255.803 36.6617 259.533C36.6097 259.686 35.937 263.75 38.3314 265.71C39.5485 266.744 41.0968 266.767 41.7714 266.802C48.5038 267.043 56.7725 269.382 56.7633 270.482C56.7884 271.742 45.9367 271.252 44.5724 275.235C43.4435 278.547 49.4838 283.066 50.2654 283.647C56.7994 288.461 64.768 288.458 64.6806 289.058C64.5854 289.564 58.3506 287.976 52.5076 290.967C49.7787 292.342 45.6843 295.418 46.0676 298.434C46.4943 302.148 53.4502 303.792 56.3801 304.474Z" fill="#BFDDFF"/>
<path d="M59.1974 280.962C59.7035 279.559 61.3275 279.172 62.6685 279.183C64.3594 279.197 66.0182 279.654 67.5823 280.267C70.8734 281.558 73.9104 283.665 77.4609 284.21C79.2556 284.485 81.1122 284.339 82.7406 283.499C79.2315 279.18 76.2368 274.44 73.3312 269.703C72.2436 267.931 71.1589 266.148 70.0531 264.378C65.0236 261.92 59.2239 264.449 53.9912 262.872C52.5992 262.452 51.3285 261.736 50.3277 260.673C50.1595 260.494 50.4533 260.251 50.6212 260.429C52.5388 262.465 55.4093 263.009 58.0947 263.078C60.753 263.146 63.4046 262.73 66.0624 262.953C67.313 263.058 68.5415 263.327 69.6965 263.812C66.6991 259.039 63.5238 254.37 59.6504 250.26C54.9588 245.285 49.2052 241.064 42.5448 239.214C41.7093 238.985 40.8649 238.793 40.0165 238.645C39.7774 238.596 39.8118 238.22 40.0524 238.258C46.6376 239.445 52.5084 242.983 57.3747 247.476C58.205 248.24 58.9957 249.04 59.7686 249.854C59.7611 249.812 59.7622 249.766 59.7923 249.72C61.6487 246.887 60.182 243.463 58.7187 240.824C57.9185 239.381 57.0504 237.96 56.4961 236.398C56.035 235.1 55.7225 233.637 56.2828 232.321C56.3792 232.096 56.7381 232.225 56.642 232.452C55.9863 233.99 56.5921 235.765 57.2304 237.206C57.9257 238.774 58.8645 240.217 59.6423 241.743C60.9196 244.252 61.7747 247.391 60.1054 249.938C60.0515 250.021 59.9719 250.024 59.901 249.998C64.2415 254.606 67.7534 259.933 71.0786 265.31C72.9219 268.291 74.734 271.301 76.6275 274.254C79.897 271.667 82.095 267.685 82.6543 263.564C82.9602 261.313 82.6546 259.157 82.0274 256.987C81.3465 254.631 80.4359 252.301 80.3188 249.825C80.2029 247.381 80.9832 244.761 83.1013 243.339C83.303 243.204 83.5491 243.496 83.3453 243.633C81.2116 245.065 80.5217 247.726 80.7217 250.169C80.9267 252.675 81.8896 255.021 82.5448 257.426C83.1114 259.507 83.3264 261.595 83.0145 263.737C82.7248 265.728 82.0622 267.655 81.1121 269.427C80.0498 271.407 78.6066 273.191 76.8367 274.582C79.1505 278.172 81.5957 281.67 84.4043 284.9C86.3497 287.142 88.4892 289.252 90.8115 291.118C90.8319 284.944 96.2892 280.703 98.4912 275.324C99.1358 273.749 99.4973 272.071 99.3434 270.366C99.3212 270.124 99.6976 270.058 99.72 270.304C100.286 276.569 94.8274 281.029 92.3871 286.253C91.6499 287.831 91.1732 289.513 91.1866 291.265C91.187 291.317 91.1633 291.35 91.1365 291.378C92.9085 292.772 94.7837 294.027 96.7764 295.067C96.6964 295.113 96.6213 295.166 96.5466 295.208C96.5113 295.237 96.4652 295.265 96.4254 295.289C93.0286 293.496 89.9311 291.108 87.1611 288.396C85.6784 286.943 84.2969 285.403 82.9844 283.806C80.2562 285.263 77.0229 284.778 74.2512 283.712C71.0341 282.474 68.0971 280.469 64.6783 279.783C63.1016 279.467 60.2504 279.167 59.555 281.093C59.4724 281.324 59.1142 281.193 59.1974 280.962Z" fill="white"/>
<path d="M297.246 322.814L300.372 337.565C301.536 336.195 302.848 334.926 304.104 333.651C305.339 332.398 306.555 331.107 307.558 329.662C308.579 328.194 309.241 326.613 309.74 324.928C310.221 323.297 310.623 321.63 311.444 320.107C312.088 318.91 312.994 317.864 314.007 316.939C316.104 315.018 318.612 313.598 320.758 311.738C321.842 310.804 322.818 309.755 323.54 308.532C324.412 307.058 324.897 305.415 325.328 303.789C325.758 302.166 326.136 300.522 326.779 298.956C327.327 297.622 328.076 296.366 328.986 295.227C330.805 292.941 333.212 291.133 335.832 289.804C342.243 286.545 349.593 286.41 356.569 286.654C356.981 286.67 357.393 286.685 357.808 286.703C357.365 282.772 350.904 281.297 347.153 281.602C344.587 281.811 342.281 283.287 339.769 283.872C327.04 286.846 317.76 284.866 315.39 300.445C315.127 302.189 314.981 304.014 314.058 305.548C309.688 311.749 294.832 312.236 297.246 322.814Z" fill="url(#paint1_linear_82_1088)"/>
<path d="M314.051 350.155C325.32 350.967 333.7 339.602 324.203 330.357C318.098 325.917 323.243 320.758 328.323 318.027C330.843 316.669 334.089 315.663 334.945 313.028C336.132 307.239 327.427 302.544 338.351 296.827C344.515 293.598 358.053 295.814 358.105 287.194C358.105 287.154 358.105 287.11 358.102 287.07C351.402 286.838 344.425 286.761 338.051 289.329C335.252 290.457 332.611 292.062 330.477 294.173C329.435 295.203 328.521 296.357 327.793 297.61C326.984 299.005 326.465 300.505 326.034 302.032C325.58 303.648 325.209 305.289 324.594 306.865C324.055 308.254 323.305 309.543 322.287 310.675C320.447 312.721 318.044 314.182 315.837 315.822C314.715 316.658 313.619 317.55 312.695 318.593C311.64 319.79 310.926 321.151 310.419 322.623C309.866 324.233 309.509 325.896 308.827 327.467C308.172 328.988 307.207 330.369 306.117 331.644C304.156 333.949 301.795 335.924 299.845 338.238C299.845 338.238 301.374 349.242 314.051 350.155Z" fill="url(#paint2_linear_82_1088)"/>
<path d="M300.691 338.33L300.774 338.712C302.69 336.397 305.017 334.427 306.945 332.122C308.016 330.846 308.963 329.463 309.602 327.937C310.266 326.36 310.609 324.69 311.145 323.074C311.637 321.596 312.335 320.231 313.372 319.034C314.281 317.991 315.362 317.101 316.467 316.268C318.644 314.633 321.016 313.18 322.825 311.135C323.826 310.002 324.561 308.71 325.086 307.317C325.683 305.734 326.04 304.086 326.478 302.463C326.895 300.929 327.398 299.424 328.19 298.026C328.903 296.77 329.801 295.615 330.827 294.586C332.927 292.476 335.534 290.881 338.301 289.766C344.602 287.227 351.521 287.355 358.164 287.637C358.162 287.531 358.156 287.428 358.144 287.326C357.728 287.307 357.315 287.291 356.902 287.275C349.916 287.02 342.554 287.146 336.138 290.41C333.517 291.741 331.109 293.553 329.289 295.847C328.38 296.989 327.631 298.25 327.085 299.589C326.443 301.161 326.067 302.811 325.638 304.441C325.209 306.074 324.724 307.723 323.853 309.203C323.133 310.43 322.156 311.483 321.072 312.419C318.925 314.284 316.415 315.707 314.317 317.633C313.304 318.56 312.398 319.61 311.756 320.812C310.936 322.34 310.536 324.014 310.055 325.651C309.558 327.344 308.897 328.93 307.876 330.403C306.874 331.853 305.658 333.148 304.423 334.405C303.167 335.682 301.855 336.955 300.691 338.33Z" fill="white"/>
<path d="M305.109 62.4445L71.1858 62.9489C61.6765 62.9694 53.9821 70.3029 54 79.3288L54.6418 410.694C54.6593 419.72 62.3821 427.02 71.8914 427L305.814 426.496C315.323 426.475 323.018 419.142 323 410.116L322.358 78.7503C322.34 69.7239 314.617 62.424 305.109 62.4445Z" fill="#7F7EA6"/>
<path d="M316.728 79.168L317.26 353.563L317.275 359.629L317.281 364.792L317.372 410.911C317.382 416.854 312.056 421.709 305.496 421.734L255.157 421.844L241.59 421.873L239.783 421.874L72.2101 422.235C65.6341 422.248 60.2816 417.421 60.2721 411.467L59.6276 79.7303C59.6182 73.7873 64.9439 68.932 71.504 68.9073L304.794 68.4013C308.077 68.3944 311.143 69.5796 313.425 71.7463C315.554 73.7641 316.724 76.3969 316.728 79.168Z" fill="#FFF6F6"/>
<path d="M317.297 374.58L317.302 378.533L317.373 413.842C317.38 418.392 313.267 422.109 308.2 422.128L269.323 422.213L258.845 422.234C278.266 410.877 305.056 395.492 317.297 374.58Z" fill="#CCCAE0"/>
<path d="M244.185 63.6432L244.227 85.5651C244.235 89.6529 241.308 92.9727 237.689 92.9806L137.128 93.1975C133.51 93.2054 130.57 89.8982 130.562 85.8109L130.52 63.8885L127.159 63.8958L127.203 86.5206C127.214 92.3161 131.383 97.0054 136.514 96.9938L238.32 96.7742C243.451 96.7632 247.601 92.0566 247.59 86.2606L247.546 63.6358L244.185 63.6432Z" fill="#326AB3"/>
<path d="M186.775 41C181.811 41.011 177.796 45.6672 177.808 51.3995L177.842 69.5926L195.816 69.5527L195.781 51.3596C195.77 45.6273 191.738 40.989 186.775 41ZM186.802 55.2858C184.721 55.2905 183.029 53.3453 183.025 50.9416C183.021 48.5378 184.704 46.5847 186.785 46.58C188.866 46.5753 190.558 48.521 190.562 50.9248C190.567 53.329 188.883 55.2816 186.802 55.2858Z" fill="#326AB3"/>
<path d="M246.395 69.4112L127.25 69.6732C124.719 69.6785 122.662 67.3232 122.657 64.4126C122.651 61.5015 124.699 59.1377 127.23 59.1324L246.374 58.8704C248.905 58.8651 250.961 61.2198 250.967 64.1304C250.972 67.041 248.926 69.4053 246.395 69.4112ZM203.913 98.1156L172.196 98.1852C171.952 98.1857 171.754 97.9731 171.753 97.7106L171.74 90.9817C171.74 90.7192 171.937 90.5056 172.182 90.505L203.899 90.4354C204.143 90.4349 204.341 90.6475 204.342 90.91L204.355 97.6389C204.355 97.9019 204.158 98.115 203.913 98.1156Z" fill="#326AB3"/>
<path d="M317.356 369.398L317.367 374.089L317.372 378.083C309.293 399.47 290.816 416.192 269.553 422.211L259.111 422.233L257.72 422.235C269.261 410.94 277.82 392.668 278.55 373.714C278.74 368.824 282.783 365.319 286.963 366.456C297.897 369.428 308.607 371.854 317.356 369.398Z" fill="#E7E6F0"/>
<path d="M60.0208 48.5888H140.536C140.536 48.5888 145.272 46.5623 134.559 45.6543C123.846 44.7467 126.891 39.5267 124.297 40.4343C121.704 41.3423 119.214 44.3481 114.599 40.3286C107.946 34.5336 102.421 30.1079 98.9249 36.2356C95.4293 42.3632 91.3844 41.0866 89.5654 39.718C86.2952 37.2568 80.6568 35.7465 77.725 39.718C74.7933 43.6894 70.2736 39.0889 67.0121 38.8456C63.9674 38.6186 64.4184 44.2925 59.6824 44.9732C54.9463 45.6539 50.6612 44.9732 50.7738 46.4483C50.8871 47.9237 59.0059 48.5888 60.0208 48.5888Z" fill="url(#paint3_linear_82_1088)"/>
<path d="M233.58 38.3426C232.229 35.8053 228.815 34.012 225.515 34.9374C221.978 35.9295 220.622 39.6422 220.474 40.0699C220.474 40.232 220.475 40.3945 220.475 40.557C220.472 40.3945 220.469 40.232 220.466 40.0699C220.317 39.6418 218.962 35.9291 215.424 34.9374C212.124 34.012 208.71 35.8057 207.359 38.3426C204.885 42.9917 210.084 48.7465 210.671 49.3974C214.19 53.2917 218.84 53.9356 220.522 54.0684C220.557 54.0713 220.592 54.0737 220.624 54.0762C220.668 54.0721 220.713 54.0676 220.761 54.0627C222.442 53.8904 226.873 53.1598 230.267 49.3969C230.867 48.7323 236.051 42.9852 233.58 38.3426Z" fill="url(#paint4_linear_82_1088)"/>
<path d="M260.745 29.5414C260.507 27.5367 258.67 25.4572 256.185 25.1671C253.521 24.8563 251.61 26.893 251.395 27.1298C251.352 27.2349 251.309 27.3401 251.266 27.4452C251.307 27.3393 251.348 27.2334 251.389 27.1274C251.402 26.8108 251.475 24.0444 249.341 22.4501C247.35 20.9629 244.555 21.2036 242.962 22.4813C240.042 24.8221 242.03 29.9445 242.255 30.5239C243.601 33.9905 246.583 35.6592 247.688 36.1978C247.711 36.2094 247.734 36.22 247.755 36.2305C247.786 36.2394 247.818 36.2488 247.852 36.2589C249.038 36.6 252.238 37.3204 255.545 35.8005C256.13 35.5315 261.181 33.2101 260.745 29.5414Z" fill="url(#paint5_linear_82_1088)"/>
<path d="M241.838 1.85366C240.893 0.393731 238.772 -0.484501 236.874 0.284793C234.839 1.10961 234.251 3.45408 234.188 3.72369C234.197 3.82254 234.207 3.92138 234.217 4.02022C234.205 3.92138 234.194 3.82296 234.183 3.72453C234.07 3.47343 233.056 1.29804 230.908 0.915286C228.903 0.558189 226.987 1.86292 226.335 3.49152C225.139 6.47574 228.543 9.65386 228.928 10.0131C231.232 12.1636 234.018 12.2654 235.02 12.241C235.041 12.2406 235.062 12.2398 235.081 12.2393C235.107 12.2343 235.133 12.2288 235.162 12.2225C236.146 12.0126 238.724 11.2909 240.514 8.78909C240.831 8.34703 243.566 4.52495 241.838 1.85366Z" fill="url(#paint6_linear_82_1088)"/>
<path d="M172.065 36.4282C172.302 36.1916 172.176 35.7743 171.851 35.7222L170.071 35.437C169.943 35.4163 169.832 35.3309 169.775 35.2088L168.991 33.5173C168.849 33.2095 168.429 33.2057 168.282 33.5112L167.472 35.1889C167.413 35.3102 167.301 35.3937 167.172 35.4121L165.388 35.6671C165.063 35.7134 164.93 36.1284 165.163 36.3692L166.443 37.6912C166.535 37.7869 166.577 37.9236 166.554 38.0576L166.235 39.9064C166.177 40.2429 166.514 40.5029 166.805 40.3463L168.406 39.4856C168.522 39.4232 168.66 39.4244 168.774 39.4887L170.362 40.3765C170.651 40.5381 170.992 40.2839 170.939 39.9462L170.649 38.0921C170.628 37.9581 170.672 37.8218 170.766 37.7276L172.065 36.4282Z" fill="url(#paint7_linear_82_1088)"/>
<path d="M51.2817 78.1777C49.8754 78.1777 48.731 77.0336 48.731 75.6269C48.731 74.2206 49.8754 73.0761 51.2817 73.0761C52.688 73.0761 53.8325 74.2202 53.8325 75.6269C53.8325 77.0332 52.688 78.1777 51.2817 78.1777ZM51.2817 73.8743C50.3154 73.8743 49.5291 74.6606 49.5291 75.6269C49.5291 76.5932 50.3154 77.3795 51.2817 77.3795C52.248 77.3795 53.0343 76.5932 53.0343 75.6269C53.0343 74.6606 52.248 73.8743 51.2817 73.8743Z" fill="url(#paint8_linear_82_1088)"/>
<path d="M48.9043 410.216C47.0875 402.408 45.8828 379.973 50.0624 364.932C53.6803 351.911 50.1252 344.274 50.089 344.198L50.861 343.826C51.0148 344.146 54.5999 351.804 50.8876 365.162C46.7475 380.064 47.9398 402.288 49.7396 410.022L48.9043 410.216Z" fill="#0D3F75"/>
<path d="M53.212 410.853C52.6276 410.649 49.7717 408.541 50.9211 387.066C52.0791 365.413 40.8154 361.91 40.7017 361.877L40.9395 361.054C41.4309 361.196 52.9718 364.785 51.7768 387.111C50.6539 408.098 53.5064 410.045 53.5358 410.061L53.212 410.853Z" fill="#0D3F75"/>
<path d="M51.7065 409.629C51.071 406.902 52.2422 400.943 53.4815 394.634C54.3154 390.388 55.1783 385.997 55.3518 383.017C55.5284 379.979 55.0546 376.358 54.596 372.856C53.9528 367.945 53.346 363.306 54.3641 360.03C55.0072 357.963 56.5092 356.423 58.4859 355.805C60.6127 355.145 63.0072 355.624 64.8941 357.098L64.3668 357.773C62.7007 356.472 60.5974 356.039 58.742 356.624C57.013 357.164 55.7489 358.464 55.1828 360.285C54.22 363.382 54.8161 367.93 55.4458 372.745C55.9099 376.287 56.3892 379.949 56.2078 383.068C56.0312 386.105 55.1631 390.525 54.3233 394.8C53.1552 400.743 51.9481 406.887 52.5425 409.435L51.7065 409.629Z" fill="#0D3F75"/>
<path d="M27.0002 371.626C29.4802 370.604 32.3648 365.756 35.0749 365.87C35.6935 368.955 31.1213 369.087 29.4048 370.918C27.9848 372.806 34.7265 373.84 37.6388 371.907C40.081 370.427 39.0394 366.922 41.6597 361.679C43.8351 357.165 45.4667 357.017 45.6419 354.318C45.9619 349.379 40.831 344.901 40.2863 345.224C40.0665 345.354 40.6931 346.199 40.9668 348.419C41.1624 348.6 41.1634 357.342 38.8922 354.477C37.3008 350.849 41.4261 348.149 38.65 344.037C36.5674 340.955 31.2264 341.071 31.1131 341.454C33.8245 342.075 35.5701 349.017 34.4106 351.817C33.5767 353.439 32.9004 352.08 32.6568 350.446C31.1435 345.176 30.7115 342.294 26.8184 340.197C22.0462 337.626 18.3249 342.175 12.3138 343.235C12.3138 343.235 10.9446 350.592 13.9263 354.636C16.7961 358.527 20.7475 354.811 23.8975 355.719C25.2999 355.98 25.6656 357.771 24.8016 358.648C23.5955 360.429 20.7624 360.612 18.7179 360.721C15.3304 360.901 14.1185 360.19 13.7397 360.821C12.6822 362.46 17.9991 366.913 20.8557 365.859C24.4795 366.106 28.4544 359.956 32.1149 361.497C32.2338 364.371 25.0649 367.644 21.975 367.882C20.3349 367.822 19.2159 367.096 19.0631 367.351C19.8531 368.938 24.7114 372.394 27.0002 371.626Z" fill="url(#paint9_linear_82_1088)"/>
<path d="M33.085 371.019C33.9151 370.909 34.7079 370.592 35.3914 370.109C36.055 369.641 36.5771 369.022 36.9773 368.32C37.4145 367.549 37.7162 366.715 38.0397 365.893C38.3918 365.004 38.7903 364.131 39.2454 363.289C39.4521 362.909 39.6556 362.52 39.9031 362.165C40.109 361.87 40.3786 361.587 40.7563 361.546C40.7605 361.546 40.7619 361.542 40.766 361.541C40.8241 361.575 40.8835 361.604 40.9409 361.639C41.1341 361.754 41.3248 361.873 41.5107 362.001C41.5218 361.97 41.5356 361.944 41.5498 361.915C41.2118 361.688 40.8593 361.477 40.4968 361.289C40.4958 361.287 40.4944 361.284 40.4926 361.284C40.3637 361.165 40.2576 361.016 40.1688 360.863C40.0849 360.721 39.9974 360.553 39.9991 360.383C40.0029 360.13 40.1035 359.876 40.1965 359.643C40.2912 359.411 40.3917 359.179 40.4968 358.951C41.2363 357.345 42.1967 355.831 42.7282 354.135C43.164 352.741 43.3147 351.204 42.7759 349.816C42.7545 349.76 42.6681 349.799 42.6909 349.857C43.0037 350.666 43.0814 351.542 42.9964 352.403C42.8298 354.087 42.0768 355.621 41.3124 357.108C40.888 357.931 40.455 358.751 40.108 359.611C39.9808 359.927 39.8319 360.298 39.9553 360.635C40.023 360.824 40.1332 361.011 40.2649 361.173C39.233 360.671 38.1302 360.336 37.0357 360C36.9856 359.984 36.9328 359.968 36.8827 359.952C36.8827 359.952 36.8826 359.952 36.8816 359.95C36.3059 359.339 35.9478 358.562 35.7609 357.748C35.3787 356.09 35.7574 354.429 36.1887 352.821C36.3069 352.381 36.4275 351.94 36.5384 351.497C36.6432 351.083 36.7468 350.662 36.7924 350.233C36.8674 349.505 36.7451 348.707 36.2018 348.173C36.159 348.131 36.0854 348.19 36.13 348.233C36.8135 348.904 36.7845 349.926 36.6065 350.799C36.2516 352.533 35.5694 354.212 35.5055 356C35.4564 357.373 35.7899 358.847 36.7112 359.899C35.6862 359.583 34.6598 359.247 33.7039 358.751C33.1818 358.479 32.6941 358.155 32.2307 357.798C32.2279 357.795 32.2276 357.791 32.2228 357.787C32.2172 357.785 32.2127 357.781 32.2058 357.779C31.787 357.454 31.3871 357.104 31.0001 356.741C30.3566 356.136 29.7418 355.501 29.1045 354.889C28.7261 354.04 28.5689 353.107 28.4769 352.188C28.31 350.538 28.432 348.827 27.8912 347.236C27.4084 345.82 26.2251 344.457 24.633 344.403C24.5718 344.401 24.5639 344.494 24.6254 344.496C25.5104 344.526 26.3028 344.998 26.8831 345.65C28.0049 346.912 28.1835 348.662 28.2641 350.279C28.3377 351.766 28.3719 353.329 28.9362 354.729C28.8543 354.651 28.7731 354.571 28.6895 354.493C27.8566 353.725 26.9557 353.05 25.9763 352.482C23.9691 351.316 21.7587 350.566 19.5691 349.829C19.5124 349.809 19.4803 349.897 19.537 349.918C19.8051 350.007 20.0733 350.096 20.3408 350.188C22.4464 350.906 24.5646 351.685 26.4521 352.881C25.8602 352.762 25.2339 352.906 24.6561 353.035C23.9318 353.196 23.0834 353.352 22.4378 352.878C22.3887 352.843 22.3348 352.919 22.3839 352.955C22.988 353.399 23.7877 353.317 24.4785 353.17C25.1977 353.017 25.9849 352.782 26.7041 353.048C26.7075 353.049 26.7089 353.046 26.7124 353.047C26.7124 353.047 26.7124 353.047 26.7141 353.048C27.6486 353.669 28.4825 354.407 29.2839 355.19C30.0511 355.94 30.7931 356.715 31.609 357.414C31.6871 357.48 31.7673 357.546 31.8461 357.611C31.0353 357.316 30.1043 357.462 29.3171 357.79C28.4068 358.171 27.6531 358.836 26.917 359.476C26.186 360.111 25.4323 360.7 24.5901 361.179C22.9679 362.1 21.1398 362.645 19.2778 362.759C19.2169 362.761 19.2346 362.855 19.2944 362.851C20.309 362.789 21.3143 362.6 22.2826 362.291C23.1514 362.014 23.9888 361.642 24.776 361.181C25.5878 360.703 26.3139 360.124 27.0234 359.508C27.7626 358.866 28.5229 358.205 29.4456 357.839C30.2978 357.502 31.3308 357.385 32.1578 357.857C32.8382 358.377 33.5674 358.818 34.3574 359.164C35.4429 359.635 36.5861 359.953 37.7127 360.305C37.8095 360.336 37.9049 360.367 37.9999 360.397C37.3578 360.498 36.7486 360.789 36.2219 361.167C35.6555 361.572 35.1855 362.097 34.7248 362.614C34.2482 363.152 33.7665 363.682 33.2364 364.168C32.2086 365.112 31.0592 365.918 29.8223 366.562C29.768 366.59 29.8085 366.677 29.861 366.648C30.5394 366.294 31.1946 365.893 31.8139 365.448C32.371 365.047 32.9025 364.612 33.4015 364.144C33.9134 363.663 34.3792 363.143 34.8447 362.62C35.3123 362.097 35.7927 361.57 36.376 361.173C36.9169 360.805 37.541 360.529 38.1976 360.466C38.2004 360.465 38.199 360.462 38.2007 360.463C39.0405 360.738 39.8661 361.053 40.6419 361.471C40.3147 361.545 40.0617 361.787 39.8678 362.055C39.581 362.446 39.3557 362.889 39.1265 363.314C38.6856 364.14 38.2957 364.99 37.9526 365.861C37.6225 366.7 37.3167 367.557 36.8595 368.338C36.4441 369.049 35.8998 369.662 35.2148 370.118C34.5721 370.545 33.8349 370.824 33.0701 370.926C33.0093 370.935 33.0259 371.028 33.085 371.019Z" fill="white"/>
<path d="M81.0769 351.472C78.4245 351.873 74.4665 355.894 71.8618 355.137C71.9973 351.994 76.4688 352.955 78.5724 351.587C80.402 350.091 74.1016 347.48 70.8123 348.663C68.0873 349.519 68.2625 353.17 64.467 357.638C61.2772 361.503 59.6578 361.258 58.8432 363.837C57.3544 368.558 61.2686 374.129 61.8747 373.946C62.1194 373.871 61.7126 372.901 61.9763 370.68C61.8294 370.458 63.9144 361.968 65.4363 365.292C66.1164 369.194 61.4659 370.833 63.181 375.488C64.4683 378.978 69.6826 380.138 69.8844 379.792C67.3989 378.544 67.3602 371.386 69.1541 368.942C70.3513 367.565 70.6834 369.048 70.5299 370.693C70.7425 376.171 70.4743 379.073 73.7546 382.037C77.7759 385.671 82.4748 382.14 88.5658 382.544C88.5658 382.544 91.6508 375.725 89.7197 371.088C87.8611 366.624 83.1373 369.291 80.2948 367.659C78.9951 367.072 79.0673 365.245 80.1155 364.6C81.7114 363.157 84.5065 363.655 86.5182 364.036C89.8507 364.668 90.8584 365.648 91.3764 365.125C92.7944 363.786 88.6933 358.193 85.6673 358.537C82.2073 357.432 76.8797 362.457 73.6924 360.089C74.263 357.269 82.0058 355.799 85.0629 356.305C86.6415 356.754 87.5549 357.726 87.7643 357.515C87.3766 355.785 83.4832 351.271 81.0769 351.472Z" fill="url(#paint10_linear_82_1088)"/>
<path d="M75.023 350.611C74.1901 350.52 73.3448 350.639 72.5662 350.945C71.81 351.241 71.1551 351.718 70.5991 352.304C69.9909 352.949 69.4987 353.686 68.9887 354.408C68.4343 355.188 67.8392 355.941 67.1964 356.65C66.9055 356.97 66.6148 357.299 66.29 357.584C66.0194 357.822 65.6904 358.033 65.3137 357.983C65.3095 357.982 65.3075 357.985 65.303 357.985C65.2546 357.938 65.2038 357.896 65.1564 357.848C64.9961 357.691 64.8392 357.529 64.6892 357.361C64.6716 357.387 64.6515 357.41 64.6305 357.435C64.9049 357.736 65.1969 358.025 65.5038 358.294C65.5041 358.297 65.5048 358.299 65.5065 358.3C65.6033 358.447 65.671 358.616 65.7208 358.786C65.7685 358.945 65.8131 359.128 65.7709 359.293C65.7066 359.538 65.5487 359.76 65.4028 359.964C65.2556 360.167 65.1025 360.368 64.946 360.565C63.8446 361.949 62.5507 363.19 61.6297 364.71C60.8739 365.961 60.3611 367.417 60.5532 368.893C60.5608 368.953 60.6538 368.936 60.6458 368.874C60.5349 368.013 60.6687 367.144 60.9565 366.329C61.5202 364.732 62.6174 363.423 63.7143 362.161C64.3225 361.462 64.9391 360.769 65.4813 360.017C65.6804 359.74 65.9133 359.416 65.8739 359.058C65.8535 358.859 65.7906 358.651 65.7018 358.463C66.5844 359.196 67.5752 359.784 68.5581 360.372C68.603 360.399 68.6503 360.426 68.6953 360.454C68.6953 360.454 68.6953 360.454 68.696 360.457C69.1093 361.187 69.2717 362.027 69.2592 362.862C69.2351 364.563 68.471 366.086 67.6682 367.545C67.4484 367.944 67.2262 368.344 67.0129 368.747C66.8121 369.125 66.6114 369.509 66.4648 369.914C66.2184 370.603 66.1465 371.407 66.5467 372.056C66.5785 372.106 66.6642 372.066 66.6311 372.014C66.1275 371.2 66.3995 370.214 66.7804 369.409C67.5389 367.809 68.602 366.341 69.0906 364.62C69.4659 363.299 69.4939 361.788 68.8497 360.546C69.77 361.098 70.6865 361.668 71.4966 362.378C71.9389 362.767 72.335 363.197 72.6999 363.655C72.702 363.658 72.7013 363.663 72.7051 363.667C72.7099 363.671 72.7134 363.675 72.7196 363.68C73.049 364.095 73.3538 364.53 73.643 364.975C74.1237 365.716 74.5695 366.478 75.0416 367.225C75.2065 368.14 75.137 369.084 75.0071 369.998C74.7755 371.64 74.2488 373.272 74.3943 374.947C74.5253 376.437 75.3495 378.042 76.8829 378.474C76.942 378.491 76.9721 378.403 76.9126 378.386C76.0601 378.146 75.4034 377.498 74.9956 376.727C74.207 375.234 74.4514 373.491 74.7586 371.903C75.042 370.44 75.382 368.914 75.1674 367.42C75.2282 367.516 75.2884 367.612 75.3506 367.708C75.9764 368.653 76.6904 369.523 77.5056 370.308C79.1769 371.918 81.1447 373.174 83.0952 374.411C83.1453 374.445 83.1975 374.366 83.1474 374.333C82.9086 374.182 82.6694 374.031 82.4313 373.879C80.5575 372.679 78.6865 371.418 77.1386 369.807C77.685 370.064 78.3278 370.072 78.9198 370.085C79.6614 370.102 80.523 370.152 81.0369 370.766C81.0759 370.812 81.1464 370.751 81.1077 370.704C80.627 370.129 79.8311 370.018 79.1251 369.996C78.39 369.973 77.5696 370.013 76.9347 369.584C76.9316 369.582 76.9295 369.585 76.9261 369.583C76.9261 369.583 76.9261 369.583 76.9244 369.582C76.1648 368.756 75.5313 367.84 74.9397 366.89C74.3736 365.978 73.8379 365.048 73.2128 364.175C73.153 364.092 73.0904 364.009 73.0293 363.928C73.746 364.407 74.6853 364.487 75.5282 364.356C76.5031 364.204 77.3937 363.737 78.2611 363.292C79.1223 362.848 79.9953 362.456 80.9273 362.191C82.7226 361.684 84.6282 361.59 86.4633 361.924C86.5227 361.937 86.5282 361.84 86.4695 361.83C85.4694 361.648 84.4478 361.592 83.4338 361.661C82.5243 361.723 81.6223 361.885 80.7476 362.145C79.8453 362.416 79.0017 362.806 78.1661 363.234C77.2948 363.682 76.3991 364.143 75.4155 364.278C74.5073 364.402 73.4765 364.27 72.786 363.615C72.2493 362.947 71.6466 362.345 70.9616 361.821C70.0199 361.104 68.9855 360.523 67.9754 359.913C67.8887 359.859 67.8036 359.807 67.7186 359.755C68.3663 359.81 69.0274 359.672 69.629 359.431C70.276 359.173 70.8569 358.775 71.4282 358.383C72.0195 357.974 72.6135 357.574 73.2442 357.228C74.4676 356.556 75.7763 356.047 77.131 355.717C77.1908 355.702 77.1722 355.609 77.1141 355.624C76.3707 355.807 75.6391 356.039 74.931 356.325C74.2948 356.581 73.6745 356.878 73.078 357.213C72.466 357.558 71.8895 357.951 71.3127 358.349C70.7342 358.746 70.1419 359.143 69.4804 359.389C68.867 359.617 68.1955 359.737 67.5427 359.642C67.54 359.642 67.5403 359.645 67.5389 359.644C66.7893 359.176 66.0626 358.674 65.4091 358.082C65.7446 358.089 66.0477 357.914 66.3 357.7C66.6715 357.389 66.9963 357.013 67.3202 356.654C67.9453 355.957 68.5266 355.225 69.0678 354.461C69.5886 353.724 70.09 352.965 70.7204 352.315C71.293 351.724 71.968 351.258 72.7424 350.979C73.4685 350.717 74.2509 350.622 75.0185 350.705C75.0765 350.71 75.0824 350.617 75.023 350.611Z" fill="white"/>
<path d="M33.9383 339.794C36.3035 341.059 41.8819 340.206 43.5155 342.37C41.5253 344.807 38.5183 341.362 36.0132 341.2C33.6521 341.304 37.1367 347.165 40.4799 348.185C43.1755 349.129 45.2213 346.099 50.9373 344.789C55.8074 343.601 56.9578 344.766 59.1547 343.187C63.1739 340.296 63.374 333.491 62.7785 333.275C62.5384 333.188 62.283 334.209 60.7423 335.83C60.7264 336.097 53.9726 341.651 54.7436 338.078C56.5352 334.545 61.2421 336.014 62.6555 331.259C63.7137 327.693 60.2309 323.645 59.8621 323.8C61.1059 326.287 56.851 332.045 53.9505 332.93C52.1673 333.316 52.7883 331.931 53.8963 330.704C57.0062 326.188 58.9588 324.024 58.1055 319.687C57.0594 314.37 51.1806 314.388 46.5428 310.421C46.5428 310.421 39.9884 314.039 38.7588 318.91C37.5756 323.597 42.9567 324.286 44.2564 327.294C44.9466 328.541 43.7944 329.962 42.5686 329.852C40.4263 330.053 38.4848 327.983 37.1014 326.474C34.8102 323.974 34.59 322.586 33.8615 322.695C31.9235 322.92 31.8609 329.854 34.4905 331.388C36.6013 334.343 43.8784 333.504 45.0143 337.307C42.8686 339.226 35.7854 335.772 33.6386 333.538C32.643 332.234 32.493 330.909 32.1986 330.952C31.4739 332.571 31.8903 338.516 33.9383 339.794Z" fill="url(#paint11_linear_82_1088)"/>
<path d="M38.2729 344.106C38.8859 344.676 39.6341 345.087 40.4411 345.307C41.2238 345.522 42.0346 345.532 42.8308 345.395C43.7041 345.243 44.5401 344.946 45.3806 344.673C46.2919 344.379 47.2191 344.132 48.1591 343.949C48.5838 343.867 49.0134 343.777 49.445 343.743C49.8044 343.714 50.1939 343.742 50.4652 344.008C50.4683 344.011 50.4718 344.01 50.4749 344.013C50.4863 344.079 50.5011 344.143 50.5105 344.21C50.5447 344.431 50.5737 344.654 50.5931 344.879C50.6231 344.869 50.6528 344.862 50.6843 344.855C50.6449 344.45 50.5837 344.044 50.4987 343.645C50.4997 343.642 50.5008 343.64 50.5004 343.638C50.5105 343.463 50.5578 343.287 50.6193 343.121C50.6763 342.965 50.7506 342.791 50.8827 342.685C51.0807 342.527 51.3409 342.443 51.5797 342.367C51.8192 342.292 52.0621 342.223 52.3051 342.159C54.0161 341.709 55.7962 341.489 57.4443 340.822C58.7983 340.272 60.0812 339.412 60.8114 338.115C60.8411 338.063 60.7561 338.02 60.7257 338.075C60.2992 338.83 59.672 339.447 58.9528 339.928C57.5452 340.87 55.8823 341.263 54.2476 341.618C53.3419 341.813 52.4333 342 51.5486 342.278C51.2234 342.381 50.8422 342.501 50.6601 342.811C50.5571 342.983 50.4832 343.187 50.4413 343.391C50.1732 342.276 49.7319 341.212 49.2961 340.154C49.2767 340.104 49.2549 340.054 49.2356 340.005C49.2356 340.005 49.2356 340.005 49.2366 340.003C49.3424 339.171 49.7156 338.4 50.2253 337.739C51.2635 336.391 52.7875 335.628 54.3047 334.939C54.7194 334.75 55.1368 334.563 55.5491 334.368C55.9362 334.186 56.3274 333.998 56.6871 333.761C57.2974 333.356 57.8362 332.754 57.9039 331.996C57.9088 331.936 57.8162 331.917 57.812 331.978C57.7274 332.933 56.9197 333.559 56.1325 333.976C54.567 334.804 52.8359 335.345 51.4138 336.431C50.3221 337.265 49.3953 338.459 49.1672 339.839C48.7608 338.847 48.3678 337.841 48.1439 336.788C48.0222 336.212 47.9628 335.63 47.9441 335.046C47.9445 335.042 47.9476 335.038 47.9476 335.033C47.9459 335.027 47.9455 335.021 47.9428 335.014C47.9275 334.485 47.9438 333.954 47.979 333.424C48.0374 332.543 48.137 331.665 48.2054 330.785C48.6211 329.954 49.2418 329.239 49.8936 328.584C51.062 327.407 52.4613 326.415 53.347 324.986C54.1346 323.714 54.4353 321.935 53.4656 320.672C53.4283 320.623 53.3515 320.676 53.3885 320.725C53.928 321.427 54.0662 322.339 53.9311 323.201C53.6691 324.868 52.4302 326.118 51.2327 327.207C50.1303 328.209 48.9443 329.229 48.2213 330.554C48.2292 330.441 48.2393 330.327 48.2469 330.213C48.3108 329.082 48.2597 327.958 48.0768 326.841C47.7019 324.551 46.8773 322.368 46.0555 320.21C46.0355 320.153 45.9466 320.184 45.9667 320.241C46.0679 320.505 46.1689 320.769 46.2684 321.034C47.0515 323.115 47.7952 325.245 48.0706 327.462C47.7865 326.929 47.2768 326.538 46.8106 326.173C46.2259 325.716 45.5658 325.161 45.5216 324.362C45.5181 324.301 45.4248 324.308 45.4283 324.369C45.4687 325.117 46.0399 325.682 46.5929 326.122C47.1679 326.58 47.8494 327.039 48.101 327.763C48.1024 327.766 48.1059 327.765 48.1069 327.768C48.1069 327.768 48.1069 327.768 48.1076 327.77C48.222 328.886 48.1812 329.998 48.0858 331.114C47.9936 332.183 47.8664 333.248 47.8439 334.322C47.8422 334.424 47.8429 334.528 47.8429 334.63C47.5557 333.817 46.8514 333.191 46.0973 332.792C45.2254 332.33 44.2325 332.172 43.2704 332.01C42.3149 331.85 41.3807 331.642 40.4756 331.297C38.7339 330.629 37.1514 329.564 35.8804 328.2C35.8403 328.154 35.7784 328.227 35.8199 328.271C36.5121 329.015 37.2966 329.671 38.1505 330.222C38.9167 330.717 39.7361 331.126 40.5928 331.441C41.4775 331.764 42.3867 331.956 43.3129 332.113C44.2792 332.275 45.2727 332.442 46.1415 332.922C46.9437 333.366 47.6901 334.089 47.8515 335.026C47.8823 335.882 48.0039 336.725 48.2393 337.554C48.5648 338.692 49.0455 339.776 49.4892 340.869C49.5269 340.964 49.5636 341.057 49.6005 341.149C49.1146 340.718 48.5023 340.433 47.8764 340.266C47.2035 340.086 46.4999 340.057 45.8074 340.03C45.0892 340.004 44.3735 339.969 43.6609 339.868C42.2786 339.675 40.9253 339.3 39.6421 338.754C39.5854 338.73 39.5439 338.817 39.5999 338.839C40.3046 339.138 41.0307 339.389 41.7685 339.583C42.4317 339.759 43.1059 339.892 43.7843 339.981C44.481 340.07 45.1784 340.1 45.8792 340.126C46.5804 340.154 47.2924 340.191 47.9697 340.389C48.598 340.573 49.2073 340.879 49.6738 341.345C49.6762 341.347 49.6773 341.344 49.6779 341.346C49.9986 342.169 50.28 343.006 50.4496 343.871C50.1849 343.665 49.8369 343.624 49.5065 343.644C49.0227 343.671 48.5372 343.779 48.063 343.872C47.1451 344.056 46.2407 344.296 45.3498 344.584C44.4914 344.863 43.6353 345.17 42.7413 345.315C41.9285 345.445 41.1088 345.415 40.3212 345.176C39.5826 344.951 38.8991 344.559 38.3337 344.034C38.2895 343.994 38.2286 344.065 38.2729 344.106Z" fill="white"/>
<path d="M61.1477 402.717C61.0399 404.105 59.2093 415.351 59.0396 417.513H42.8972C42.7003 415.241 40.6962 404.201 40.5697 402.717H61.1477Z" fill="url(#paint12_linear_82_1088)"/>
<path d="M40.5695 402.717C40.5878 402.931 40.6455 403.598 40.7308 404.584H46.9452C53.0095 404.706 57.6138 405.436 56.9558 410.598C56.7992 411.827 56.4851 415.467 56.1703 417.513H59.039C59.2087 415.351 61.0396 404.104 61.1474 402.716H40.5695V402.717Z" fill="#CCCCCC"/>
<path d="M60.7447 402.718H40.973C39.6463 402.718 38.5708 401.846 38.5708 400.77C38.5708 399.694 39.6463 398.823 40.973 398.823H60.7447C62.0718 398.823 63.1472 399.695 63.1472 400.77C63.1472 401.846 62.0718 402.718 60.7447 402.718Z" fill="url(#paint13_linear_82_1088)"/>
<path d="M350.05 360.093C348.744 360.093 347.68 359.031 347.68 357.724C347.68 356.418 348.743 355.355 350.05 355.355C351.357 355.355 352.42 356.418 352.42 357.724C352.42 359.03 351.357 360.093 350.05 360.093ZM350.05 356.097C349.152 356.097 348.422 356.827 348.422 357.724C348.422 358.622 349.152 359.352 350.05 359.352C350.948 359.352 351.679 358.622 351.679 357.724C351.679 356.827 350.948 356.097 350.05 356.097Z" fill="url(#paint14_linear_82_1088)"/>
<path d="M31.8045 304.373C32.0395 304.308 32.2904 304.34 32.5095 304.466C32.7985 304.634 32.9706 304.933 32.9699 305.267L32.9619 308.491C32.9612 308.825 32.7877 309.123 32.4978 309.29C32.2082 309.455 31.8626 309.455 31.5737 309.287L28.7848 307.669C28.4959 307.501 28.3238 307.202 28.3248 306.868C28.3259 306.534 28.499 306.236 28.789 306.069L31.5858 304.465C31.6556 304.424 31.7292 304.393 31.8045 304.373ZM32.0876 308.678C32.1083 308.672 32.1246 308.664 32.1349 308.658C32.1643 308.641 32.2327 308.591 32.2331 308.489L32.241 305.266C32.2414 305.164 32.1729 305.113 32.1436 305.096C32.1142 305.079 32.0368 305.045 31.9483 305.096L29.1515 306.7C29.063 306.751 29.0533 306.836 29.0533 306.869C29.0533 306.903 29.0627 306.987 29.1504 307.039L31.9393 308.657C31.9967 308.69 32.0496 308.688 32.0876 308.678Z" fill="url(#paint15_linear_82_1088)"/>
<defs>
<linearGradient id="paint0_linear_82_1088" x1="337.492" y1="220.61" x2="326.724" y2="278.902" gradientUnits="userSpaceOnUse">
<stop stop-color="#84D4FF"/>
<stop offset="1" stop-color="#F5CBFB"/>
</linearGradient>
<linearGradient id="paint1_linear_82_1088" x1="340.85" y1="282.769" x2="296.367" y2="353.677" gradientUnits="userSpaceOnUse">
<stop stop-color="#FF66BA"/>
<stop offset="1" stop-color="#8A1988"/>
</linearGradient>
<linearGradient id="paint2_linear_82_1088" x1="336.276" y1="288.922" x2="319.596" y2="357.818" gradientUnits="userSpaceOnUse">
<stop stop-color="#FF66BA"/>
<stop offset="1" stop-color="#8A1988"/>
</linearGradient>
<linearGradient id="paint3_linear_82_1088" x1="62.6972" y1="30.1379" x2="129.47" y2="63.3166" gradientUnits="userSpaceOnUse">
<stop stop-color="#84D4FF"/>
<stop offset="1" stop-color="#F5CBFB"/>
</linearGradient>
<linearGradient id="paint4_linear_82_1088" x1="210.516" y1="29.725" x2="230.796" y2="52.9753" gradientUnits="userSpaceOnUse">
<stop stop-color="#FF66BA"/>
<stop offset="1" stop-color="#8A1988"/>
</linearGradient>
<linearGradient id="paint5_linear_82_1088" x1="247.407" y1="17.7574" x2="254.129" y2="38.5227" gradientUnits="userSpaceOnUse">
<stop stop-color="#FF66BA"/>
<stop offset="1" stop-color="#8A1988"/>
</linearGradient>
<linearGradient id="paint6_linear_82_1088" x1="227.693" y1="-1.95525" x2="241.382" y2="10.5301" gradientUnits="userSpaceOnUse">
<stop stop-color="#FF66BA"/>
<stop offset="1" stop-color="#8A1988"/>
</linearGradient>
<linearGradient id="paint7_linear_82_1088" x1="165.045" y1="36.8558" x2="172.188" y2="36.8558" gradientUnits="userSpaceOnUse">
<stop stop-color="#FFDD4F"/>
<stop offset="1" stop-color="#FF8F5C"/>
</linearGradient>
<linearGradient id="paint8_linear_82_1088" x1="48.731" y1="75.6269" x2="53.8325" y2="75.6269" gradientUnits="userSpaceOnUse">
<stop stop-color="#78B0FA"/>
<stop offset="1" stop-color="#003780"/>
</linearGradient>
<linearGradient id="paint9_linear_82_1088" x1="12.0004" y1="356.181" x2="45.6567" y2="356.181" gradientUnits="userSpaceOnUse">
<stop stop-color="#FFDD4F"/>
<stop offset="1" stop-color="#FF8F5C"/>
</linearGradient>
<linearGradient id="paint10_linear_82_1088" x1="58.508" y1="366.03" x2="91.666" y2="366.03" gradientUnits="userSpaceOnUse">
<stop stop-color="#FFDD4F"/>
<stop offset="1" stop-color="#FF8F5C"/>
</linearGradient>
<linearGradient id="paint11_linear_82_1088" x1="31.8675" y1="329.393" x2="63.0291" y2="329.393" gradientUnits="userSpaceOnUse">
<stop stop-color="#FFDD4F"/>
<stop offset="1" stop-color="#FF8F5C"/>
</linearGradient>
<linearGradient id="paint12_linear_82_1088" x1="39.5385" y1="396.921" x2="57.3611" y2="415.776" gradientUnits="userSpaceOnUse">
<stop stop-color="#FF66BA"/>
<stop offset="1" stop-color="#8A1988"/>
</linearGradient>
<linearGradient id="paint13_linear_82_1088" x1="43.5915" y1="393.09" x2="61.4144" y2="411.944" gradientUnits="userSpaceOnUse">
<stop stop-color="#FF66BA"/>
<stop offset="1" stop-color="#8A1988"/>
</linearGradient>
<linearGradient id="paint14_linear_82_1088" x1="347.68" y1="357.724" x2="352.42" y2="357.724" gradientUnits="userSpaceOnUse">
<stop stop-color="#78B0FA"/>
<stop offset="1" stop-color="#003780"/>
</linearGradient>
<linearGradient id="paint15_linear_82_1088" x1="28.3245" y1="306.877" x2="32.9695" y2="306.877" gradientUnits="userSpaceOnUse">
<stop stop-color="#FF66BA"/>
<stop offset="1" stop-color="#8A1988"/>
</linearGradient>
</defs>
</svg>
