<svg width="21" height="27" viewBox="0 0 21 27" fill="none" xmlns="http://www.w3.org/2000/svg">
<path d="M17.2797 9.90001C17.2797 11.146 16.9064 12.3641 16.207 13.4001C15.5076 14.4361 14.5136 15.2436 13.3506 15.7204C12.1876 16.1973 10.9078 16.322 9.67316 16.0789C8.43851 15.8359 7.30441 15.2358 6.41428 14.3548C5.52415 13.4737 4.91796 12.3512 4.67237 11.1291C4.42679 9.907 4.55283 8.64028 5.03457 7.48911C5.5163 6.33794 6.3321 5.35401 7.37878 4.66176C8.42546 3.96951 9.65603 3.60002 10.9149 3.60002C12.6023 3.6019 14.2201 4.26625 15.4134 5.44732C16.6066 6.62839 17.2778 8.22973 17.2797 9.90001ZM20.9167 9.90001C20.917 11.3587 20.5911 12.7994 19.9624 14.1187C19.3337 15.4379 18.4178 16.6031 17.2803 17.5306V26.1C17.2803 26.2534 17.2407 26.4042 17.1653 26.5382C17.0898 26.6722 16.981 26.7849 16.8492 26.8656C16.7173 26.9462 16.5669 26.9922 16.412 26.9991C16.2572 27.006 16.1032 26.9736 15.9645 26.905L10.9148 24.4062L5.86668 26.9049C5.72806 26.9735 5.57401 27.0059 5.41918 26.999C5.26435 26.9921 5.11386 26.9462 4.98202 26.8655C4.85017 26.7849 4.74135 26.6722 4.66587 26.5382C4.59039 26.4043 4.55076 26.2534 4.55076 26.1V17.5317C3.25134 16.47 2.24402 15.1005 1.62232 13.5504C1.00061 12.0003 0.784687 10.3199 0.99459 8.6651C1.20449 7.01032 1.83342 5.43487 2.82297 4.08502C3.81252 2.73517 5.13061 1.6547 6.65486 0.943924C8.1791 0.233148 9.86008 -0.0848847 11.5417 0.0193548C13.2233 0.123594 14.8511 0.646726 16.2738 1.54018C17.6966 2.43363 18.8682 3.66843 19.6799 5.12993C20.4916 6.59143 20.917 8.23224 20.9167 9.90001ZM19.0982 9.90001C19.0982 8.29799 18.6182 6.73194 17.719 5.3999C16.8198 4.06786 15.5418 3.02967 14.0465 2.4166C12.5512 1.80353 10.9058 1.64313 9.31839 1.95567C7.73098 2.26821 6.27286 3.03965 5.1284 4.17246C3.98394 5.30526 3.20456 6.74854 2.8888 8.31978C2.57305 9.89102 2.73511 11.5197 3.35448 12.9997C3.97386 14.4798 5.02273 15.7449 6.36847 16.6349C7.71421 17.5249 9.29636 18 10.9149 18C13.0845 17.9976 15.1645 17.1434 16.6986 15.6249C18.2328 14.1064 19.0957 12.0475 19.0982 9.90001Z" fill="#427600"/>
</svg>
