<svg width="129" height="171" viewBox="0 0 129 171" fill="none" xmlns="http://www.w3.org/2000/svg">
<path d="M60.0259 98.3938C87.1362 98.3938 109.113 76.4166 109.113 49.3063C109.113 22.196 87.1362 0.21875 60.0259 0.21875C32.9156 0.21875 10.9384 22.196 10.9384 49.3063C10.9384 76.4166 32.9156 98.3938 60.0259 98.3938Z" fill="#BFE7F4"/>
<path d="M123.272 107.041C124.709 107.041 125.875 105.875 125.875 104.437C125.875 103 124.709 101.834 123.272 101.834C121.834 101.834 120.668 103 120.668 104.437C120.668 105.875 121.834 107.041 123.272 107.041Z" fill="#4C241D"/>
<path d="M8.18674 43.5805L1.00732 50.7599" stroke="#4C241D" stroke-linecap="round" stroke-linejoin="round"/>
<path d="M8.18674 50.7599L1.00732 43.5805" stroke="#4C241D" stroke-linecap="round" stroke-linejoin="round"/>
<path d="M39.9656 58.1926V46.0159" stroke="#4C241D" stroke-linecap="round" stroke-linejoin="round"/>
<path d="M50.8541 52.7496C50.8125 55.4578 49.7074 58.0411 47.7775 59.9415C45.8476 61.842 43.2477 62.9073 40.5391 62.9073C37.8306 62.9073 35.2307 61.842 33.3008 59.9415C31.3709 58.0411 30.2658 55.4578 30.2242 52.7496C30.2242 47.0533 34.8514 24.0977 40.5379 24.0977C46.2245 24.0977 50.8541 47.0533 50.8541 52.7496Z" fill="#FFCE56" stroke="#4C241D" stroke-linecap="round" stroke-linejoin="round"/>
<path d="M44.1276 54.0769C44.1401 54.556 44.0565 55.0328 43.8818 55.4791C43.707 55.9253 43.4447 56.3321 43.1103 56.6754C42.7758 57.0187 42.376 57.2915 41.9344 57.4778C41.4928 57.6641 41.0184 57.7601 40.5391 57.7601C40.0598 57.7601 39.5854 57.6641 39.1438 57.4778C38.7022 57.2915 38.3024 57.0187 37.968 56.6754C37.6335 56.3321 37.3712 55.9253 37.1965 55.4791C37.0217 55.0328 36.9381 54.556 36.9506 54.0769C36.9506 52.0945 38.5555 44.1066 40.5379 44.1066C42.5203 44.1066 44.1276 52.1043 44.1276 54.0769Z" fill="#F53E28"/>
<path d="M45.2844 63.0634H34.6468C30.8593 63.0634 27.7888 66.1338 27.7888 69.9213V134.137C27.7888 137.924 30.8593 140.995 34.6468 140.995H45.2844C49.0719 140.995 52.1423 137.924 52.1423 134.137V69.9213C52.1423 66.1338 49.0719 63.0634 45.2844 63.0634Z" fill="#EDEBDC" stroke="#4C241D" stroke-linecap="round" stroke-linejoin="round"/>
<path d="M35.0949 63.0634V70.1429C35.0949 72.1407 35.8885 74.0566 37.3011 75.4692C38.7138 76.8819 40.6297 77.6755 42.6274 77.6755V89.6233C42.6279 90.4374 42.837 91.2377 43.2348 91.948C43.6326 92.6583 44.2058 93.2548 44.8996 93.6806C45.6208 94.1219 46.4466 94.3632 47.2919 94.3795C48.1373 94.3958 48.9717 94.1866 49.7094 93.7733C50.447 93.3601 51.0613 92.7578 51.4889 92.0284C51.9165 91.299 52.1421 90.4688 52.1424 89.6233V69.9213C52.1424 68.1025 51.4198 66.3581 50.1337 65.072C48.8476 63.7859 47.1033 63.0634 45.2844 63.0634H35.0949Z" fill="#E7D1C4" stroke="#4C241D" stroke-linecap="round" stroke-linejoin="round"/>
<path d="M58.0383 158.042H21.8929C21.1691 158.041 20.4653 157.805 19.8882 157.368C19.3112 156.931 18.8923 156.318 18.6952 155.621L15.7412 145.247C15.5992 144.751 15.5741 144.229 15.6679 143.722C15.7616 143.215 15.9717 142.737 16.2816 142.325C16.5915 141.913 16.9927 141.578 17.4538 141.347C17.9149 141.116 18.4232 140.996 18.9388 140.995H60.9924C61.508 140.996 62.0163 141.116 62.4774 141.347C62.9384 141.578 63.3397 141.913 63.6496 142.325C63.9594 142.737 64.1695 143.215 64.2633 143.722C64.3571 144.229 64.332 144.751 64.19 145.247L61.2359 155.621C61.0388 156.318 60.62 156.931 60.0429 157.368C59.4659 157.805 58.7621 158.041 58.0383 158.042Z" fill="#BF7E68" stroke="#4C241D" stroke-linecap="round" stroke-linejoin="round"/>
<path d="M35.0949 106.9V123.947" stroke="white" stroke-linecap="round" stroke-linejoin="round"/>
<path d="M94.6903 62.491C94.6487 65.1992 93.5437 67.7825 91.6138 69.6829C89.6839 71.5834 87.084 72.6486 84.3754 72.6486C81.6669 72.6486 79.0669 71.5834 77.137 69.6829C75.2072 67.7825 74.1021 65.1992 74.0605 62.491C74.0605 56.7947 78.6877 33.8391 84.3742 33.8391C90.0607 33.8391 94.6903 56.7947 94.6903 62.491Z" fill="#FFCE56" stroke="#4C241D" stroke-linecap="round" stroke-linejoin="round"/>
<path d="M87.964 63.8183C87.9764 64.2974 87.8929 64.7742 87.7181 65.2205C87.5434 65.6667 87.2811 66.0735 86.9466 66.4168C86.6122 66.7601 86.2123 67.0329 85.7708 67.2192C85.3292 67.4055 84.8547 67.5015 84.3755 67.5015C83.8962 67.5015 83.4218 67.4055 82.9802 67.2192C82.5386 67.0329 82.1388 66.7601 81.8043 66.4168C81.4699 66.0735 81.2075 65.6667 81.0328 65.2205C80.8581 64.7742 80.7745 64.2974 80.787 63.8183C80.787 61.8359 82.3919 53.848 84.3743 53.848C86.3566 53.848 87.964 61.8457 87.964 63.8183Z" fill="#F53E28"/>
<path d="M98.8621 72.8047H68.7417C64.9541 72.8047 61.8837 75.8752 61.8837 79.6627V143.878C61.8837 147.666 64.9541 150.736 68.7417 150.736H98.8621C102.65 150.736 105.72 147.666 105.72 143.878V79.6627C105.72 75.8752 102.65 72.8047 98.8621 72.8047Z" fill="#EDEBDC" stroke="#4C241D" stroke-linecap="round" stroke-linejoin="round"/>
<path d="M88.6725 72.8047V79.8843C88.6725 80.8735 88.8674 81.853 89.2459 82.7669C89.6245 83.6808 90.1793 84.5112 90.8788 85.2106C91.5782 85.9101 92.4086 86.4649 93.3225 86.8435C94.2364 87.222 95.2159 87.4168 96.2051 87.4168V99.3647C96.2056 100.179 96.4147 100.979 96.8125 101.689C97.2102 102.4 97.7834 102.996 98.4773 103.422C99.1984 103.863 100.024 104.105 100.87 104.121C101.715 104.137 102.549 103.928 103.287 103.515C104.025 103.102 104.639 102.499 105.067 101.77C105.494 101.04 105.72 100.21 105.72 99.3647V79.6627C105.72 77.8439 104.997 76.0995 103.711 74.8134C102.425 73.5273 100.681 72.8047 98.862 72.8047H88.6725Z" fill="#E7D1C4" stroke="#4C241D" stroke-linecap="round" stroke-linejoin="round"/>
<path d="M114.051 167.783H53.5524C52.8287 167.783 52.1249 167.546 51.5478 167.109C50.9708 166.672 50.5519 166.059 50.3548 165.363L47.4007 154.988C47.2587 154.492 47.2337 153.971 47.3274 153.464C47.4212 152.957 47.6313 152.478 47.9412 152.066C48.2511 151.654 48.6523 151.319 49.1134 151.089C49.5744 150.858 50.0827 150.737 50.5983 150.736H117.005C117.521 150.737 118.029 150.858 118.49 151.089C118.951 151.319 119.353 151.654 119.663 152.066C119.973 152.478 120.183 152.957 120.276 153.464C120.37 153.971 120.345 154.492 120.203 154.988L117.249 165.363C117.052 166.059 116.633 166.672 116.056 167.109C115.479 167.546 114.775 167.783 114.051 167.783Z" fill="#BF7E68" stroke="#4C241D" stroke-linecap="round" stroke-linejoin="round"/>
<path d="M69.1898 84.9815V102.029" stroke="white" stroke-linecap="round" stroke-linejoin="round"/>
<path d="M76.4958 150.736H66.7544V155.607C66.7493 156.463 66.9716 157.306 67.3985 158.049C67.8254 158.791 68.4418 159.407 69.1846 159.834C69.9274 160.261 70.7701 160.482 71.6267 160.477C72.4833 160.472 73.3232 160.239 74.0605 159.803V165.348C74.0605 166.64 74.5736 167.879 75.4871 168.792C76.4005 169.706 77.6394 170.219 78.9312 170.219C80.223 170.219 81.4618 169.706 82.3753 168.792C83.2887 167.879 83.8019 166.64 83.8019 165.348V150.736H76.4958Z" fill="#E7D1C4" stroke="#4C241D" stroke-linecap="round" stroke-linejoin="round"/>
<path d="M113.026 167.783H127.638" stroke="#4C241D" stroke-linecap="round" stroke-linejoin="round"/>
<path d="M25.3535 158.042H1" stroke="#4C241D" stroke-linecap="round" stroke-linejoin="round"/>
</svg>
