<svg width="172" height="142" viewBox="0 0 172 142" fill="none" xmlns="http://www.w3.org/2000/svg">
<path d="M58.6719 114.438C90.2125 114.438 115.781 88.8688 115.781 57.3281C115.781 25.7875 90.2125 0.21875 58.6719 0.21875C27.1312 0.21875 1.5625 25.7875 1.5625 57.3281C1.5625 88.8688 27.1312 114.438 58.6719 114.438Z" fill="#BFE7F4"/>
<path d="M103.385 25.3253C106.054 25.3253 108.218 23.1617 108.218 20.4928C108.218 17.8239 106.054 15.6604 103.385 15.6604C100.717 15.6604 98.5529 17.8239 98.5529 20.4928C98.5529 23.1617 100.717 25.3253 103.385 25.3253Z" stroke="#4C241D" stroke-linecap="round" stroke-linejoin="round"/>
<path d="M85.1053 99.4313C86.3137 99.4313 87.2934 98.4516 87.2934 97.2432C87.2934 96.0347 86.3137 95.055 85.1053 95.055C83.8968 95.055 82.9171 96.0347 82.9171 97.2432C82.9171 98.4516 83.8968 99.4313 85.1053 99.4313Z" fill="#4C241D"/>
<path d="M7.78586 27.9108C8.99433 27.9108 9.974 26.9312 9.974 25.7227C9.974 24.5142 8.99433 23.5345 7.78586 23.5345C6.57738 23.5345 5.59772 24.5142 5.59772 25.7227C5.59772 26.9312 6.57738 27.9108 7.78586 27.9108Z" fill="#4C241D"/>
<path d="M168.832 81.8971C170.041 81.8971 171.02 80.9174 171.02 79.709C171.02 78.5005 170.041 77.5208 168.832 77.5208C167.624 77.5208 166.644 78.5005 166.644 79.709C166.644 80.9174 167.624 81.8971 168.832 81.8971Z" fill="#4C241D"/>
<path d="M76.0918 26.0378L68.99 33.1396" stroke="#4C241D" stroke-linecap="round" stroke-linejoin="round"/>
<path d="M68.99 26.0378L76.0918 33.1396" stroke="#4C241D" stroke-linecap="round" stroke-linejoin="round"/>
<path d="M165.844 140.735H88.5249V122.196C88.5611 118.484 89.689 114.864 91.7683 111.788C93.8475 108.713 96.786 106.317 100.218 104.9L127.185 93.3772L154.152 104.9C157.583 106.317 160.522 108.713 162.601 111.788C164.68 114.864 165.808 118.484 165.844 122.196V140.735Z" fill="#A9BA5A" stroke="#4C241D" stroke-linecap="round" stroke-linejoin="round"/>
<path d="M105.922 133.003V123.338" stroke="#4C241D" stroke-linecap="round" stroke-linejoin="round"/>
<path d="M136.85 109.808L127.185 117.54L117.52 109.808V86.6117H136.85V109.808Z" fill="#CEB365" stroke="#4C241D" stroke-linecap="round" stroke-linejoin="round"/>
<path d="M148.447 133.003V123.338" stroke="#4C241D" stroke-linecap="round" stroke-linejoin="round"/>
<path d="M153.355 61.2722V56.2987C153.355 43.1486 143.841 32.4881 132.106 32.4881H123.23C111.495 32.4881 101.98 43.1486 101.98 56.2987V61.2722C101.302 61.3143 100.64 61.4916 100.031 61.7938C99.4225 62.096 98.8807 62.5169 98.4373 63.0317C97.994 63.5465 97.6582 64.1449 97.4497 64.7915C97.2412 65.4381 97.1643 66.1199 97.2233 66.7967C97.267 67.6193 97.4915 68.4221 97.8807 69.1481C98.2699 69.8741 98.8144 70.5054 99.4753 70.9971C100.019 71.4647 100.682 71.7718 101.391 71.8841C102.099 71.9964 102.824 71.9095 103.486 71.633C104.257 76.5749 106.305 81.2297 109.427 85.1368C112.55 89.0439 116.639 92.0677 121.289 93.9088C125.226 94.8348 129.327 94.8016 133.248 93.8121L134.093 93.5067C138.674 91.6842 142.708 88.7117 145.805 84.8762C148.902 81.0407 150.959 76.4716 151.776 71.6098C152.424 71.8893 153.136 71.9897 153.836 71.9006C154.537 71.8115 155.2 71.5362 155.758 71.1034C156.391 70.6652 156.925 70.0983 157.324 69.4398C157.724 68.7814 157.98 68.046 158.076 67.2819C158.197 66.5722 158.169 65.8448 157.992 65.1468C157.815 64.4487 157.494 63.7955 157.05 63.2292C156.605 62.663 156.046 62.1962 155.41 61.8591C154.774 61.5221 154.074 61.3221 153.355 61.2722Z" fill="#EDEBDC" stroke="#4C241D" stroke-linecap="round" stroke-linejoin="round"/>
<path d="M121.386 123.338H132.984" stroke="#F53E28" stroke-linecap="round" stroke-linejoin="round"/>
<path d="M105.922 131.07H148.447V140.735H105.922V131.07Z" fill="#FFE5D2" stroke="#4C241D" stroke-linecap="round" stroke-linejoin="round"/>
<path d="M138.783 88.0982C138.783 85.0223 137.561 82.0723 135.386 79.8972C133.211 77.7222 130.261 76.5003 127.185 76.5003C124.109 76.5003 121.159 77.7222 118.984 79.8972C116.809 82.0723 115.587 85.0223 115.587 88.0982C115.587 94.2567 127.185 105.942 127.185 105.942C127.185 105.942 138.783 94.2567 138.783 88.0982Z" fill="white" stroke="#4C241D" stroke-linecap="round" stroke-linejoin="round"/>
<path d="M136.85 65.3489H117.52" stroke="#4C241D" stroke-linecap="round" stroke-linejoin="round"/>
<path d="M135.883 75.0138C139.62 75.0138 142.649 71.9848 142.649 68.2484C142.649 64.5119 139.62 61.4829 135.883 61.4829C132.147 61.4829 129.118 64.5119 129.118 68.2484C129.118 71.9848 132.147 75.0138 135.883 75.0138Z" fill="#9DC1E4"/>
<path d="M118.486 75.0138C122.223 75.0138 125.252 71.9848 125.252 68.2484C125.252 64.5119 122.223 61.4829 118.486 61.4829C114.75 61.4829 111.721 64.5119 111.721 68.2484C111.721 71.9848 114.75 75.0138 118.486 75.0138Z" fill="#9DC1E4"/>
<path d="M121.386 88.5447C122.924 88.5447 124.399 87.9338 125.486 86.8463C126.574 85.7587 127.185 84.2838 127.185 82.7458" stroke="#4C241D" stroke-linecap="round" stroke-linejoin="round"/>
<path d="M127.185 82.7458C127.185 84.2838 127.796 85.7587 128.883 86.8463C129.971 87.9338 131.446 88.5447 132.984 88.5447" stroke="#4C241D" stroke-linecap="round" stroke-linejoin="round"/>
<path d="M119.453 47.952H134.917" stroke="#B5A19C" stroke-linecap="round" stroke-linejoin="round"/>
<path d="M119.453 53.751H134.917" stroke="#B5A19C" stroke-linecap="round" stroke-linejoin="round"/>
<path d="M78.3398 140.735H1.0204V122.196C1.05653 118.484 2.18453 114.864 4.26377 111.788C6.34301 108.713 9.28153 106.317 12.713 104.9L39.6801 93.3772L66.6472 104.9C70.0787 106.317 73.0172 108.713 75.0965 111.788C77.1757 114.864 78.3037 118.484 78.3398 122.196V140.735Z" fill="#BD53B5" stroke="#4C241D" stroke-linecap="round" stroke-linejoin="round"/>
<path d="M18.4173 133.003V123.338" stroke="#4C241D" stroke-linecap="round" stroke-linejoin="round"/>
<path d="M49.345 109.808L39.6801 117.54L30.0152 109.808V86.6117H49.345V109.808Z" fill="#BD53B5" stroke="#4C241D" stroke-linecap="round" stroke-linejoin="round"/>
<path d="M60.943 133.003V123.338" stroke="#4C241D" stroke-linecap="round" stroke-linejoin="round"/>
<path d="M65.8508 61.2722V56.2987C65.8508 43.1486 56.3366 32.4881 44.6015 32.4881H35.7252C23.9901 32.4881 14.4759 43.1486 14.4759 56.2987V61.2722C13.7978 61.3143 13.135 61.4916 12.5265 61.7938C11.918 62.096 11.3761 62.5169 10.9328 63.0317C10.4895 63.5465 10.1537 64.1449 9.94522 64.7915C9.73672 65.4381 9.65975 66.1199 9.71883 66.7967C9.76251 67.6193 9.98695 68.4221 10.3762 69.1481C10.7654 69.8741 11.3098 70.5054 11.9708 70.9971C12.5145 71.4647 13.1777 71.7718 13.886 71.8841C14.5943 71.9964 15.3199 71.9095 15.9817 71.633C16.7523 76.5749 18.8002 81.2297 21.9228 85.1368C25.0453 89.0439 29.1342 92.0677 33.7845 93.9088C37.7212 94.8348 41.8227 94.8016 45.7439 93.8121L46.5886 93.5067C51.1694 91.6842 55.203 88.7117 58.3004 84.8762C61.3978 81.0407 63.4543 76.4716 64.2716 71.6098C64.9199 71.8893 65.6314 71.9897 66.3317 71.9006C67.0321 71.8115 67.6957 71.5362 68.2535 71.1034C68.8868 70.6652 69.4206 70.0983 69.8199 69.4398C70.2193 68.7814 70.4753 68.046 70.5712 67.2819C70.6928 66.5722 70.6644 65.8448 70.4877 65.1468C70.3109 64.4487 69.9898 63.7955 69.545 63.2292C69.1002 62.663 68.5416 62.1962 67.9053 61.8591C67.269 61.5221 66.5691 61.3221 65.8508 61.2722Z" fill="#EDEBDC" stroke="#4C241D" stroke-linecap="round" stroke-linejoin="round"/>
<path d="M33.8812 123.338H45.4791" stroke="#FFCE56" stroke-linecap="round" stroke-linejoin="round"/>
<path d="M18.4173 131.07H60.9429V140.735H18.4173V131.07Z" fill="#FFCE56" stroke="#4C241D" stroke-linecap="round" stroke-linejoin="round"/>
<path d="M51.278 88.0982C51.278 85.0223 50.0561 82.0723 47.8811 79.8972C45.706 77.7222 42.7561 76.5003 39.6801 76.5003C36.6041 76.5003 33.6542 77.7222 31.4791 79.8972C29.3041 82.0723 28.0822 85.0223 28.0822 88.0982C28.0822 94.2567 39.6801 105.942 39.6801 105.942C39.6801 105.942 51.278 94.2567 51.278 88.0982Z" fill="white" stroke="#4C241D" stroke-linecap="round" stroke-linejoin="round"/>
<path d="M49.345 65.3489H30.0152" stroke="#4C241D" stroke-linecap="round" stroke-linejoin="round"/>
<path d="M48.3785 75.0138C52.115 75.0138 55.144 71.9848 55.144 68.2484C55.144 64.5119 52.115 61.4829 48.3785 61.4829C44.6421 61.4829 41.6131 64.5119 41.6131 68.2484C41.6131 71.9848 44.6421 75.0138 48.3785 75.0138Z" fill="#9DC1E4"/>
<path d="M30.9817 75.0138C34.7181 75.0138 37.7471 71.9848 37.7471 68.2484C37.7471 64.5119 34.7181 61.4829 30.9817 61.4829C27.2452 61.4829 24.2162 64.5119 24.2162 68.2484C24.2162 71.9848 27.2452 75.0138 30.9817 75.0138Z" fill="#9DC1E4"/>
<path d="M33.8812 88.5447C35.4192 88.5447 36.8941 87.9338 37.9817 86.8463C39.0692 85.7587 39.6801 84.2838 39.6801 82.7458" stroke="#4C241D" stroke-linecap="round" stroke-linejoin="round"/>
<path d="M39.6801 82.7458C39.6801 84.2838 40.2911 85.7587 41.3786 86.8463C42.4661 87.9338 43.9411 88.5447 45.4791 88.5447" stroke="#4C241D" stroke-linecap="round" stroke-linejoin="round"/>
<path d="M31.9482 47.952H47.4121" stroke="#B5A19C" stroke-linecap="round" stroke-linejoin="round"/>
<path d="M31.9482 53.751H47.4121" stroke="#B5A19C" stroke-linecap="round" stroke-linejoin="round"/>
</svg>
