<svg width="169" height="172" viewBox="0 0 169 172" fill="none" xmlns="http://www.w3.org/2000/svg">
<path d="M110.109 131.219C141.65 131.219 167.219 105.65 167.219 74.1094C167.219 42.5687 141.65 17 110.109 17C78.5687 17 53 42.5687 53 74.1094C53 105.65 78.5687 131.219 110.109 131.219Z" fill="#BFE7F4"/>
<path d="M155.785 65.2433V71.3478" stroke="#4C241D" stroke-linecap="round" stroke-linejoin="round"/>
<path d="M155.785 83.5566V89.6611" stroke="#4C241D" stroke-linecap="round" stroke-linejoin="round"/>
<path d="M143.576 77.4522H149.68" stroke="#4C241D" stroke-linecap="round" stroke-linejoin="round"/>
<path d="M161.889 77.4522H167.994" stroke="#4C241D" stroke-linecap="round" stroke-linejoin="round"/>
<path d="M9.89423 106.903C12.4228 106.903 14.4726 104.853 14.4726 102.325C14.4726 99.7962 12.4228 97.7464 9.89423 97.7464C7.36567 97.7464 5.31587 99.7962 5.31587 102.325C5.31587 104.853 7.36567 106.903 9.89423 106.903Z" fill="#4C241D"/>
<path d="M136.562 171H23.6293V145.895C23.6372 140.349 25.257 134.924 28.2916 130.281C31.3261 125.638 35.6447 121.977 40.7218 119.744L80.0957 102.325L119.485 119.744C124.559 121.98 128.874 125.641 131.906 130.284C134.938 134.927 136.555 140.351 136.562 145.895V171Z" fill="white" stroke="#4C241D" stroke-linecap="round" stroke-linejoin="round"/>
<path d="M90.7785 116.06H106.04V171H90.7785V116.06Z" fill="#E66353" stroke="#4C241D" stroke-linecap="round" stroke-linejoin="round"/>
<path d="M80.0957 134.373C86.1891 134.37 92.1267 132.448 97.0655 128.879C102.004 125.31 105.693 120.276 107.609 114.491L80.0957 102.325L52.5828 114.491C54.4981 120.276 58.187 125.31 63.1258 128.879C68.0646 132.448 74.0022 134.37 80.0957 134.373Z" fill="#E66353" stroke="#4C241D" stroke-linecap="round" stroke-linejoin="round"/>
<path d="M66.3606 97.7464H93.8307V106.903C93.8307 110.141 92.5444 113.247 90.2548 115.536C87.9651 117.826 84.8598 119.112 81.6217 119.112H78.5695C75.3315 119.112 72.2261 117.826 69.9365 115.536C67.6469 113.247 66.3606 110.141 66.3606 106.903V97.7464Z" fill="#E7D1C4" stroke="#4C241D" stroke-linecap="round" stroke-linejoin="round"/>
<path d="M41.9427 56.5409C40.9168 56.5402 39.9014 56.7464 38.957 57.1471C38.0126 57.5478 37.1588 58.1349 36.4464 58.8731C35.7341 59.6114 35.178 60.4857 34.8112 61.4437C34.4445 62.4018 34.2748 63.424 34.3121 64.4492C34.4038 65.6635 34.778 66.8396 35.4049 67.8836C36.0319 68.9276 36.8941 69.8106 37.9229 70.4621C38.8334 71.1404 39.8993 71.5796 41.0233 71.7396C42.1473 71.8995 43.2935 71.7751 44.357 71.3778C45.8639 78.7481 49.3035 85.5852 54.3231 91.1884C59.3428 96.7916 65.762 100.959 72.9229 103.265C77.1893 104.591 81.7648 104.542 86.0017 103.124L87.3569 102.685C94.4121 100.395 100.744 96.2967 105.721 90.7971C110.698 85.2975 114.146 78.5892 115.721 71.3412C116.766 71.7422 117.892 71.8856 119.004 71.7592C120.116 71.6327 121.182 71.2402 122.11 70.6147C123.093 70.0328 123.936 69.2402 124.577 68.294C125.218 67.3478 125.642 66.2714 125.818 65.1421C125.956 64.0668 125.863 62.9744 125.546 61.9378C125.229 60.9012 124.694 59.9441 123.978 59.1303C123.262 58.3165 122.38 57.6646 121.392 57.2181C120.404 56.7716 119.333 56.5407 118.249 56.5409V43.9626L56.5507 37.208L41.9427 42.8058V56.5409Z" fill="#E7D1C4" stroke="#4C241D" stroke-linecap="round" stroke-linejoin="round"/>
<path d="M95.3568 71.8025C97.0426 71.8025 98.4091 70.4359 98.4091 68.7502C98.4091 67.0645 97.0426 65.698 95.3568 65.698C93.6711 65.698 92.3046 67.0645 92.3046 68.7502C92.3046 70.4359 93.6711 71.8025 95.3568 71.8025Z" fill="#4C241D"/>
<path d="M64.8345 71.8025C66.5202 71.8025 67.8867 70.4359 67.8867 68.7502C67.8867 67.0645 66.5202 65.698 64.8345 65.698C63.1488 65.698 61.7822 67.0645 61.7822 68.7502C61.7822 70.4359 63.1488 71.8025 64.8345 71.8025Z" fill="#4C241D"/>
<path d="M118.249 42.806C118.249 -9.082 41.7748 -2.97753 41.9427 36.1979C41.961 40.5962 42.0557 45.3546 42.0099 48.6694C45.8969 48.9127 49.7928 48.3616 53.4599 47.0497C57.127 45.7378 60.4883 43.6926 63.3389 41.0388C72.2392 58.2717 97.0478 65.3407 118.249 48.8189V42.806Z" fill="#BF7E68" stroke="#4C241D" stroke-linecap="round" stroke-linejoin="round"/>
<path d="M41.9427 171V155.739" stroke="#4C241D" stroke-linecap="round" stroke-linejoin="round"/>
<path d="M115.196 171V155.739" stroke="#4C241D" stroke-linecap="round" stroke-linejoin="round"/>
<path d="M121.301 37.6107H38.8905V26.3174C38.832 23.1692 39.5795 20.0583 41.0619 17.2804C42.5444 14.5025 44.7125 12.1497 47.3604 10.4458C68.6833 -2.43158 90.3969 -1.92491 112.477 10.6381C115.223 12.31 117.482 14.6725 119.031 17.49C120.579 20.3075 121.362 23.4816 121.301 26.6959V37.6107Z" fill="#6B4F5B" stroke="#4C241D" stroke-linecap="round" stroke-linejoin="round"/>
<path d="M1 14.0724L9.63172 22.7041" stroke="#4C241D" stroke-linecap="round" stroke-linejoin="round"/>
<path d="M9.63172 14.0724L1 22.7041" stroke="#4C241D" stroke-linecap="round" stroke-linejoin="round"/>
</svg>
