<svg width="170" height="170" viewBox="0 0 170 170" fill="none" xmlns="http://www.w3.org/2000/svg">
<path d="M57.6719 118.438C89.2125 118.438 114.781 92.8688 114.781 61.3281C114.781 29.7875 89.2125 4.21875 57.6719 4.21875C26.1312 4.21875 0.5625 29.7875 0.5625 61.3281C0.5625 92.8688 26.1312 118.438 57.6719 118.438Z" fill="#BFE7F4"/>
<path d="M28.2564 79.5967C26.6831 79.5967 25.0281 79.5526 23.2902 79.4592C14.4823 78.9793 8.00246 74.7018 5.51223 67.724C3.53949 62.1936 4.66269 56.0484 8.2437 52.7774C15.9297 45.7607 30.6234 45.3171 30.7699 45.3145L31.0734 45.3119C49.0641 45.3119 54.6165 71.1974 54.8448 72.2998L54.9927 73.0183L54.422 73.4775C54.1107 73.7265 46.5998 79.5967 28.2564 79.5967ZM31.0734 47.7113C27.2525 47.7736 15.7637 49.1614 9.86235 54.5491C7.01934 57.1431 6.14127 62.3466 7.77289 66.9173C9.92202 72.9405 15.6249 76.6396 23.4199 77.0624C41.2186 78.0403 50.0355 73.4438 52.3144 72.0145C51.2638 67.7966 45.4999 47.7113 31.0734 47.7113Z" fill="#4C241D"/>
<path d="M30.7907 46.5129C28.2149 46.557 15.6314 47.6569 9.05303 53.662C2.47595 59.6696 4.95452 77.2569 23.355 78.2608C45.0862 79.4437 53.6697 72.541 53.6697 72.541C53.6697 72.541 48.2353 46.2276 30.7907 46.5129Z" fill="white"/>
<path d="M141.609 147.487H132.169C131.518 147.487 130.984 146.968 130.971 146.317C130.73 135.91 129.959 124.418 129.043 121.682C128.743 121.804 128.346 121.964 127.975 122.115C125.661 123.056 121.788 124.628 118.46 124.628C115.446 124.628 113.843 123.331 112.992 122.019H112.826C105.55 122.019 98.6522 121.487 92.3099 120.437L87.3035 146.514C87.1958 147.079 86.7017 147.487 86.1258 147.487H77.8315C77.5111 147.487 77.2051 147.36 76.9794 147.131C76.7537 146.906 76.6292 146.597 76.6318 146.275C76.6331 146.102 76.7109 128.67 69.235 116.224C67.7992 113.832 65.143 111.752 62.3311 109.55C57.8759 106.061 53.2716 102.452 52.3416 96.8416L31.9035 56.0925C31.6078 55.5037 31.8439 54.7852 32.4327 54.4868L38.9501 51.1717C37.0137 50.0252 35.491 48.2068 34.4055 45.7399C34.242 45.369 34.2783 44.9383 34.5014 44.5985L41.6505 33.7323C41.8321 33.4573 42.12 33.268 42.4455 33.2109C42.7698 33.1512 43.1044 33.2342 43.3703 33.4288C50.068 38.4222 57.8201 43.6829 59.5283 44.0849C60.2585 43.8618 60.8798 44.2873 61.0484 44.9176C61.2066 45.5142 61.3272 45.9708 58.4531 47.7476L76.1804 58.8292C76.3711 58.9459 76.5228 59.1171 76.6201 59.3143C89.1945 60.5049 101.49 60.7669 112.507 60.0769C129.139 59.0315 142.408 63.5373 149.489 72.4373C154.485 78.7147 156.021 86.8158 153.935 95.8636C152.721 101.114 150.825 105.703 148.301 109.508C147.663 113.459 146.792 116.162 146.755 116.276L142.797 146.444C142.719 147.043 142.211 147.487 141.609 147.487ZM133.339 145.09H140.556L144.426 115.749C144.483 115.508 145.362 112.766 145.972 108.875C146 108.699 146.065 108.533 146.164 108.387C148.597 104.784 150.426 100.39 151.596 95.3241C153.513 87.0129 152.135 79.6149 147.611 73.9314C141.03 65.6592 128.483 61.4802 112.657 62.4712C101.272 63.1871 88.5434 62.8914 75.5449 61.6203C75.0196 61.5684 74.589 61.1793 74.4853 60.6631L74.471 60.5879L55.5089 48.736C55.1509 48.5129 54.9369 48.1186 54.9447 47.6958C54.9538 47.2729 55.1833 46.8864 55.5491 46.6789C56.1872 46.3132 56.7566 45.9656 57.2404 45.6543C53.4519 43.727 46.8164 38.9644 42.9578 36.111L36.8749 45.3586C38.0928 47.8073 39.81 49.2989 42.107 49.9084C42.5869 50.0381 42.9384 50.448 42.9916 50.9434C43.0435 51.4363 42.7853 51.9136 42.3418 52.1367L34.5831 56.0847L54.5699 95.9337C54.6269 96.0452 54.6645 96.1671 54.684 96.2942C55.3973 101.07 59.6748 104.421 63.811 107.661C66.8018 110.004 69.628 112.219 71.292 114.989C78.0416 126.226 78.9106 140.802 79.017 145.09H85.1349L90.175 118.831C90.2969 118.185 90.9039 117.752 91.5628 117.876C98.0867 119.033 105.241 119.622 112.826 119.622L113.687 119.619H113.695C114.159 119.619 114.582 119.887 114.779 120.304C115.171 121.132 115.975 122.229 118.46 122.229C121.321 122.229 124.919 120.766 127.072 119.892C128.999 119.108 129.466 118.961 130.055 119.21C130.789 119.529 132.709 120.356 133.339 145.09Z" fill="#4C241D"/>
<path d="M112.582 61.2753C98.7637 62.1443 85.4552 61.3843 75.6616 60.4271L75.5449 59.846L56.1444 47.7191C58.6956 46.2639 60.2572 44.9928 59.8136 45.2574C58.3843 46.1186 42.653 34.3912 42.653 34.3912L35.504 45.2574C37.0059 48.6737 39.2601 50.3935 41.7983 51.068L32.9761 55.5556L53.4972 96.4706C54.8033 105.215 66.3842 109.147 70.2635 115.607C78.0105 128.504 77.8315 146.288 77.8315 146.288H86.1258L91.3527 119.057C97.3733 120.125 104.854 120.87 113.695 120.818C116.675 127.126 128.797 119.98 129.586 120.315C131.588 121.178 132.169 146.288 132.169 146.288H141.609L145.614 115.905C145.614 115.905 146.524 113.106 147.157 109.059C149.417 105.716 151.435 101.353 152.765 95.5939C157.909 73.2881 139.894 59.5607 112.582 61.2753Z" fill="white"/>
<path d="M158.345 78.027L158.044 78.4427L158.467 78.7329C161.65 80.9138 163.739 84.5655 163.739 88.712C163.739 92.8302 161.67 96.4547 158.524 98.6411L158.108 98.9301L158.403 99.3422C159.817 101.322 160.665 103.733 160.665 106.346C160.665 112.324 156.31 117.262 150.594 118.232L150.321 118.278L150.215 118.533C148.402 122.913 144.084 125.994 139.048 125.994C135.664 125.994 132.616 124.597 130.42 122.359L129.887 121.816L129.6 122.52C127.839 126.831 123.657 129.88 118.737 130.014L118.504 130.021L118.359 130.203C116.143 132.99 112.763 134.808 108.932 134.808C103.995 134.808 99.7619 131.838 97.8825 127.588L97.7371 127.259L97.379 127.293C97.2383 127.306 97.0939 127.325 96.9626 127.343C96.9137 127.35 96.8667 127.356 96.8223 127.362C96.6492 127.384 96.4941 127.399 96.3409 127.399C91.6901 127.399 87.6953 124.745 85.6725 120.884L85.4359 120.433L84.989 120.678C83.256 121.629 81.3043 122.214 79.2037 122.214C78.3656 122.214 77.5485 122.127 76.7581 121.965L76.5098 121.914L76.3219 122.084C74.3521 123.87 71.7719 124.982 68.9133 124.982C64.9089 124.982 61.429 122.835 59.4818 119.642L59.2886 119.325L58.9295 119.418C46.6697 122.594 39.5666 109.183 46.5041 101.615L45.8933 100.84C44.8545 101.415 43.6031 101.377 42.3687 100.838C41.1327 100.299 39.9545 99.2706 39.1292 97.9496C38.3059 96.6315 37.8475 95.0445 38.0155 93.394C38.1828 91.75 38.9754 90.0027 40.7231 88.3604L41.5641 87.5702L40.4124 87.4971C39.0537 87.4108 37.6006 86.6635 36.3238 85.4424C35.052 84.226 33.9929 82.5735 33.4144 80.7551C32.8364 78.9386 32.7434 76.9758 33.3729 75.1217C34.0003 73.2737 35.3593 71.4919 37.7599 70.0515L38.6888 69.4942L37.6621 69.1489C35.5855 68.4505 34.1293 67.3788 33.186 65.9741C32.24 64.5654 31.7784 62.7746 31.7784 60.5853C31.7784 57.8111 33.0146 55.3034 35.0088 53.4926L35.3722 53.1625L35.0488 52.7931C34.5267 52.1967 33.7924 51.6393 33.0242 51.1042C32.7072 50.8834 32.3884 50.6689 32.0699 50.4547C31.5912 50.1327 31.1134 49.8112 30.6438 49.4697C29.873 48.9091 29.1936 48.3418 28.709 47.7415C28.2277 47.1454 27.9626 46.5472 27.9626 45.9137C27.9626 39.3132 33.312 33.9651 39.9099 33.9651C41.7925 33.9651 43.5515 34.441 45.1474 35.224L45.6712 35.4809L45.845 34.924C47.3808 30.0022 51.9158 26.414 57.3325 26.414C61.2852 26.414 64.7649 28.339 66.9753 31.2829L67.2151 31.6023L67.5796 31.4389C69.0884 30.7625 70.7466 30.3698 72.5008 30.3698C74.3592 30.3698 76.1017 30.8239 77.6872 31.5817L77.9784 31.7208L78.2251 31.5128C80.3314 29.7374 83.008 28.6319 85.9663 28.6319C90.6204 28.6319 94.6118 31.2908 96.6375 35.1526L96.8743 35.6041L97.3211 35.3585C99.0553 34.4051 101.007 33.8199 103.103 33.8199C108.043 33.8199 112.276 36.7898 114.156 41.0395L114.3 41.3659L114.656 41.3354C114.806 41.3225 114.958 41.3018 115.095 41.2832C115.137 41.2774 115.177 41.2719 115.216 41.2669C115.389 41.2443 115.543 41.2283 115.695 41.2283C120.456 41.2283 124.539 44.0051 126.512 48.0101L126.76 48.5134L127.231 48.2094C129.119 46.9923 131.356 46.2684 133.764 46.2684C140.445 46.2684 145.862 51.6823 145.864 58.3589C145.863 58.3612 145.862 58.3704 145.858 58.3929C145.854 58.4211 145.84 58.4929 145.838 58.5713L145.817 59.1906L146.427 59.0799C147.14 58.9505 147.85 58.8597 148.571 58.8597C155.252 58.8597 160.665 64.275 160.665 70.9561C160.665 73.6009 159.792 76.0311 158.345 78.027Z" fill="#DBD3C1" stroke="#4C241D"/>
<path d="M75.0429 60.1781C71.6863 60.1781 69.1857 59.0393 67.6111 56.7981C65.1896 53.3507 65.8667 48.3157 66.3868 46.8735C67.2467 44.4792 71.6124 43.0785 72.4775 42.8217C72.8899 42.6997 73.3283 42.8061 73.6383 43.0966C73.9496 43.3871 74.0819 43.8229 73.9885 44.238C73.6941 45.535 73.755 46.9383 74.0105 47.1796C74.1701 47.1718 74.5254 47.1277 75.2258 46.7282C76.6486 45.9189 77.3542 44.7412 77.0663 43.6569C76.7835 42.5856 75.4022 41.3379 72.4399 41.3379C67.6254 41.4235 62.0237 51.7657 60.2559 55.7423C60.1171 56.0562 59.8499 56.2949 59.5231 56.3986C59.1988 56.5024 58.8408 56.4635 58.5464 56.2871L42.2704 46.5959C41.9942 46.4325 41.7957 46.1653 41.7192 45.8514C41.6427 45.5402 41.6933 45.2107 41.8619 44.9384C42.1381 44.487 48.771 33.8179 61.2377 25.9062C64.7876 23.6546 68.567 22.5133 72.4736 22.5133C80.5111 22.5133 87.0415 27.4445 88.7846 29.696C88.865 29.7972 96.551 39.8671 93.9804 48.7152C92.7041 53.1068 89.1893 56.3701 83.5383 58.409C80.2893 59.5815 77.4307 60.1781 75.0429 60.1781ZM71.3932 45.771C70.0339 46.3651 68.8498 47.1121 68.6436 47.6854C68.3206 48.5829 67.7318 52.7956 69.5748 55.4181C71.589 58.287 76.1545 58.5205 82.7238 56.1522C87.6134 54.3883 90.6264 51.6594 91.6769 48.046C93.9104 40.3574 86.9597 31.255 86.8897 31.1642C85.5953 29.4963 79.7731 24.9127 72.4736 24.9127C69.0301 24.9127 65.6825 25.927 62.523 27.9321C52.7048 34.1629 46.5349 42.3495 44.5804 45.1796L58.632 53.5452C60.4867 49.6931 66.152 39.05 72.2025 38.941H72.2103C76.0027 38.941 78.7264 40.5493 79.3866 43.0421C79.965 45.2263 78.8263 47.439 76.4139 48.8138C74.5267 49.8903 73.0131 49.7736 72.1273 48.6659C71.5177 47.9007 71.3724 46.7697 71.3932 45.771Z" fill="#4C241D"/>
<path d="M42.8839 45.5661L59.1599 55.2547C59.1599 55.2547 65.82 40.2562 72.2246 40.1395C78.6279 40.0201 80.2776 45.2315 75.8199 47.771C71.366 50.3079 72.8186 43.9708 72.8186 43.9708C72.8186 43.9708 68.2143 45.3352 67.5152 47.2807C66.8148 49.2236 64.8421 63.8823 83.131 57.2806C101.417 50.6789 89.9001 33.0942 87.8378 30.4301C85.7743 27.7687 74.2544 19.0685 61.881 26.9179C49.5051 34.7725 42.8839 45.5661 42.8839 45.5661Z" fill="#CEB365"/>
<path d="M57.0834 68.9769C56.7449 68.9769 56.409 68.8342 56.169 68.5593C55.7281 68.056 55.7799 67.2908 56.2819 66.8472C56.4816 66.6708 61.156 62.4452 59.1923 54.92C57.2948 47.6361 50.5751 48.4039 50.2962 48.4454C49.6841 48.5207 49.1017 48.1238 48.959 47.5168C48.8203 46.9176 49.1497 46.3132 49.7217 46.1031C49.5881 46.0979 49.6296 45.1978 47.5207 42.8969C45.4312 40.6168 42.3418 39.382 39.6557 39.7685C37.2809 40.1006 35.347 41.6388 34.063 44.2146C33.7647 44.8138 33.0371 45.0629 32.434 44.7594C31.8348 44.4611 31.5896 43.7321 31.8893 43.1303C33.9826 38.9333 37.085 37.6778 39.3172 37.3639C42.8255 36.8736 46.6556 38.36 49.3105 41.2549C51.0524 43.1537 51.9408 44.7205 52.0031 46.0071C55.3506 46.2872 59.9537 48.212 61.5425 54.3079C63.8978 63.3324 58.1236 68.4659 57.8759 68.6786C57.6463 68.8783 57.3649 68.9769 57.0834 68.9769Z" fill="#4C241D"/>
<path d="M32.9761 43.6725C36.6272 36.3522 44.3975 37.6933 48.4156 42.0746C52.4337 46.4584 50.1419 47.2418 50.1419 47.2418C50.1419 47.2418 58.1781 46.212 60.3674 54.614C62.5593 63.0133 57.0808 67.7629 57.0808 67.7629" fill="#DBD3C1"/>
<path d="M25.9036 58.9771C28.0046 58.9771 29.7077 57.2594 29.7077 55.1405C29.7077 53.0217 28.0046 51.304 25.9036 51.304C23.8027 51.304 22.0995 53.0217 22.0995 55.1405C22.0995 57.2594 23.8027 58.9771 25.9036 58.9771Z" fill="#050300"/>
<path d="M14.7109 74.758L14.7111 74.7574C14.8418 74.2697 15.3387 73.9818 15.8314 74.1113L15.8314 74.1112C15.939 74.1398 16.5748 74.2887 17.4239 74.2982C18.3288 74.3082 19.5099 74.1605 20.5577 73.5078C21.8395 72.711 22.6635 71.3064 23.0447 69.4005C23.1432 68.9127 23.6321 68.5942 24.1236 68.684C24.6159 68.7821 24.9364 69.2628 24.8377 69.7599C24.3389 72.2488 23.2091 74.0215 21.5025 75.0729L21.5023 75.073C20.1528 75.9057 18.6791 76.1255 17.5017 76.1255C16.3247 76.1255 15.4622 75.9056 15.3507 75.8772C15.3493 75.8769 15.3479 75.8765 15.3467 75.8762C14.8629 75.7401 14.5804 75.2411 14.7109 74.758Z" fill="#4C241D" stroke="white" stroke-width="0.6"/>
<path d="M98.3746 114.559C98.3746 114.559 109.332 125.516 126.929 114.559C126.929 114.559 135.562 125.627 142.867 108.029C142.867 108.029 150.172 106.59 150.172 96.6289C150.172 96.6289 144.195 105.041 140.211 105.041C140.211 105.041 136.89 120.867 128.257 111.902C128.257 111.902 113.316 118.875 98.3746 114.559Z" fill="#B7AA91"/>
<path d="M49.9072 94.6367C49.9072 94.6367 54.4207 109.246 64.335 108.582C64.335 108.582 70.2648 114.891 80.8898 110.906C80.8898 110.906 91.5161 117.547 99.1528 108.25C99.1528 108.25 106.79 110.242 110.11 99.2851C110.11 99.2851 103.137 106.258 98.1568 106.258C98.1568 106.258 85.2062 112.566 82.882 107.586C82.882 107.586 67.6086 110.242 66.6125 106.258C66.6125 106.258 57.1081 104.93 49.9072 94.6367Z" fill="#B7AA91"/>
<path d="M25.2175 54.5724C25.7677 54.5724 26.2136 54.0765 26.2136 53.4648C26.2136 52.8531 25.7677 52.3572 25.2175 52.3572C24.6674 52.3572 24.2214 52.8531 24.2214 53.4648C24.2214 54.0765 24.6674 54.5724 25.2175 54.5724Z" fill="white"/>
<path d="M55.8759 42.8398L59.6385 46.1601C59.6385 46.1601 65.1715 35.0915 73.362 37.7478C81.5526 40.404 81.7731 44.832 78.0105 49.7009C78.0105 49.7009 78.6745 53.0238 83.323 47.9318C87.9727 42.8398 73.1415 20.2617 55.8759 42.8398Z" fill="#B2954D"/>
<path d="M8.16978 54.5724C8.16978 54.5724 11.9324 55.457 11.4901 57.2287C11.0478 58.9978 5.29175 61.4336 5.29175 61.4336C5.29175 61.4336 6.1776 55.9006 8.16978 54.5724Z" fill="#4C241D"/>
<path d="M143.57 23.7482C144.747 23.7482 145.7 22.7944 145.7 21.6178C145.7 20.4412 144.747 19.4873 143.57 19.4873C142.393 19.4873 141.44 20.4412 141.44 21.6178C141.44 22.7944 142.393 23.7482 143.57 23.7482Z" fill="#4C241D"/>
<path d="M20.9617 138.477C23.7134 138.477 25.9441 136.246 25.9441 133.494C25.9441 130.743 23.7134 128.512 20.9617 128.512C18.2101 128.512 15.9794 130.743 15.9794 133.494C15.9794 136.246 18.2101 138.477 20.9617 138.477Z" stroke="#4C241D" stroke-linecap="round" stroke-linejoin="round"/>
</svg>
