<svg width="172" height="168" viewBox="0 0 172 168" fill="none" xmlns="http://www.w3.org/2000/svg">
<path d="M89.1094 114.219C120.65 114.219 146.219 88.65 146.219 57.1094C146.219 25.5687 120.65 0 89.1094 0C57.5687 0 32 25.5687 32 57.1094C32 88.65 57.5687 114.219 89.1094 114.219Z" fill="#BFE7F4"/>
<path d="M128.428 119.525H147.733V138.83H128.428V119.525Z" fill="#E7D1C4" stroke="#4C241D" stroke-linecap="round" stroke-linejoin="round"/>
<path d="M41.5552 129.178H133.254V167.068H41.5552V129.178Z" fill="#E7D1C4" stroke="#4C241D" stroke-linecap="round" stroke-linejoin="round"/>
<path d="M133.254 143.657H162.212V167.068H133.254V143.657Z" fill="#E7D1C4" stroke="#4C241D" stroke-linecap="round" stroke-linejoin="round"/>
<path d="M12.5974 143.657H41.555V167.068H12.5974V143.657Z" fill="#E7D1C4" stroke="#4C241D" stroke-linecap="round" stroke-linejoin="round"/>
<path d="M6.76263 144.017H41.3389" stroke="#4C241D" stroke-linecap="round" stroke-linejoin="round"/>
<path d="M133.254 143.657H167.038" stroke="#4C241D" stroke-linecap="round" stroke-linejoin="round"/>
<path d="M133.542 132.491H156.593V144.017H133.542V132.491Z" fill="#E7D1C4" stroke="#4C241D" stroke-linecap="round" stroke-linejoin="round"/>
<path d="M18.2881 43.1693H41.5551V144.017H18.2881V43.1693Z" fill="#E7D1C4" stroke="#4C241D" stroke-linecap="round" stroke-linejoin="round"/>
<path d="M15.4068 66.2203H47.1017" stroke="#4C241D" stroke-linecap="round" stroke-linejoin="round"/>
<path d="M52.8644 103.678H127.78V129.178H52.8644V103.678Z" fill="#A9BA5A" stroke="#4C241D" stroke-linecap="round" stroke-linejoin="round"/>
<path d="M52.8644 115.203H127.78V129.61H52.8644V115.203Z" fill="#E7D1C4" stroke="#4C241D" stroke-linecap="round" stroke-linejoin="round"/>
<path d="M127.78 97.9152V129.61" stroke="#4C241D" stroke-linecap="round" stroke-linejoin="round"/>
<path d="M52.8644 97.9152V129.61" stroke="#4C241D" stroke-linecap="round" stroke-linejoin="round"/>
<path d="M41.5552 109.441H52.8645V129.61H41.5552V109.441Z" fill="#E7D1C4" stroke="#4C241D" stroke-linecap="round" stroke-linejoin="round"/>
<path d="M41.3389 109.441H52.8644V118.085H41.3389V109.441Z" fill="#A9BA5A" stroke="#4C241D" stroke-linecap="round" stroke-linejoin="round"/>
<path d="M152.559 120.966H127.78V109.441H142.647L152.559 120.966Z" fill="#A9BA5A" stroke="#4C241D" stroke-linecap="round" stroke-linejoin="round"/>
<path d="M70.1526 74.8642H107.61V129.61H70.1526V74.8642Z" fill="#E7D1C4" stroke="#4C241D" stroke-linecap="round" stroke-linejoin="round"/>
<path d="M29.8971 23L29.8366 23.0259C26.5264 24.3125 23.6671 26.5433 21.614 29.4411C19.5608 32.339 18.4043 35.7762 18.2881 39.3258V43.1695H41.339V39.2537C41.2248 35.7238 40.0808 32.3044 38.0478 29.4164C36.0149 26.5285 33.1817 24.2981 29.8971 23Z" fill="#BF7E68" stroke="#4C241D" stroke-linecap="round" stroke-linejoin="round"/>
<path d="M29.8134 74.8642V80.6269" stroke="#4C241D" stroke-linecap="round" stroke-linejoin="round"/>
<path d="M29.8134 51.8134V57.5761" stroke="#4C241D" stroke-linecap="round" stroke-linejoin="round"/>
<path d="M29.8134 89.2711V95.0338" stroke="#4C241D" stroke-linecap="round" stroke-linejoin="round"/>
<path d="M29.8134 103.678V109.441" stroke="#4C241D" stroke-linecap="round" stroke-linejoin="round"/>
<path d="M29.8134 118.085V123.847" stroke="#4C241D" stroke-linecap="round" stroke-linejoin="round"/>
<path d="M41.5552 158.136H133.254" stroke="#4C241D" stroke-linecap="round" stroke-linejoin="round"/>
<path d="M70.5128 129.61C70.5128 121.654 78.8168 115.203 89.06 115.203C99.3033 115.203 107.61 121.654 107.61 129.61H70.5128Z" stroke="#4C241D" stroke-linecap="round" stroke-linejoin="round"/>
<path d="M70.1526 103.678H81.678V97.9152H96.0848V103.678H104.729" stroke="#4C241D" stroke-linecap="round" stroke-linejoin="round"/>
<path d="M78.7965 83.5084V86.3898" stroke="#4C241D" stroke-linecap="round" stroke-linejoin="round"/>
<path d="M98.966 83.5084V86.3898" stroke="#4C241D" stroke-linecap="round" stroke-linejoin="round"/>
<path d="M90.322 83.5084V86.3898" stroke="#4C241D" stroke-linecap="round" stroke-linejoin="round"/>
<path d="M70.1526 74.8643C70.1857 70.2247 71.429 65.6741 73.7596 61.6622C76.0902 57.6504 79.4275 54.3162 83.4414 51.9892L93.2034 51.8134C97.6738 53.7213 101.452 56.954 104.028 61.0757C106.604 65.1974 107.854 70.0099 107.61 74.8643H70.1526Z" fill="#A9BA5A" stroke="#4C241D" stroke-linecap="round" stroke-linejoin="round"/>
<path d="M26.9321 152.661V161.305" stroke="#4C241D" stroke-linecap="round" stroke-linejoin="round"/>
<path d="M147.949 152.661V161.305" stroke="#4C241D" stroke-linecap="round" stroke-linejoin="round"/>
<path d="M87.4406 138.254C90.4974 138.254 93.4289 139.468 95.5903 141.63C97.7518 143.791 98.9661 146.723 98.9661 149.78V167.068H75.9152V149.78C75.9152 146.723 77.1295 143.791 79.2909 141.63C81.4524 139.468 84.3839 138.254 87.4406 138.254Z" fill="#E7D1C4" stroke="#4C241D" stroke-linecap="round" stroke-linejoin="round"/>
<path d="M110.491 144.017C113.548 144.017 116.48 145.231 118.641 147.393C120.803 149.554 122.017 152.486 122.017 155.542V167.068H98.966V155.542C98.966 152.486 100.18 149.554 102.342 147.393C104.503 145.231 107.435 144.017 110.491 144.017Z" fill="#E7D1C4" stroke="#4C241D" stroke-linecap="round" stroke-linejoin="round"/>
<path d="M64.3899 144.017C67.4466 144.017 70.3781 145.231 72.5396 147.393C74.701 149.554 75.9153 152.486 75.9153 155.542V167.068H52.8644V155.542C52.8644 152.486 54.0787 149.554 56.2402 147.393C58.4016 145.231 61.3331 144.017 64.3899 144.017Z" fill="#E7D1C4" stroke="#4C241D" stroke-linecap="round" stroke-linejoin="round"/>
<path d="M1 167.068H171" stroke="#4C241D" stroke-linecap="round" stroke-linejoin="round"/>
<path d="M88.8814 31.644C90.0277 31.644 91.127 32.0993 91.9376 32.9099C92.7481 33.7204 93.2035 34.8197 93.2035 35.966V51.8135H84.5594V35.966C84.5594 34.8197 85.0147 33.7204 85.8253 32.9099C86.6358 32.0993 87.7351 31.644 88.8814 31.644Z" fill="#E7D1C4" stroke="#4C241D" stroke-linecap="round" stroke-linejoin="round"/>
<path d="M84.5594 43.1693H93.2035" stroke="#4C241D" stroke-linecap="round" stroke-linejoin="round"/>
<path d="M87.6799 166.587V155.542" stroke="#4C241D" stroke-linecap="round" stroke-linejoin="round"/>
<path d="M110.731 166.587V155.542" stroke="#4C241D" stroke-linecap="round" stroke-linejoin="round"/>
<path d="M64.629 166.587V155.542" stroke="#4C241D" stroke-linecap="round" stroke-linejoin="round"/>
<path d="M18.2881 135.373H41.339" stroke="#4C241D" stroke-linecap="round" stroke-linejoin="round"/>
<path d="M157.144 105.289C158.881 105.289 160.289 103.881 160.289 102.144C160.289 100.408 158.881 99 157.144 99C155.408 99 154 100.408 154 102.144C154 103.881 155.408 105.289 157.144 105.289Z" fill="#4C241D"/>
<path d="M156.517 5V9.44919" stroke="#4C241D" stroke-linecap="round" stroke-linejoin="round"/>
<path d="M156.517 22.7937V27.2429" stroke="#4C241D" stroke-linecap="round" stroke-linejoin="round"/>
<path d="M145.396 16.1215H149.845" stroke="#4C241D" stroke-linecap="round" stroke-linejoin="round"/>
<path d="M163.19 16.1215H167.639" stroke="#4C241D" stroke-linecap="round" stroke-linejoin="round"/>
</svg>
