<svg width="53" height="52" viewBox="0 0 53 52" fill="none" xmlns="http://www.w3.org/2000/svg">
<path d="M51.6982 24.9887H7.27462" stroke="#4C241D" stroke-linecap="round" stroke-linejoin="round"/>
<path d="M51.6982 30.3196H7.27462" stroke="#4C241D" stroke-linecap="round" stroke-linejoin="round"/>
<path d="M51.6982 35.6504H7.27462" stroke="#4C241D" stroke-linecap="round" stroke-linejoin="round"/>
<path d="M27.8667 41.0221C27.8654 39.8688 28.2594 38.7498 28.9831 37.8517C29.7067 36.9536 30.7163 36.3307 31.8435 36.0867C33.0751 35.8001 34.2028 35.1769 35.1007 34.2866C38.2992 31.0881 37.6488 25.2606 33.6534 21.2661C29.6579 17.2715 23.8295 16.6229 20.6328 19.8187C19.7425 20.7166 19.1193 21.8443 18.8328 23.0759C18.5888 24.2031 17.9658 25.2127 17.0677 25.9364C16.1696 26.66 15.0507 27.054 13.8973 27.0527C12.6759 27.0028 11.4571 27.2015 10.3147 27.6366C9.17239 28.0717 8.13027 28.7342 7.25152 29.5839C3.2534 33.5821 4.06546 40.8675 9.05956 45.8599C14.0537 50.8522 21.34 51.6634 25.3346 47.6679C26.1846 46.7893 26.8474 45.7472 27.2827 44.6049C27.7179 43.4625 27.9166 42.2436 27.8667 41.0221Z" fill="#BF7E68" stroke="#4C241D" stroke-linecap="round" stroke-linejoin="round"/>
<path d="M37.4827 43.6467V45.4236" stroke="#4C241D" stroke-linecap="round" stroke-linejoin="round"/>
<path d="M37.4827 48.9775V50.7544" stroke="#4C241D" stroke-linecap="round" stroke-linejoin="round"/>
<path d="M33.9288 47.2006H35.7057" stroke="#4C241D" stroke-linecap="round" stroke-linejoin="round"/>
<path d="M39.2596 47.2006H41.0366" stroke="#4C241D" stroke-linecap="round" stroke-linejoin="round"/>
<path d="M50.8826 41.5739C50.883 41.7618 50.8276 41.9456 50.7234 42.102C50.6193 42.2584 50.471 42.3804 50.2975 42.4526C50.124 42.5248 49.933 42.5438 49.7486 42.5074C49.5643 42.4709 49.3949 42.3806 49.2619 42.2479C49.1289 42.1151 49.0382 41.9459 49.0014 41.7616C48.9646 41.5773 48.9834 41.3862 49.0552 41.2126C49.127 41.0389 49.2488 40.8905 49.405 40.786C49.5612 40.6816 49.7449 40.6259 49.9328 40.6259C50.1843 40.6261 50.4255 40.726 50.6035 40.9037C50.7816 41.0814 50.8819 41.3223 50.8826 41.5739Z" fill="#4C241D"/>
<path d="M9.91071 17.881C11.4467 17.8812 12.9536 17.462 14.2688 16.6686C15.584 15.8753 16.6577 14.7379 17.3739 13.3791H2.44844C3.16459 14.7377 4.23808 15.8751 5.55313 16.6684C6.86819 17.4618 8.37489 17.881 9.91071 17.881Z" fill="#F53E28" stroke="#4C241D" stroke-linecap="round" stroke-linejoin="round"/>
<path d="M17.373 5.50186H2.44844C1.80607 6.71531 1.47025 8.06747 1.47025 9.44046C1.47025 10.8134 1.80607 12.1656 2.44844 13.3791H17.3748C18.0171 12.1656 18.353 10.8134 18.353 9.44046C18.353 8.06747 18.0171 6.71531 17.3748 5.50186H17.373Z" fill="#FFCE56" stroke="#4C241D" stroke-linecap="round" stroke-linejoin="round"/>
<path d="M9.91071 1C8.37473 0.999785 6.86785 1.41897 5.55263 2.21233C4.2374 3.00569 3.16377 4.14312 2.44755 5.50189H17.3739C16.6577 4.14312 15.584 3.00569 14.2688 2.21233C12.9536 1.41897 11.4467 0.999785 9.91071 1Z" fill="#F53E28" stroke="#4C241D" stroke-linecap="round" stroke-linejoin="round"/>
<path d="M40.8873 11.1393L43.781 14.033L27.1439 30.6702L24.2502 27.7765L40.8873 11.1393Z" fill="#E7D1C4" stroke="#4C241D" stroke-linecap="round" stroke-linejoin="round"/>
<path d="M50.1807 8.80344L51.7657 10.3876" stroke="#4C241D" stroke-linecap="round" stroke-linejoin="round"/>
<path d="M48.0111 10.9731L49.5952 12.5572" stroke="#4C241D" stroke-linecap="round" stroke-linejoin="round"/>
<path d="M45.1173 12.4204L46.7023 14.0046" stroke="#4C241D" stroke-linecap="round" stroke-linejoin="round"/>
<path d="M46.116 4.73872L44.5318 3.15369" stroke="#4C241D" stroke-linecap="round" stroke-linejoin="round"/>
<path d="M43.9463 6.90833L42.3622 5.32419" stroke="#4C241D" stroke-linecap="round" stroke-linejoin="round"/>
<path d="M42.4999 9.80207L40.9148 8.21704" stroke="#4C241D" stroke-linecap="round" stroke-linejoin="round"/>
<path d="M43.7811 14.0321L40.8873 11.1384L46.6837 4.1834C46.866 3.96507 47.0917 3.78707 47.3465 3.66071C47.6013 3.53435 47.8796 3.46241 48.1638 3.44945C48.4479 3.4365 48.7316 3.48282 48.9969 3.58547C49.2621 3.68812 49.5031 3.84485 49.7045 4.04569L50.8737 5.21137C51.0746 5.41276 51.2313 5.65374 51.3339 5.919C51.4366 6.18425 51.4829 6.46796 51.47 6.75209C51.457 7.03622 51.3851 7.31454 51.2587 7.56935C51.1324 7.82416 50.9543 8.04989 50.736 8.23217L43.7811 14.0321Z" fill="#BF7E68" stroke="#4C241D" stroke-linecap="round" stroke-linejoin="round"/>
<path d="M10.8356 38.9555L15.9639 44.0838" stroke="#4C241D" stroke-linecap="round" stroke-linejoin="round"/>
<path d="M23.5266 35.4851C25.7867 35.4851 27.6189 33.653 27.6189 31.3928C27.6189 29.1327 25.7867 27.3005 23.5266 27.3005C21.2664 27.3005 19.4342 29.1327 19.4342 31.3928C19.4342 33.653 21.2664 35.4851 23.5266 35.4851Z" fill="#914D41" stroke="#4C241D" stroke-linecap="round" stroke-linejoin="round"/>
</svg>
