<svg width="172" height="148" viewBox="0 0 172 148" fill="none" xmlns="http://www.w3.org/2000/svg">
<path d="M88.1094 114.219C119.65 114.219 145.219 88.65 145.219 57.1094C145.219 25.5687 119.65 0 88.1094 0C56.5687 0 31 25.5687 31 57.1094C31 88.65 56.5687 114.219 88.1094 114.219Z" fill="#BFE7F4"/>
<path d="M20.8279 54.5229C20.2904 51.4041 20.6677 48.1965 21.9143 45.2877C23.1609 42.3788 25.2233 39.8933 27.8523 38.1316C27.8523 38.1316 39.5586 59.1984 48.9192 68.5685C48.9192 68.5685 30.1885 84.9597 23.1642 66.2291L20.8279 54.5229Z" fill="#EDEBDC" stroke="#4C241D" stroke-linecap="round" stroke-linejoin="round"/>
<path d="M79.8152 63.5124C79.8152 63.5124 71.0111 78.4007 64.2917 90.8679C53.1137 111.639 34.8768 113.051 13.8036 94.3266C7.32011 88.7196 2.82791 81.1627 1 72.7881C1 72.7881 9.12174 80.2653 18.4823 80.2653C13.7499 75.8624 10.6951 69.9514 9.84095 63.5442C8.98685 57.137 10.3866 50.6322 13.8005 45.1434C13.8005 45.1434 26.0633 62.6855 38.4896 68.9206C41.6038 70.236 45.0717 70.4577 48.3281 69.5495C54.3872 67.644 63.3359 49.8567 79.8152 63.5124Z" fill="white" stroke="#4C241D" stroke-linecap="round" stroke-linejoin="round"/>
<path d="M77.9097 116.739C81.3828 116.739 84.1983 113.924 84.1983 110.451C84.1983 106.977 81.3828 104.162 77.9097 104.162C74.4366 104.162 71.6211 106.977 71.6211 110.451C71.6211 113.924 74.4366 116.739 77.9097 116.739Z" stroke="#4C241D" stroke-linecap="round" stroke-linejoin="round"/>
<path d="M137.652 126.172C139.388 126.172 140.796 124.764 140.796 123.028C140.796 121.291 139.388 119.883 137.652 119.883C135.915 119.883 134.507 121.291 134.507 123.028C134.507 124.764 135.915 126.172 137.652 126.172Z" fill="#4C241D"/>
<path d="M156.517 5V9.44919" stroke="#4C241D" stroke-linecap="round" stroke-linejoin="round"/>
<path d="M156.517 22.7937V27.2429" stroke="#4C241D" stroke-linecap="round" stroke-linejoin="round"/>
<path d="M145.396 16.1215H149.845" stroke="#4C241D" stroke-linecap="round" stroke-linejoin="round"/>
<path d="M163.19 16.1215H167.639" stroke="#4C241D" stroke-linecap="round" stroke-linejoin="round"/>
<path d="M131.363 137.471H81.0539" stroke="#4C241D" stroke-linecap="round" stroke-linejoin="round"/>
<path d="M103.064 146.904H131.363" stroke="#4C241D" stroke-linecap="round" stroke-linejoin="round"/>
<path d="M40.178 137.471H71.621" stroke="#4C241D" stroke-linecap="round" stroke-linejoin="round"/>
<path d="M65.3324 146.904H84.1982" stroke="#4C241D" stroke-linecap="round" stroke-linejoin="round"/>
<path d="M87.3426 34.9873V19.2658" stroke="#4C241D" stroke-linecap="round" stroke-linejoin="round"/>
<path d="M74.7654 34.9872L68.4768 28.6985" stroke="#4C241D" stroke-linecap="round" stroke-linejoin="round"/>
<path d="M99.9199 34.9872L107.781 27.1265" stroke="#4C241D" stroke-linecap="round" stroke-linejoin="round"/>
<path d="M151.172 54.5229C151.709 51.4041 151.332 48.1965 150.086 45.2877C148.839 42.3788 146.777 39.8933 144.148 38.1316C144.148 38.1316 132.441 59.1984 123.081 68.5685C123.081 68.5685 141.814 84.9597 148.836 66.2291L151.172 54.5229Z" fill="#EDEBDC" stroke="#4C241D" stroke-linecap="round" stroke-linejoin="round"/>
<path d="M92.1849 63.5124C92.1849 63.5124 100.989 78.4007 107.708 90.8679C118.886 111.639 137.123 113.051 158.196 94.3266C164.679 88.7204 169.172 81.1647 171 72.7913C171 72.7913 162.878 80.2653 153.515 80.2653C158.247 75.8624 161.302 69.9514 162.156 63.5442C163.01 57.137 161.61 50.6322 158.196 45.1434C158.196 45.1434 145.918 62.6855 133.507 68.9206C130.393 70.236 126.925 70.4577 123.669 69.5495C117.613 67.644 108.664 49.8567 92.1849 63.5124Z" fill="white" stroke="#4C241D" stroke-linecap="round" stroke-linejoin="round"/>
<path d="M103.007 67.8835C103.836 67.8835 104.507 67.2119 104.507 66.3835C104.507 65.5551 103.836 64.8835 103.007 64.8835C102.179 64.8835 101.507 65.5551 101.507 66.3835C101.507 67.2119 102.179 67.8835 103.007 67.8835Z" fill="#4C241D"/>
<path d="M69.0072 67.8835C69.8356 67.8835 70.5072 67.2119 70.5072 66.3835C70.5072 65.5551 69.8356 64.8835 69.0072 64.8835C68.1788 64.8835 67.5072 65.5551 67.5072 66.3835C67.5072 67.2119 68.1788 67.8835 69.0072 67.8835Z" fill="#4C241D"/>
</svg>
