<svg width="53" height="50" viewBox="0 0 53 50" fill="none" xmlns="http://www.w3.org/2000/svg">
<path d="M6.98941 15.9594C6.82705 15.0173 6.94103 14.0484 7.31758 13.1697C7.69413 12.291 8.31712 11.5402 9.11127 11.0081C9.11127 11.0081 12.6474 17.3717 15.4749 20.2021C15.4749 20.2021 9.81697 25.1534 7.69511 19.4955L6.98941 15.9594Z" fill="#EDEBDC" stroke="#4C241D" stroke-linecap="round" stroke-linejoin="round"/>
<path d="M24.8077 18.6748C24.8077 18.6748 22.1482 23.1721 20.1185 26.9381C16.742 33.2125 11.2331 33.6389 4.86758 27.9829C2.90911 26.2891 1.55215 24.0064 1 21.4767C1 21.4767 3.45333 23.7354 6.28088 23.7354C4.85134 22.4054 3.92858 20.6198 3.67058 18.6844C3.41259 16.749 3.8354 14.7841 4.86663 13.1261C4.86663 13.1261 8.57085 18.425 12.3245 20.3085C13.2652 20.7058 14.3127 20.7728 15.2964 20.4984C17.1266 19.9229 19.8298 14.5498 24.8077 18.6748Z" fill="white" stroke="#4C241D" stroke-linecap="round" stroke-linejoin="round"/>
<path d="M24.2321 34.753C25.2812 34.753 26.1317 33.9025 26.1317 32.8534C26.1317 31.8043 25.2812 30.9538 24.2321 30.9538C23.183 30.9538 22.3325 31.8043 22.3325 32.8534C22.3325 33.9025 23.183 34.753 24.2321 34.753Z" stroke="#4C241D" stroke-linecap="round" stroke-linejoin="round"/>
<path d="M42.2783 37.6024C42.8028 37.6024 43.2281 37.1772 43.2281 36.6526C43.2281 36.1281 42.8028 35.7028 42.2783 35.7028C41.7537 35.7028 41.3285 36.1281 41.3285 36.6526C41.3285 37.1772 41.7537 37.6024 42.2783 37.6024Z" fill="#4C241D"/>
<path d="M47.9771 1V2.34397" stroke="#4C241D" stroke-linecap="round" stroke-linejoin="round"/>
<path d="M47.9771 6.37494V7.7189" stroke="#4C241D" stroke-linecap="round" stroke-linejoin="round"/>
<path d="M44.6176 4.35947H45.9616" stroke="#4C241D" stroke-linecap="round" stroke-linejoin="round"/>
<path d="M49.9926 4.35947H51.3365" stroke="#4C241D" stroke-linecap="round" stroke-linejoin="round"/>
<path d="M40.3786 46.1507H25.1818" stroke="#4C241D" stroke-linecap="round" stroke-linejoin="round"/>
<path d="M31.8304 49H40.3786" stroke="#4C241D" stroke-linecap="round" stroke-linejoin="round"/>
<path d="M12.8345 46.1507H22.3325" stroke="#4C241D" stroke-linecap="round" stroke-linejoin="round"/>
<path d="M20.4329 49H26.1317" stroke="#4C241D" stroke-linecap="round" stroke-linejoin="round"/>
<path d="M27.0815 10.0583V5.30927" stroke="#4C241D" stroke-linecap="round" stroke-linejoin="round"/>
<path d="M23.2823 10.0582L21.3827 8.15863" stroke="#4C241D" stroke-linecap="round" stroke-linejoin="round"/>
<path d="M30.8807 10.0582L33.2552 7.68375" stroke="#4C241D" stroke-linecap="round" stroke-linejoin="round"/>
<path d="M46.3624 15.9594C46.5247 15.0173 46.4108 14.0484 46.0342 13.1697C45.6577 12.291 45.0347 11.5402 44.2405 11.0081C44.2405 11.0081 40.7044 17.3717 37.8769 20.2021C37.8769 20.2021 43.5358 25.1534 45.6567 19.4955L46.3624 15.9594Z" fill="#EDEBDC" stroke="#4C241D" stroke-linecap="round" stroke-linejoin="round"/>
<path d="M28.5442 18.6748C28.5442 18.6748 31.2036 23.1721 33.2333 26.9381C36.6099 33.2125 42.1187 33.6389 48.4843 27.9829C50.4426 26.2894 51.7995 24.007 52.3519 21.4777C52.3519 21.4777 49.8985 23.7354 47.07 23.7354C48.4996 22.4054 49.4223 20.6198 49.6803 18.6844C49.9383 16.749 49.5155 14.7841 48.4843 13.1261C48.4843 13.1261 44.7753 18.425 41.0264 20.3085C40.0857 20.7058 39.0382 20.7728 38.0545 20.4984C36.2252 19.9229 33.5221 14.5498 28.5442 18.6748Z" fill="white" stroke="#4C241D" stroke-linecap="round" stroke-linejoin="round"/>
</svg>
