<svg width="66" height="68" viewBox="0 0 66 68" fill="none" xmlns="http://www.w3.org/2000/svg">
<path d="M25.5312 50.2188C39.6318 50.2188 51.0625 39.6904 51.0625 26.7031C51.0625 13.7158 39.6318 3.1875 25.5312 3.1875C11.4307 3.1875 0 13.7158 0 26.7031C0 39.6904 11.4307 50.2188 25.5312 50.2188Z" fill="#E0F0FF"/>
<path d="M61.769 63.3438H22.5435C21.6037 63.3438 20.7024 62.9999 20.0379 62.3878C19.3733 61.7757 19 60.9456 19 60.08V13.0312L65.3125 17.4062V60.08C65.3125 60.9456 64.9392 61.7757 64.2746 62.3878C63.6101 62.9999 62.7088 63.3438 61.769 63.3438Z" fill="#FF7F11" stroke="#4A0B00" stroke-linecap="round" stroke-linejoin="round"/>
<path d="M65.3125 17.4062H23.75C22.4902 17.4062 21.282 16.9453 20.3912 16.1248C19.5004 15.3044 19 14.1916 19 13.0312C19 11.8709 19.5004 10.7581 20.3912 9.93766C21.282 9.11719 22.4902 8.65625 23.75 8.65625H65.3125C61.5909 11.442 61.8996 14.3689 65.3125 17.4062Z" fill="white" stroke="#4A0B00" stroke-linecap="round" stroke-linejoin="round"/>
<path d="M49.875 31.625H45.125V28.3438C45.125 27.7636 44.8748 27.2072 44.4294 26.797C43.984 26.3867 43.3799 26.1562 42.75 26.1562C42.1201 26.1562 41.516 26.3867 41.0706 26.797C40.6252 27.2072 40.375 27.7636 40.375 28.3438V31.625H35.625C34.9951 31.625 34.391 31.8555 33.9456 32.2657C33.5002 32.6759 33.25 33.2323 33.25 33.8125C33.25 34.3927 33.5002 34.9491 33.9456 35.3593C34.391 35.7695 34.9951 36 35.625 36H40.375V51.3125C40.375 51.8927 40.6252 52.4491 41.0706 52.8593C41.516 53.2695 42.1201 53.5 42.75 53.5C43.3799 53.5 43.984 53.2695 44.4294 52.8593C44.8748 52.4491 45.125 51.8927 45.125 51.3125V36H49.875C50.5049 36 51.109 35.7695 51.5544 35.3593C51.9998 34.9491 52.25 34.3927 52.25 33.8125C52.25 33.2323 51.9998 32.6759 51.5544 32.2657C51.109 31.8555 50.5049 31.625 49.875 31.625Z" fill="#FFCE56" stroke="#4A0B00" stroke-linecap="round" stroke-linejoin="round"/>
<path d="M11.2812 6.46875C12.9208 6.46875 14.25 5.24453 14.25 3.73438C14.25 2.22422 12.9208 1 11.2812 1C9.64165 1 8.3125 2.22422 8.3125 3.73438C8.3125 5.24453 9.64165 6.46875 11.2812 6.46875Z" stroke="#4A0B00" stroke-linecap="round" stroke-linejoin="round"/>
<path d="M33.25 4.28125C33.9058 4.28125 34.4375 3.79156 34.4375 3.1875C34.4375 2.58344 33.9058 2.09375 33.25 2.09375C32.5942 2.09375 32.0625 2.58344 32.0625 3.1875C32.0625 3.79156 32.5942 4.28125 33.25 4.28125Z" fill="#4A0B00"/>
<path d="M7.125 15.7252V17.2728" stroke="#4A0B00" stroke-linecap="round" stroke-linejoin="round"/>
<path d="M7.125 21.9147V23.4623" stroke="#4A0B00" stroke-linecap="round" stroke-linejoin="round"/>
<path d="M2.9248 19.5938H4.60512" stroke="#4A0B00" stroke-linecap="round" stroke-linejoin="round"/>
<path d="M9.6449 19.5938H11.3252" stroke="#4A0B00" stroke-linecap="round" stroke-linejoin="round"/>
<circle cx="19.7142" cy="49.7143" r="17" fill="#D21C80" stroke="#4A0B00"/>
<path d="M19.7143 33C28.9447 33 36.4286 40.4838 36.4286 49.7143C36.4286 58.9447 28.9447 66.4286 19.7143 66.4286C10.4838 66.4286 3 58.9447 3 49.7143C3 40.4838 10.4838 33 19.7143 33ZM19.7143 55.9821C19.2525 55.9821 18.8097 56.1656 18.4832 56.4921C18.1566 56.8186 17.9732 57.2615 17.9732 57.7232C17.9732 58.185 18.1566 58.6278 18.4832 58.9543C18.8097 59.2809 19.2525 59.4643 19.7143 59.4643C20.176 59.4643 20.6189 59.2809 20.9454 58.9543C21.2719 58.6278 21.4554 58.185 21.4554 57.7232C21.4554 57.2615 21.2719 56.8186 20.9454 56.4921C20.6189 56.1656 20.176 55.9821 19.7143 55.9821ZM19.7143 39.6161C16.9801 39.6161 14.4911 42.0187 14.4911 44.8393C14.4911 45.1163 14.6011 45.3821 14.797 45.578C14.9929 45.7739 15.2587 45.8839 15.5357 45.8839C15.8128 45.8839 16.0785 45.7739 16.2744 45.578C16.4703 45.3821 16.5804 45.1163 16.5804 44.8393C16.5804 43.1901 18.1181 41.7054 19.7143 41.7054C21.3105 41.7054 22.8482 43.1901 22.8482 44.8393C22.8482 46.065 22.5125 46.7684 21.5501 47.7295L21.3342 47.9412L20.5402 48.6766C19.224 49.9344 18.6696 50.8996 18.6696 52.5C18.6696 52.7771 18.7797 53.0428 18.9756 53.2387C19.1715 53.4346 19.4372 53.5446 19.7143 53.5446C19.9913 53.5446 20.2571 53.4346 20.453 53.2387C20.6489 53.0428 20.7589 52.7771 20.7589 52.5C20.7589 51.5974 21.0556 51.0681 21.9972 50.1739L22.2256 49.9608L22.5097 49.7004L22.7841 49.4441C24.2884 48.0066 24.9375 46.8339 24.9375 44.8393C24.9375 42.0187 22.4485 39.6161 19.7143 39.6161Z" fill="white"/>
</svg>
