<svg width="52" height="47" viewBox="0 0 52 47" fill="none" xmlns="http://www.w3.org/2000/svg">
<path d="M31.0753 41.8416C31.1234 41.6342 31.2122 41.4383 31.3365 41.2654C31.4608 41.0925 31.6181 40.9459 31.7993 40.8341C31.9806 40.7224 32.1822 40.6476 32.3926 40.6143C32.6029 40.5809 32.8177 40.5896 33.0247 40.6397C33.2316 40.6899 33.4266 40.7806 33.5983 40.9066C33.77 41.0326 33.915 41.1913 34.025 41.3737C34.1349 41.5561 34.2077 41.7584 34.239 41.969C34.2702 42.1797 34.2595 42.3944 34.2072 42.6009L33.3564 46.1106H35.3462L36.0868 43.0573C36.1349 42.8498 36.2237 42.654 36.348 42.481C36.4723 42.3081 36.6296 42.1615 36.8108 42.0498C36.9921 41.938 37.1937 41.8633 37.4041 41.8299C37.6144 41.7966 37.8292 41.8052 38.0362 41.8554C38.2431 41.9056 38.4381 41.9963 38.6098 42.1222C38.7815 42.2482 38.9265 42.407 39.0365 42.5893C39.1464 42.7717 39.2192 42.9741 39.2505 43.1847C39.2817 43.3953 39.271 43.6101 39.2187 43.8165L38.6625 46.1106H40.6523L41.0977 44.2723C41.1984 43.8568 41.4601 43.4985 41.8251 43.276C42.1901 43.0535 42.6285 42.9852 43.0439 43.0859C43.4593 43.1867 43.8177 43.4484 44.0402 43.8134C44.2626 44.1784 44.331 44.6168 44.2302 45.0322L49.9276 21.5423L36.7733 18.351L30.0401 46.1106L31.0753 41.8416Z" fill="#E7D1C4" stroke="#4C241D" stroke-width="0.9" stroke-linecap="round" stroke-linejoin="round"/>
<path d="M39.8565 13.843L49.2526 16.122L48.0485 21.0863L38.6524 18.8072L39.8565 13.843Z" fill="#EDEBDC" stroke="#4C241D" stroke-width="0.9" stroke-linecap="round" stroke-linejoin="round"/>
<path d="M38.2319 13.4491L51.1432 16.5308" stroke="#4C241D" stroke-width="0.9" stroke-linecap="round" stroke-linejoin="round"/>
<path d="M44.8793 15.0115L46.0943 10" stroke="#4C241D" stroke-width="0.9" stroke-linecap="round" stroke-linejoin="round"/>
<path d="M46.0942 10L49.8526 10.9116L49.3968 12.7908L45.6384 11.8792L46.0942 10Z" fill="#E66353" stroke="#4C241D" stroke-width="0.9" stroke-linecap="round" stroke-linejoin="round"/>
<path d="M40.3517 15.9028C40.6009 15.9632 40.8159 16.1202 40.9493 16.3392C41.0828 16.5581 41.1238 16.8211 41.0634 17.0703L40.5316 19.2627L38.6524 18.8069L39.1842 16.6145C39.2446 16.3653 39.4016 16.1503 39.6205 16.0169C39.8395 15.8834 40.1025 15.8424 40.3517 15.9028Z" fill="white" stroke="#4C241D" stroke-width="0.9" stroke-linecap="round" stroke-linejoin="round"/>
<path d="M44.1097 16.8146C44.3589 16.8751 44.5739 17.032 44.7074 17.251C44.8409 17.4699 44.8819 17.7329 44.8214 17.9821L44.2897 20.1746L42.4105 19.7187L42.9422 17.5263C43.0027 17.2771 43.1596 17.0622 43.3786 16.9287C43.5975 16.7952 43.8605 16.7542 44.1097 16.8146Z" fill="white" stroke="#4C241D" stroke-width="0.9" stroke-linecap="round" stroke-linejoin="round"/>
<path d="M47.8685 17.7258C48.1177 17.7862 48.3326 17.9432 48.4661 18.1622C48.5996 18.3811 48.6406 18.6441 48.5802 18.8933L48.0484 21.0857L46.1692 20.6299L46.701 18.4375C46.7614 18.1883 46.9184 17.9733 47.1373 17.8398C47.3563 17.7064 47.6193 17.6654 47.8685 17.7258Z" fill="white" stroke="#4C241D" stroke-width="0.9" stroke-linecap="round" stroke-linejoin="round"/>
<path d="M34.9498 25.8684L35.4056 23.9892L48.56 27.1798L48.1042 29.059L34.9498 25.8684Z" fill="#EDEBDC" stroke="#4C241D" stroke-width="0.9" stroke-linecap="round" stroke-linejoin="round"/>
<path d="M33.2787 32.7587L33.7346 30.8795L46.889 34.0701L46.4332 35.9493L33.2787 32.7587Z" fill="#EDEBDC" stroke="#4C241D" stroke-width="0.9" stroke-linecap="round" stroke-linejoin="round"/>
<path d="M31.4556 40.2757L31.9114 38.3965L45.0659 41.5872L44.6101 43.4664L31.4556 40.2757Z" fill="#EDEBDC" stroke="#4C241D" stroke-width="0.9" stroke-linecap="round" stroke-linejoin="round"/>
<path d="M38.063 23.9704L39.2787 18.9589" stroke="#4C241D" stroke-width="0.9" stroke-linecap="round" stroke-linejoin="round"/>
<path d="M40.5691 24.5782L41.7841 19.5667" stroke="#4C241D" stroke-width="0.9" stroke-linecap="round" stroke-linejoin="round"/>
<path d="M43.701 25.3375L44.9167 20.3266" stroke="#4C241D" stroke-width="0.9" stroke-linecap="round" stroke-linejoin="round"/>
<path d="M46.2065 25.9453L47.4221 20.9344" stroke="#4C241D" stroke-width="0.9" stroke-linecap="round" stroke-linejoin="round"/>
<path d="M36.2402 31.4873L37.4552 26.4758" stroke="#4C241D" stroke-width="0.9" stroke-linecap="round" stroke-linejoin="round"/>
<path d="M38.7456 32.0951L39.9613 27.0836" stroke="#4C241D" stroke-width="0.9" stroke-linecap="round" stroke-linejoin="round"/>
<path d="M41.8776 32.8544L43.0932 27.8436" stroke="#4C241D" stroke-width="0.9" stroke-linecap="round" stroke-linejoin="round"/>
<path d="M44.383 33.4622L45.5987 28.4514" stroke="#4C241D" stroke-width="0.9" stroke-linecap="round" stroke-linejoin="round"/>
<path d="M34.5688 38.3777L35.7845 33.3662" stroke="#4C241D" stroke-width="0.9" stroke-linecap="round" stroke-linejoin="round"/>
<path d="M37.0743 38.9855L38.2899 33.974" stroke="#4C241D" stroke-width="0.9" stroke-linecap="round" stroke-linejoin="round"/>
<path d="M40.2062 39.7448L41.4219 34.7339" stroke="#4C241D" stroke-width="0.9" stroke-linecap="round" stroke-linejoin="round"/>
<path d="M42.7116 40.3527L43.9273 35.3418" stroke="#4C241D" stroke-width="0.9" stroke-linecap="round" stroke-linejoin="round"/>
<path d="M33.0212 40.655C32.8156 40.6051 32.6021 40.5962 32.3929 40.6288C32.1838 40.6615 31.9832 40.735 31.8025 40.8452C31.6218 40.9554 31.4645 41.1001 31.3398 41.2711C31.215 41.442 31.1251 41.6359 31.0753 41.8416L30.0401 46.1106H33.3564L34.2072 42.6009C34.308 42.1856 34.2397 41.7472 34.0173 41.3823C33.7948 41.0174 33.4366 40.7557 33.0212 40.655Z" fill="#EDEBDC" stroke="#4C241D" stroke-width="0.9" stroke-linecap="round" stroke-linejoin="round"/>
<path d="M38.0327 41.8706C37.8271 41.8207 37.6135 41.8118 37.4044 41.8445C37.1953 41.8771 36.9947 41.9506 36.814 42.0608C36.6333 42.171 36.476 42.3157 36.3513 42.4867C36.2265 42.6577 36.1366 42.8515 36.0868 43.0572L35.3462 46.1106H38.6625L39.2187 43.8165C39.3195 43.4012 39.2512 42.9629 39.0288 42.5979C38.8063 42.233 38.4481 41.9714 38.0327 41.8706Z" fill="#EDEBDC" stroke="#4C241D" stroke-width="0.9" stroke-linecap="round" stroke-linejoin="round"/>
<path d="M44.2303 45.0322L43.9686 46.1106" stroke="#4C241D" stroke-width="0.9" stroke-linecap="round" stroke-linejoin="round"/>
<path d="M43.0436 43.0862C42.6283 42.9855 42.1899 43.0538 41.825 43.2762C41.4601 43.4986 41.1984 43.8569 41.0976 44.2722L40.6523 46.1105H43.9685L44.2302 45.0322C44.2801 44.8265 44.289 44.613 44.2564 44.4039C44.2237 44.1948 44.1502 43.9941 44.04 43.8134C43.9298 43.6327 43.7851 43.4755 43.6141 43.3507C43.4432 43.2259 43.2493 43.1361 43.0436 43.0862Z" fill="#EDEBDC" stroke="#4C241D" stroke-width="0.9" stroke-linecap="round" stroke-linejoin="round"/>
<path d="M26 46.1106H47.9152Z" fill="#E7D1C4"/>
<path d="M26 46.1106H47.9152" stroke="#4C241D" stroke-width="0.9" stroke-linecap="round" stroke-linejoin="round"/>
<path d="M0.529633 46.1185H21.5054" stroke="#4C241D" stroke-width="0.9" stroke-linecap="round" stroke-linejoin="round"/>
<path d="M3.33752 44.0126H18.781V46.1185H3.33752V44.0126Z" stroke="#4C241D" stroke-width="0.9" stroke-linecap="round" stroke-linejoin="round"/>
<path d="M4.74149 18.0395H17.377V44.0126H4.74149V18.0395Z" fill="#EDEBDC" stroke="#4C241D" stroke-width="0.9" stroke-linecap="round" stroke-linejoin="round"/>
<path d="M9.6553 15.9336H12.4801V44.0126H9.6553V15.9336Z" fill="#B5A19C" stroke="#4C241D" stroke-width="0.9" stroke-linecap="round" stroke-linejoin="round"/>
<path d="M14.4266 15.9336H7.70872L7.32965 13.8276H14.8057L14.4266 15.9336Z" fill="#B5A19C" stroke="#4C241D" stroke-width="0.9" stroke-linecap="round" stroke-linejoin="round"/>
<path d="M15.3876 13.8276H6.74772L5.4603 11.0197H16.6751L15.3876 13.8276Z" fill="#E7D1C4" stroke="#4C241D" stroke-width="0.9" stroke-linecap="round" stroke-linejoin="round"/>
<path d="M8.25134 8.91382H13.8671V11.0197H8.25134V8.91382Z" fill="#B5A19C" stroke="#4C241D" stroke-width="0.9" stroke-linecap="round" stroke-linejoin="round"/>
<path d="M11.0593 8.91383V4" stroke="#4C241D" stroke-width="0.9" stroke-linecap="round" stroke-linejoin="round"/>
<path d="M14.5691 20.1454H15.2711" stroke="#4C241D" stroke-width="0.9" stroke-linecap="round" stroke-linejoin="round"/>
<path d="M14.5691 27.1652H15.2711" stroke="#4C241D" stroke-width="0.9" stroke-linecap="round" stroke-linejoin="round"/>
<path d="M14.5691 23.6553H15.2711" stroke="#4C241D" stroke-width="0.9" stroke-linecap="round" stroke-linejoin="round"/>
<path d="M14.5691 30.675H15.2711" stroke="#4C241D" stroke-width="0.9" stroke-linecap="round" stroke-linejoin="round"/>
<path d="M14.5691 37.6948H15.2711" stroke="#4C241D" stroke-width="0.9" stroke-linecap="round" stroke-linejoin="round"/>
<path d="M14.5691 41.2047H15.2711" stroke="#4C241D" stroke-width="0.9" stroke-linecap="round" stroke-linejoin="round"/>
<path d="M14.5691 34.1849H15.2711" stroke="#4C241D" stroke-width="0.9" stroke-linecap="round" stroke-linejoin="round"/>
<path d="M6.84741 20.1454H7.54939" stroke="#4C241D" stroke-width="0.9" stroke-linecap="round" stroke-linejoin="round"/>
<path d="M6.84741 27.1652H7.54939" stroke="#4C241D" stroke-width="0.9" stroke-linecap="round" stroke-linejoin="round"/>
<path d="M6.84741 23.6553H7.54939" stroke="#4C241D" stroke-width="0.9" stroke-linecap="round" stroke-linejoin="round"/>
<path d="M6.84741 30.675H7.54939" stroke="#4C241D" stroke-width="0.9" stroke-linecap="round" stroke-linejoin="round"/>
<path d="M6.84741 37.6948H7.54939" stroke="#4C241D" stroke-width="0.9" stroke-linecap="round" stroke-linejoin="round"/>
<path d="M6.84741 41.2047H7.54939" stroke="#4C241D" stroke-width="0.9" stroke-linecap="round" stroke-linejoin="round"/>
<path d="M6.84741 34.1849H7.54939" stroke="#4C241D" stroke-width="0.9" stroke-linecap="round" stroke-linejoin="round"/>
<path d="M23.3921 13.7211C24.2226 13.7211 24.8959 13.0478 24.8959 12.2173C24.8959 11.3867 24.2226 10.7134 23.3921 10.7134C22.5615 10.7134 21.8882 11.3867 21.8882 12.2173C21.8882 13.0478 22.5615 13.7211 23.3921 13.7211Z" stroke="#4C241D" stroke-linecap="round" stroke-linejoin="round"/>
<path d="M47.6786 43.9769C48.0939 43.9769 48.4305 43.6403 48.4305 43.225C48.4305 42.8097 48.0939 42.4731 47.6786 42.4731C47.2633 42.4731 46.9267 42.8097 46.9267 43.225C46.9267 43.6403 47.2633 43.9769 47.6786 43.9769Z" fill="#4C241D"/>
<path d="M38.1902 1V2.06397" stroke="#4C241D" stroke-linecap="round" stroke-linejoin="round"/>
<path d="M38.1902 5.25516V6.31913" stroke="#4C241D" stroke-linecap="round" stroke-linejoin="round"/>
<path d="M35.5306 3.65958H36.5946" stroke="#4C241D" stroke-linecap="round" stroke-linejoin="round"/>
<path d="M39.7858 3.65958H40.8497" stroke="#4C241D" stroke-linecap="round" stroke-linejoin="round"/>
</svg>
