<svg width="172" height="170" viewBox="0 0 172 170" fill="none" xmlns="http://www.w3.org/2000/svg">
<path d="M93.1094 115.219C124.65 115.219 150.219 89.65 150.219 58.1094C150.219 26.5687 124.65 1 93.1094 1C61.5687 1 36 26.5687 36 58.1094C36 89.65 61.5687 115.219 93.1094 115.219Z" fill="#BFE7F4"/>
<path d="M170.772 82.0826H20.6189" stroke="#4C241D" stroke-linecap="round" stroke-linejoin="round"/>
<path d="M170.772 100.101H20.6189" stroke="#4C241D" stroke-linecap="round" stroke-linejoin="round"/>
<path d="M170.772 118.119H20.6189" stroke="#4C241D" stroke-linecap="round" stroke-linejoin="round"/>
<path d="M90.2208 136.276C90.2163 132.377 91.548 128.595 93.994 125.56C96.4399 122.524 99.8523 120.418 103.662 119.594C107.825 118.625 111.637 116.519 114.672 113.509C125.483 102.698 123.284 83.0014 109.78 69.4997C96.2749 55.9979 76.5749 53.8057 65.7699 64.6077C62.7607 67.6426 60.6543 71.4542 59.6857 75.6169C58.861 79.427 56.7554 82.8394 53.7198 85.2854C50.6842 87.7313 46.9021 89.063 43.0037 89.0586C38.8754 88.8901 34.7558 89.5615 30.8946 91.0321C27.0334 92.5028 23.511 94.7421 20.5409 97.6143C7.0271 111.128 9.7719 135.753 26.6521 152.627C43.5323 169.501 68.1603 172.243 81.6621 158.738C84.5352 155.769 86.7753 152.247 88.2465 148.385C89.7178 144.524 90.3894 140.404 90.2208 136.276Z" fill="#BF7E68" stroke="#4C241D" stroke-linecap="round" stroke-linejoin="round"/>
<path d="M122.723 145.147V151.153" stroke="#4C241D" stroke-linecap="round" stroke-linejoin="round"/>
<path d="M122.723 163.165V169.171" stroke="#4C241D" stroke-linecap="round" stroke-linejoin="round"/>
<path d="M110.711 157.159H116.717" stroke="#4C241D" stroke-linecap="round" stroke-linejoin="round"/>
<path d="M128.729 157.159H134.735" stroke="#4C241D" stroke-linecap="round" stroke-linejoin="round"/>
<path d="M168.015 138.141C168.016 138.776 167.829 139.397 167.477 139.926C167.125 140.454 166.624 140.867 166.037 141.111C165.451 141.355 164.805 141.419 164.182 141.296C163.559 141.173 162.986 140.867 162.537 140.419C162.087 139.97 161.781 139.398 161.657 138.775C161.532 138.152 161.595 137.506 161.838 136.919C162.081 136.333 162.493 135.831 163.021 135.478C163.549 135.125 164.17 134.936 164.805 134.936C165.655 134.937 166.47 135.275 167.072 135.875C167.673 136.476 168.013 137.29 168.015 138.141Z" fill="#4C241D"/>
<path d="M29.529 58.0581C34.7207 58.0588 39.814 56.642 44.2595 53.9604C48.7049 51.2788 52.3339 47.4343 54.7547 42.8416H4.30634C6.72694 47.4338 10.3554 51.2781 14.8003 53.9596C19.2452 56.6412 24.3379 58.0583 29.529 58.0581Z" fill="#F53E28" stroke="#4C241D" stroke-linecap="round" stroke-linejoin="round"/>
<path d="M54.7517 16.2165H4.30632C2.13509 20.318 1 24.8883 1 29.529C1 34.1698 2.13509 38.7401 4.30632 42.8416H54.7577C56.9289 38.7401 58.064 34.1698 58.064 29.529C58.064 24.8883 56.9289 20.318 54.7577 16.2165H54.7517Z" fill="#FFCE56" stroke="#4C241D" stroke-linecap="round" stroke-linejoin="round"/>
<path d="M29.529 1C24.3374 0.999275 19.2441 2.41613 14.7986 5.09771C10.3531 7.77929 6.72418 11.6238 4.30334 16.2165H54.7547C52.3339 11.6238 48.705 7.77929 44.2595 5.09771C39.814 2.41613 34.7207 0.999275 29.529 1Z" fill="#F53E28" stroke="#4C241D" stroke-linecap="round" stroke-linejoin="round"/>
<path d="M134.231 35.2712L144.011 45.052L87.7774 101.286L77.9967 91.5053L134.231 35.2712Z" fill="#E7D1C4" stroke="#4C241D" stroke-linecap="round" stroke-linejoin="round"/>
<path d="M165.643 27.3759L171 32.7304" stroke="#4C241D" stroke-linecap="round" stroke-linejoin="round"/>
<path d="M158.309 34.7092L163.664 40.0637" stroke="#4C241D" stroke-linecap="round" stroke-linejoin="round"/>
<path d="M148.528 39.6013L153.886 44.9557" stroke="#4C241D" stroke-linecap="round" stroke-linejoin="round"/>
<path d="M151.904 13.637L146.549 8.27954" stroke="#4C241D" stroke-linecap="round" stroke-linejoin="round"/>
<path d="M144.57 20.9704L139.216 15.616" stroke="#4C241D" stroke-linecap="round" stroke-linejoin="round"/>
<path d="M139.681 30.7513L134.324 25.3938" stroke="#4C241D" stroke-linecap="round" stroke-linejoin="round"/>
<path d="M144.012 45.0489L134.231 35.2679L153.823 11.76C154.439 11.022 155.202 10.4204 156.063 9.99327C156.924 9.56617 157.865 9.323 158.825 9.27922C159.786 9.23544 160.745 9.39201 161.641 9.73896C162.538 10.0859 163.352 10.6157 164.033 11.2945L167.985 15.2345C168.664 15.9152 169.194 16.7298 169.54 17.6263C169.887 18.5229 170.044 19.4819 170 20.4422C169.956 21.4026 169.713 22.3433 169.286 23.2046C168.859 24.0658 168.257 24.8288 167.519 25.4449L144.012 45.0489Z" fill="#BF7E68" stroke="#4C241D" stroke-linecap="round" stroke-linejoin="round"/>
<path d="M32.6552 129.291L49.9888 146.624" stroke="#4C241D" stroke-linecap="round" stroke-linejoin="round"/>
<path d="M75.5508 117.561C83.1901 117.561 89.3829 111.368 89.3829 103.729C89.3829 96.0893 83.1901 89.8964 75.5508 89.8964C67.9116 89.8964 61.7188 96.0893 61.7188 103.729C61.7188 111.368 67.9116 117.561 75.5508 117.561Z" fill="#914D41" stroke="#4C241D" stroke-linecap="round" stroke-linejoin="round"/>
</svg>
