<svg width="64" height="64" viewBox="0 0 64 64" fill="none" xmlns="http://www.w3.org/2000/svg">
<path d="M11.5918 17.5107C10.6221 17.5273 5.88477 17.9414 3.40821 20.2021C0.932132 22.4639 1.86524 29.085 8.79248 29.4629C16.9736 29.9082 20.2051 27.3096 20.2051 27.3096C20.2051 27.3096 18.1592 17.4033 11.5918 17.5107Z" fill="white"/>
<path d="M10.6377 29.9658C10.0454 29.9658 9.42236 29.9492 8.76807 29.9141C5.45215 29.7334 3.01269 28.123 2.07519 25.4961C1.33252 23.4141 1.75537 21.1006 3.10351 19.8691C5.99707 17.2275 11.5288 17.0605 11.584 17.0596L11.6982 17.0586C18.4712 17.0586 20.5615 26.8037 20.6475 27.2188L20.7031 27.4893L20.4883 27.6621C20.3711 27.7559 17.5435 29.9658 10.6377 29.9658ZM11.6982 17.9619C10.2598 17.9854 5.93457 18.5078 3.71289 20.5361C2.64258 21.5127 2.31201 23.4717 2.92627 25.1924C3.73535 27.46 5.88232 28.8525 8.81689 29.0117C15.5176 29.3799 18.8369 27.6494 19.6948 27.1113C19.2993 25.5234 17.1294 17.9619 11.6982 17.9619Z" fill="#4C241D"/>
<path d="M42.3838 23.0684C37.1816 23.3955 32.1714 23.1094 28.4844 22.749L28.4404 22.5303L21.1367 17.9648C22.0972 17.417 22.6851 16.9385 22.5181 17.0381C21.98 17.3623 16.0576 12.9473 16.0576 12.9473L13.3662 17.0381C13.9316 18.3242 14.7803 18.9717 15.7358 19.2256L12.4146 20.915L20.1401 36.3184C20.6318 39.6104 24.9917 41.0908 26.4521 43.5225C29.3687 48.3779 29.3013 55.0732 29.3013 55.0732H32.4238L34.3916 44.8213C36.6582 45.2236 39.4746 45.5039 42.8027 45.4844C43.9248 47.8594 48.4883 45.1689 48.7852 45.2949C49.5391 45.6201 49.7578 55.0732 49.7578 55.0732H53.3115L54.8193 43.6348C54.8193 43.6348 55.1621 42.5811 55.4004 41.0576C56.251 39.7988 57.0107 38.1562 57.5117 35.9883C59.4482 27.5908 52.666 22.4229 42.3838 23.0684Z" fill="white"/>
<path d="M53.3115 55.5244H49.7578C49.5127 55.5244 49.3115 55.3291 49.3066 55.084C49.2158 51.166 48.9258 46.8398 48.5811 45.8096C48.4678 45.8555 48.3184 45.916 48.1787 45.9727C47.3076 46.3271 45.8496 46.9189 44.5967 46.9189C43.4619 46.9189 42.8584 46.4307 42.5381 45.9365H42.4756C39.7363 45.9365 37.1397 45.7363 34.752 45.3408L32.8672 55.1582C32.8267 55.3711 32.6406 55.5244 32.4238 55.5244H29.3013C29.1807 55.5244 29.0654 55.4766 28.9805 55.3906C28.8955 55.3057 28.8486 55.1895 28.8496 55.0684C28.8501 55.0029 28.8794 48.4404 26.0649 43.7549C25.5244 42.8545 24.5244 42.0713 23.4658 41.2422C21.7886 39.9287 20.0552 38.5703 19.7051 36.458L12.0107 21.1172C11.8994 20.8955 11.9883 20.625 12.21 20.5127L14.6636 19.2646C13.9346 18.833 13.3613 18.1484 12.9526 17.2197C12.8911 17.0801 12.9048 16.918 12.9888 16.79L15.6802 12.6992C15.7485 12.5957 15.8569 12.5244 15.9795 12.5029C16.1016 12.4805 16.2275 12.5117 16.3276 12.585C18.8491 14.4648 21.7676 16.4453 22.4106 16.5967C22.6856 16.5127 22.9194 16.6729 22.9829 16.9102C23.0425 17.1348 23.0879 17.3066 22.0059 17.9756L28.6797 22.1475C28.7515 22.1914 28.8086 22.2559 28.8452 22.3301C33.5791 22.7783 38.208 22.877 42.3555 22.6172C48.6172 22.2236 53.6123 23.9199 56.2783 27.2705C58.1592 29.6338 58.7373 32.6836 57.9522 36.0898C57.4951 38.0664 56.7813 39.7939 55.8311 41.2266C55.5908 42.7139 55.2627 43.7314 55.249 43.7744L53.7588 55.1318C53.7295 55.3574 53.5381 55.5244 53.3115 55.5244ZM50.1982 54.6221H52.915L54.3721 43.5762C54.3936 43.4854 54.7246 42.4531 54.9541 40.9883C54.9648 40.9219 54.9893 40.8594 55.0264 40.8047C55.9424 39.4482 56.6309 37.7939 57.0713 35.8867C57.793 32.7578 57.2744 29.9727 55.5713 27.833C53.0938 24.7187 48.3701 23.1455 42.4121 23.5186C38.126 23.7881 33.334 23.6768 28.4404 23.1982C28.2427 23.1787 28.0806 23.0322 28.0415 22.8379L28.0361 22.8096L20.8975 18.3477C20.7627 18.2637 20.6821 18.1152 20.6851 17.9561C20.6885 17.7969 20.7749 17.6514 20.9126 17.5732C21.1528 17.4355 21.3672 17.3047 21.5493 17.1875C20.1231 16.4619 17.625 14.6689 16.1724 13.5947L13.8823 17.0762C14.3408 17.998 14.9873 18.5596 15.8521 18.7891C16.0327 18.8379 16.165 18.9922 16.1851 19.1787C16.2046 19.3643 16.1074 19.5439 15.9404 19.6279L13.0195 21.1143L20.5439 36.1162C20.5654 36.1582 20.5796 36.2041 20.5869 36.252C20.8555 38.0498 22.4658 39.3115 24.023 40.5312C25.1489 41.4131 26.2129 42.2471 26.8394 43.29C29.3804 47.5205 29.7075 53.0078 29.7476 54.6221H32.0508L33.9482 44.7363C33.9941 44.4932 34.2227 44.3301 34.4707 44.377C36.9268 44.8125 39.6201 45.0342 42.4756 45.0342L42.7998 45.0332H42.8027C42.9775 45.0332 43.1367 45.1338 43.2109 45.291C43.3584 45.6025 43.6611 46.0156 44.5967 46.0156C45.6738 46.0156 47.0283 45.4648 47.8389 45.1357C48.5645 44.8408 48.7402 44.7852 48.9619 44.8789C49.2383 44.999 49.9609 45.3105 50.1982 54.6221Z" fill="#4C241D"/>
<path d="M61.8311 33.3975C61.8311 31.7715 61.0117 30.3398 59.7646 29.4854C60.3311 28.7041 60.6738 27.751 60.6738 26.7129C60.6738 24.0938 58.5518 21.9707 55.9326 21.9707C55.6455 21.9707 55.3662 22.0068 55.0918 22.0566C55.0928 22.0273 55.1016 22.001 55.1016 21.9717C55.1016 19.3535 52.9775 17.2305 50.3584 17.2305C49.4131 17.2305 48.5361 17.5146 47.7969 17.9912C47.0244 16.4229 45.4238 15.333 43.5557 15.333C43.416 15.333 43.2852 15.3623 43.1484 15.374C42.4121 13.709 40.7529 12.5439 38.8154 12.5439C37.9902 12.5439 37.2246 12.7744 36.5479 13.1465C35.7549 11.6348 34.1904 10.5908 32.3638 10.5908C31.2017 10.5908 30.1519 11.0254 29.3281 11.7197C28.709 11.4238 28.0254 11.2451 27.2944 11.2451C26.6055 11.2451 25.9551 11.3994 25.3647 11.6641C24.4995 10.5117 23.1353 9.75586 21.584 9.75586C19.4585 9.75586 17.6812 11.1641 17.0796 13.0918C16.4565 12.7861 15.7661 12.5986 15.0249 12.5986C12.437 12.5986 10.3389 14.6963 10.3389 17.2852C10.3389 18.4658 12.3325 19.1758 13.0532 19.999C12.2671 20.7129 11.7754 21.7061 11.7754 22.8086C11.7754 24.5088 12.4927 25.6641 14.1187 26.2109C10.3687 28.4609 12.9248 32.9834 15.2021 33.1279C12.4521 35.7119 15.5479 39.1357 17.3687 38.1279C14.6187 41.1279 17.4521 46.3779 22.2324 45.1396C22.9976 46.3945 24.3667 47.2402 25.9438 47.2402C27.0703 47.2402 28.0859 46.8018 28.8594 46.1006C29.1689 46.1641 29.4893 46.1982 29.8179 46.1982C30.6445 46.1982 31.4102 45.9678 32.0864 45.5967C32.8784 47.1084 34.4443 48.1504 36.2695 48.1504C36.4092 48.1504 36.541 48.1221 36.6777 48.1094C37.4141 49.7744 39.0732 50.9395 41.0098 50.9395C42.5137 50.9395 43.8389 50.2256 44.7061 49.1348C46.6348 49.082 48.2744 47.8867 48.9648 46.1963C49.8252 47.0732 51.0205 47.6211 52.3477 47.6211C54.3223 47.6211 56.0146 46.4131 56.7256 44.6963C58.9658 44.3164 60.6738 42.3809 60.6738 40.0361C60.6738 39.0107 60.3408 38.0654 59.7871 37.29C61.0195 36.4336 61.8311 35.0127 61.8311 33.3975Z" fill="#DBD3C1"/>
<path d="M41.0098 51.3965C39.0713 51.3965 37.3008 50.3105 36.4072 48.6016C36.3623 48.6055 36.3164 48.6074 36.2695 48.6074C34.4932 48.6074 32.8589 47.6943 31.9062 46.1973C30.9727 46.6191 29.9761 46.7451 28.9927 46.5898C28.126 47.3057 27.0518 47.6973 25.9438 47.6973C24.3721 47.6973 22.9307 46.9404 22.0254 45.6572C19.5317 46.1689 17.207 45.001 16.2476 42.8203C15.6479 41.458 15.708 39.9775 16.3711 38.7471C15.3491 38.6113 14.3374 37.7666 13.8906 36.6377C13.4497 35.5244 13.6226 34.374 14.3569 33.3887C13.2329 32.9248 12.2227 31.708 11.8779 30.2891C11.502 28.7422 11.98 27.3281 13.1953 26.3076C11.9487 25.623 11.3184 24.4492 11.3184 22.8086C11.3184 21.7754 11.6978 20.7988 12.397 20.0137C12.2012 19.8584 11.9634 19.6982 11.7178 19.5332C10.8574 18.9541 9.88184 18.2969 9.88184 17.2852C9.88184 14.4492 12.189 12.1416 15.0249 12.1416C15.6313 12.1416 16.2319 12.2549 16.8169 12.4795C17.6235 10.5576 19.4805 9.29883 21.584 9.29883C23.1035 9.29883 24.5146 9.95508 25.5073 11.1123C26.7202 10.6602 28.0366 10.6807 29.2603 11.1885C30.1724 10.498 31.2397 10.1338 32.3638 10.1338C34.1396 10.1338 35.7744 11.0479 36.7275 12.5459C37.4023 12.2412 38.1025 12.0869 38.8154 12.0869C40.7549 12.0869 42.5264 13.1738 43.4189 14.8818C43.4639 14.8779 43.5098 14.876 43.5557 14.876C45.377 14.876 47.0283 15.8164 47.9717 17.3613C48.7119 16.9756 49.5283 16.7734 50.3584 16.7734C53.0781 16.7734 55.3164 18.8711 55.54 21.5322C55.6758 21.5195 55.8057 21.5137 55.9326 21.5137C58.7988 21.5137 61.1309 23.8457 61.1309 26.7129C61.1309 27.6553 60.874 28.5684 60.3838 29.3789C61.584 30.3623 62.2881 31.834 62.2881 33.3975C62.2881 34.9473 61.5908 36.4111 60.4023 37.3965C60.8799 38.1992 61.1309 39.1035 61.1309 40.0361C61.1309 42.4893 59.4277 44.5801 57.0469 45.0996C56.1914 46.917 54.373 48.0781 52.3477 48.0781C51.1572 48.0781 50.0293 47.6797 49.1113 46.9434C48.2598 48.4609 46.6895 49.4619 44.9297 49.582C43.9346 50.7373 42.5176 51.3965 41.0098 51.3965ZM36.6777 47.6523C36.8574 47.6523 37.0225 47.7578 37.0957 47.9248C37.7832 49.4785 39.3193 50.4824 41.0098 50.4824C42.3066 50.4824 43.5234 49.8877 44.3486 48.8506C44.4326 48.7451 44.5586 48.6816 44.6934 48.6777C46.3916 48.6318 47.9023 47.5898 48.542 46.0234C48.5996 45.8809 48.7256 45.7773 48.877 45.748C49.0264 45.7187 49.1826 45.7666 49.291 45.876C50.1055 46.707 51.1914 47.1641 52.3477 47.1641C54.0859 47.1641 55.6387 46.127 56.3037 44.5215C56.3633 44.376 56.4941 44.2715 56.6494 44.2461C58.7168 43.8955 60.2168 42.125 60.2168 40.0361C60.2168 39.1475 59.9395 38.29 59.415 37.5557C59.3437 37.4561 59.3154 37.332 59.3369 37.2119C59.3574 37.0918 59.4258 36.9844 59.5264 36.915C60.6836 36.1104 61.374 34.7959 61.374 33.3975C61.374 31.9854 60.6758 30.6631 59.5068 29.8623C59.4043 29.793 59.335 29.6855 59.3145 29.5635C59.293 29.4424 59.3223 29.3174 59.3945 29.2178C59.9326 28.4756 60.2168 27.6094 60.2168 26.7129C60.2168 24.3506 58.2949 22.4277 55.9326 22.4277C55.708 22.4277 55.4668 22.4531 55.1738 22.5059C55.0381 22.5312 54.8984 22.4932 54.793 22.4023C54.6885 22.3125 54.6299 22.1797 54.6348 22.041C54.6357 22.0215 54.6426 21.9609 54.6455 21.9404C54.6445 19.6094 52.7217 17.6875 50.3584 17.6875C49.543 17.6875 48.7432 17.9258 48.0449 18.376C47.9346 18.4463 47.8008 18.4668 47.6748 18.4316C47.5488 18.3975 47.4443 18.3105 47.3867 18.1934C46.6572 16.7109 45.1885 15.79 43.5557 15.79C43.4912 15.79 43.4287 15.7998 43.3662 15.8086L43.1855 15.8291C42.9941 15.8418 42.8096 15.7373 42.7305 15.5586C41.7588 13.3633 39.0264 12.3086 36.7676 13.5469C36.6611 13.6055 36.5342 13.6201 36.416 13.584C36.2988 13.5488 36.2002 13.4668 36.1426 13.3584C35.3955 11.9336 33.9473 11.0479 32.3638 11.0479C31.3633 11.0479 30.4155 11.4014 29.6226 12.0693C29.4854 12.1846 29.292 12.208 29.1313 12.1318C27.9609 11.5742 26.6987 11.5664 25.5513 12.0811C25.3569 12.168 25.1274 12.1094 24.9995 11.9385C24.1758 10.8418 22.9307 10.2129 21.584 10.2129C19.7134 10.2129 18.0786 11.4248 17.5161 13.2285C17.4761 13.3555 17.3828 13.459 17.2603 13.5117C17.1377 13.5654 16.998 13.5615 16.8779 13.502C16.2754 13.2061 15.6519 13.0557 15.0249 13.0557C12.6929 13.0557 10.7959 14.9531 10.7959 17.2852C10.7959 17.8105 11.5571 18.3232 12.2285 18.7744C12.6802 19.0791 13.1064 19.3662 13.3975 19.6982C13.5615 19.8857 13.5449 20.1699 13.3604 20.3379C12.6333 20.998 12.2324 21.876 12.2324 22.8086C12.2324 24.3682 12.8779 25.3115 14.2642 25.7783C14.4336 25.835 14.5537 25.9844 14.5732 26.1621C14.5923 26.3389 14.5068 26.5117 14.354 26.6035C12.5078 27.7109 12.5669 29.252 12.7661 30.0732C13.0933 31.417 14.2217 32.6074 15.231 32.6719C15.4131 32.6836 15.5708 32.8018 15.6323 32.9736C15.6938 33.1445 15.6479 33.3359 15.5151 33.4609C14.3105 34.5928 14.5127 35.7266 14.7407 36.3008C15.1753 37.3984 16.3877 38.1475 17.1475 37.7275C17.3452 37.6211 17.5903 37.6699 17.7275 37.8447C17.8662 38.0215 17.8569 38.2715 17.7056 38.4365C16.7104 39.5225 16.4722 41.0615 17.0845 42.4521C17.9053 44.3184 19.9463 45.2568 22.1177 44.6973C22.313 44.6484 22.5186 44.7305 22.6226 44.9014C23.3408 46.0801 24.5825 46.7832 25.9438 46.7832C26.8994 46.7832 27.8262 46.4209 28.5522 45.7617C28.6602 45.6631 28.8101 45.627 28.9512 45.6523C29.9316 45.8545 30.9351 45.707 31.8667 45.1963C31.9751 45.1367 32.1016 45.125 32.2188 45.1592C32.3359 45.1943 32.4346 45.2754 32.4912 45.3848C33.2373 46.8086 34.6855 47.6934 36.2695 47.6934C36.3389 47.6934 36.4053 47.6826 36.4717 47.6738L36.6357 47.6543C36.6494 47.6533 36.6641 47.6523 36.6777 47.6523Z" fill="#4C241D"/>
<path d="M16.1445 17.1543L22.272 20.8018C22.272 20.8018 24.7793 15.1553 27.1904 15.1113C29.6011 15.0664 30.2222 17.0283 28.5439 17.9844C26.8672 18.9395 27.4141 16.5537 27.4141 16.5537C27.4141 16.5537 25.6807 17.0674 25.4175 17.7998C25.1538 18.5312 24.4111 24.0498 31.2964 21.5645C38.1807 19.0791 33.8447 12.459 33.0684 11.4561C32.2915 10.4541 27.9546 7.17871 23.2964 10.1338C18.6372 13.0908 16.1445 17.1543 16.1445 17.1543Z" fill="#CEB365"/>
<path d="M28.2515 22.6553C26.9878 22.6553 26.0464 22.2266 25.4536 21.3828C24.542 20.085 24.7969 18.1895 24.9927 17.6465C25.3164 16.7451 26.96 16.2178 27.2856 16.1211C27.4409 16.0752 27.606 16.1152 27.7227 16.2246C27.8398 16.334 27.8897 16.498 27.8545 16.6543C27.7437 17.1426 27.7666 17.6709 27.8628 17.7617C27.9229 17.7588 28.0566 17.7422 28.3203 17.5918C28.856 17.2871 29.1216 16.8437 29.0132 16.4355C28.9067 16.0322 28.3867 15.5625 27.2715 15.5625C25.459 15.5947 23.3501 19.4883 22.6846 20.9854C22.6323 21.1035 22.5317 21.1934 22.4087 21.2324C22.2866 21.2715 22.1519 21.2568 22.041 21.1904L15.9136 17.542C15.8096 17.4805 15.7349 17.3799 15.7061 17.2617C15.6772 17.1445 15.6963 17.0205 15.7598 16.918C15.8638 16.748 18.3608 12.7314 23.0542 9.75293C24.3906 8.90527 25.8135 8.47559 27.2842 8.47559C30.3101 8.47559 32.7686 10.332 33.4248 11.1797C33.4551 11.2178 36.3486 15.0088 35.3809 18.3398C34.9004 19.9932 33.5772 21.2217 31.4497 21.9893C30.2266 22.4307 29.1504 22.6553 28.2515 22.6553ZM26.8774 17.2314C26.3657 17.4551 25.9199 17.7363 25.8423 17.9521C25.7207 18.29 25.499 19.876 26.1929 20.8633C26.9512 21.9434 28.6699 22.0313 31.1431 21.1396C32.9839 20.4756 34.1182 19.4482 34.5137 18.0879C35.3545 15.1934 32.7378 11.7666 32.7114 11.7324C32.2241 11.1045 30.0322 9.37891 27.2842 9.37891C25.9878 9.37891 24.7275 9.76074 23.5381 10.5156C19.8418 12.8613 17.519 15.9434 16.7832 17.0088L22.0732 20.1582C22.7715 18.708 24.9043 14.7012 27.1821 14.6602H27.1851C28.6128 14.6602 29.6382 15.2656 29.8867 16.2041C30.1045 17.0264 29.6758 17.8594 28.7676 18.377C28.0571 18.7822 27.4873 18.7383 27.1538 18.3213C26.9243 18.0332 26.8696 17.6074 26.8774 17.2314Z" fill="#4C241D"/>
<path d="M12.4146 16.4414C13.7891 13.6855 16.7144 14.1904 18.2271 15.8398C19.7397 17.4902 18.877 17.7852 18.877 17.7852C18.877 17.7852 21.9023 17.3975 22.7266 20.5605C23.5518 23.7227 21.4893 25.5107 21.4893 25.5107" fill="#DBD3C1"/>
<path d="M21.4902 25.9678C21.3628 25.9678 21.2363 25.9141 21.146 25.8105C20.98 25.6211 20.9995 25.333 21.1885 25.166C21.2637 25.0996 23.0234 23.5088 22.2842 20.6758C21.5698 17.9336 19.04 18.2227 18.9351 18.2383C18.7046 18.2666 18.4853 18.1172 18.4316 17.8887C18.3794 17.6631 18.5034 17.4355 18.7187 17.3564C18.6685 17.3545 18.6841 17.0156 17.8901 16.1494C17.1035 15.291 15.9404 14.8262 14.9292 14.9717C14.0352 15.0967 13.3071 15.6758 12.8237 16.6455C12.7114 16.8711 12.4375 16.9648 12.2104 16.8506C11.9849 16.7383 11.8926 16.4639 12.0054 16.2373C12.7935 14.6572 13.9614 14.1846 14.8018 14.0664C16.1226 13.8818 17.5645 14.4414 18.564 15.5312C19.2197 16.2461 19.5542 16.8359 19.5776 17.3203C20.8379 17.4258 22.5708 18.1504 23.1689 20.4453C24.0557 23.8428 21.8818 25.7754 21.7886 25.8555C21.7021 25.9307 21.5962 25.9678 21.4902 25.9678Z" fill="#4C241D"/>
<path d="M9.75195 22.2031C10.5429 22.2031 11.1841 21.5565 11.1841 20.7588C11.1841 19.9611 10.5429 19.3145 9.75195 19.3145C8.96101 19.3145 8.31982 19.9611 8.31982 20.7588C8.31982 21.5565 8.96101 22.2031 9.75195 22.2031Z" fill="#050300"/>
<path d="M6.2124 29.1484C5.74121 29.1484 5.39941 29.0576 5.37207 29.0508C5.12939 28.9834 4.9873 28.7334 5.05273 28.4912C5.11816 28.2471 5.36718 28.1035 5.6123 28.168C5.62158 28.1709 6.56494 28.4141 7.30322 27.9541C7.75097 27.6758 8.04882 27.1797 8.18847 26.4814C8.23828 26.2344 8.48339 26.0781 8.72656 26.123C8.97412 26.1719 9.13427 26.4131 9.08496 26.6611C8.89257 27.6211 8.45312 28.3193 7.77783 28.7353C7.24609 29.0635 6.66845 29.1484 6.2124 29.1484Z" fill="#4C241D"/>
<path d="M37.0352 43.1279C37.0352 43.1279 41.1602 47.2529 47.7852 43.1279C47.7852 43.1279 51.0352 47.2949 53.7852 40.6699C53.7852 40.6699 56.5352 40.1279 56.5352 36.3779C56.5352 36.3779 54.2852 39.5449 52.7852 39.5449C52.7852 39.5449 51.5352 45.5029 48.2852 42.1279C48.2852 42.1279 42.6602 44.7529 37.0352 43.1279Z" fill="#B7AA91"/>
<path d="M18.7886 35.6279C18.7886 35.6279 20.4878 41.1279 24.2202 40.8779C24.2202 40.8779 26.4526 43.2529 30.4526 41.7529C30.4526 41.7529 34.4531 44.2529 37.3281 40.7529C37.3281 40.7529 40.2031 41.5029 41.4531 37.3779C41.4531 37.3779 38.8281 40.0029 36.9531 40.0029C36.9531 40.0029 32.0776 42.3779 31.2026 40.5029C31.2026 40.5029 25.4526 41.5029 25.0776 40.0029C25.0776 40.0029 21.4995 39.5029 18.7886 35.6279Z" fill="#B7AA91"/>
<path d="M9.49365 20.5449C9.70076 20.5449 9.86865 20.3582 9.86865 20.1279C9.86865 19.8976 9.70076 19.7109 9.49365 19.7109C9.28655 19.7109 9.11865 19.8976 9.11865 20.1279C9.11865 20.3582 9.28655 20.5449 9.49365 20.5449Z" fill="white"/>
<path d="M21.0356 16.1279L22.4521 17.3779C22.4521 17.3779 24.5352 13.2109 27.6187 14.2109C30.7021 15.2109 30.7852 16.8779 29.3687 18.7109C29.3687 18.7109 29.6187 19.9619 31.3687 18.0449C33.1191 16.1279 27.5356 7.62793 21.0356 16.1279Z" fill="#B2954D"/>
<path d="M3.45215 20.5449C3.45215 20.5449 4.86865 20.8779 4.70215 21.5449C4.53564 22.2109 2.36865 23.1279 2.36865 23.1279C2.36865 23.1279 2.70215 21.0449 3.45215 20.5449Z" fill="#4C241D"/>
<path d="M9.8996 49.7992C10.9487 49.7992 11.7992 48.9487 11.7992 47.8996C11.7992 46.8505 10.9487 46 9.8996 46C8.85048 46 8 46.8505 8 47.8996C8 48.9487 8.85048 49.7992 9.8996 49.7992Z" stroke="#4C241D" stroke-linecap="round" stroke-linejoin="round"/>
<path d="M51.9498 7.8996C52.4744 7.8996 52.8996 7.47436 52.8996 6.9498C52.8996 6.42524 52.4744 6 51.9498 6C51.4252 6 51 6.42524 51 6.9498C51 7.47436 51.4252 7.8996 51.9498 7.8996Z" fill="#4C241D"/>
</svg>
