<svg width="53" height="48" viewBox="0 0 53 48" fill="none" xmlns="http://www.w3.org/2000/svg">
<path d="M39.2386 33.2105H45.0255V38.9974H39.2386V33.2105Z" fill="#E7D1C4" stroke="#4C241D" stroke-linecap="round" stroke-linejoin="round"/>
<path d="M13.1975 36.1039H40.6853V47.4618H13.1975V36.1039Z" fill="#E7D1C4" stroke="#4C241D" stroke-linecap="round" stroke-linejoin="round"/>
<path d="M40.6853 40.4442H49.3656V47.4619H40.6853V40.4442Z" fill="#E7D1C4" stroke="#4C241D" stroke-linecap="round" stroke-linejoin="round"/>
<path d="M4.51709 40.4442H13.1975V47.4619H4.51709V40.4442Z" fill="#E7D1C4" stroke="#4C241D" stroke-linecap="round" stroke-linejoin="round"/>
<path d="M2.76804 40.5522H13.1327" stroke="#4C241D" stroke-linecap="round" stroke-linejoin="round"/>
<path d="M40.6853 40.4442H50.8124" stroke="#4C241D" stroke-linecap="round" stroke-linejoin="round"/>
<path d="M40.7717 37.0972H47.6814V40.5521H40.7717V37.0972Z" fill="#E7D1C4" stroke="#4C241D" stroke-linecap="round" stroke-linejoin="round"/>
<path d="M6.2229 10.322H13.1974V40.5521H6.2229V10.322Z" fill="#E7D1C4" stroke="#4C241D" stroke-linecap="round" stroke-linejoin="round"/>
<path d="M5.35922 17.2318H14.8601" stroke="#4C241D" stroke-linecap="round" stroke-linejoin="round"/>
<path d="M16.5876 28.4601H39.0442V36.104H16.5876V28.4601Z" fill="#A9BA5A" stroke="#4C241D" stroke-linecap="round" stroke-linejoin="round"/>
<path d="M16.5876 31.9149H39.0442V36.2335H16.5876V31.9149Z" fill="#E7D1C4" stroke="#4C241D" stroke-linecap="round" stroke-linejoin="round"/>
<path d="M39.0443 26.7327V36.2336" stroke="#4C241D" stroke-linecap="round" stroke-linejoin="round"/>
<path d="M16.5876 26.7327V36.2336" stroke="#4C241D" stroke-linecap="round" stroke-linejoin="round"/>
<path d="M13.1975 30.1876H16.5876V36.2336H13.1975V30.1876Z" fill="#E7D1C4" stroke="#4C241D" stroke-linecap="round" stroke-linejoin="round"/>
<path d="M13.1327 30.1876H16.5875V32.7787H13.1327V30.1876Z" fill="#A9BA5A" stroke="#4C241D" stroke-linecap="round" stroke-linejoin="round"/>
<path d="M46.4722 33.6424H39.0443V30.1876H43.501L46.4722 33.6424Z" fill="#A9BA5A" stroke="#4C241D" stroke-linecap="round" stroke-linejoin="round"/>
<path d="M21.7698 19.8229H32.9982V36.2335H21.7698V19.8229Z" fill="#E7D1C4" stroke="#4C241D" stroke-linecap="round" stroke-linejoin="round"/>
<path d="M9.70282 4.276L9.68468 4.28377C8.6924 4.66944 7.8353 5.33814 7.21985 6.2068C6.6044 7.07546 6.25773 8.10581 6.2229 9.16983V10.322H13.1326V9.14824C13.0984 8.09011 12.7555 7.06509 12.1461 6.19939C11.5367 5.3337 10.6874 4.66512 9.70282 4.276Z" fill="#BF7E68" stroke="#4C241D" stroke-linecap="round" stroke-linejoin="round"/>
<path d="M9.6778 19.8229V21.5503" stroke="#4C241D" stroke-linecap="round" stroke-linejoin="round"/>
<path d="M9.6778 12.9131V14.6406" stroke="#4C241D" stroke-linecap="round" stroke-linejoin="round"/>
<path d="M9.6778 24.1415V25.8689" stroke="#4C241D" stroke-linecap="round" stroke-linejoin="round"/>
<path d="M9.6778 28.4601V30.1875" stroke="#4C241D" stroke-linecap="round" stroke-linejoin="round"/>
<path d="M9.6778 32.7787V34.5061" stroke="#4C241D" stroke-linecap="round" stroke-linejoin="round"/>
<path d="M13.1975 44.7844H40.6853" stroke="#4C241D" stroke-linecap="round" stroke-linejoin="round"/>
<path d="M21.8778 36.2335C21.8778 33.8488 24.367 31.9149 27.4376 31.9149C30.5081 31.9149 32.9982 33.8488 32.9982 36.2335H21.8778Z" stroke="#4C241D" stroke-linecap="round" stroke-linejoin="round"/>
<path d="M21.7698 28.4601H25.2247V26.7327H29.5433V28.4601H32.1345" stroke="#4C241D" stroke-linecap="round" stroke-linejoin="round"/>
<path d="M24.361 22.4141V23.2778" stroke="#4C241D" stroke-linecap="round" stroke-linejoin="round"/>
<path d="M30.407 22.4141V23.2778" stroke="#4C241D" stroke-linecap="round" stroke-linejoin="round"/>
<path d="M27.8159 22.4141V23.2778" stroke="#4C241D" stroke-linecap="round" stroke-linejoin="round"/>
<path d="M21.7698 19.8229C21.7798 18.4321 22.1525 17.068 22.8511 15.8654C23.5497 14.6628 24.5501 13.6634 25.7533 12.9658L28.6796 12.9131C30.0196 13.4851 31.1521 14.4541 31.9243 15.6896C32.6965 16.9252 33.0713 18.3677 32.9982 19.8229H21.7698Z" fill="#A9BA5A" stroke="#4C241D" stroke-linecap="round" stroke-linejoin="round"/>
<path d="M8.81406 43.1433V45.7345" stroke="#4C241D" stroke-linecap="round" stroke-linejoin="round"/>
<path d="M45.0903 43.1433V45.7345" stroke="#4C241D" stroke-linecap="round" stroke-linejoin="round"/>
<path d="M26.9522 38.8247C27.8685 38.8247 28.7472 39.1887 29.3952 39.8366C30.0431 40.4845 30.4071 41.3633 30.4071 42.2796V47.4619H23.4973V42.2796C23.4973 41.3633 23.8613 40.4845 24.5092 39.8366C25.1571 39.1887 26.0359 38.8247 26.9522 38.8247Z" fill="#E7D1C4" stroke="#4C241D" stroke-linecap="round" stroke-linejoin="round"/>
<path d="M33.8619 40.5522C34.7782 40.5522 35.6569 40.9162 36.3048 41.5641C36.9528 42.212 37.3168 43.0908 37.3168 44.0071V47.4619H30.407V44.0071C30.407 43.0908 30.771 42.212 31.4189 41.5641C32.0668 40.9162 32.9456 40.5522 33.8619 40.5522Z" fill="#E7D1C4" stroke="#4C241D" stroke-linecap="round" stroke-linejoin="round"/>
<path d="M20.0424 40.5522C20.9587 40.5522 21.8375 40.9162 22.4854 41.5641C23.1333 42.212 23.4973 43.0908 23.4973 44.0071V47.4619H16.5876V44.0071C16.5876 43.0908 16.9516 42.212 17.5995 41.5641C18.2474 40.9162 19.1261 40.5522 20.0424 40.5522Z" fill="#E7D1C4" stroke="#4C241D" stroke-linecap="round" stroke-linejoin="round"/>
<path d="M1.04062 47.4619H52" stroke="#4C241D" stroke-linecap="round" stroke-linejoin="round"/>
<path d="M27.384 6.86713C27.7277 6.86713 28.0572 7.00362 28.3002 7.24659C28.5431 7.48956 28.6796 7.8191 28.6796 8.1627V12.9132H26.0885V8.1627C26.0885 7.8191 26.225 7.48956 26.4679 7.24659C26.7109 7.00362 27.0404 6.86713 27.384 6.86713Z" fill="#E7D1C4" stroke="#4C241D" stroke-linecap="round" stroke-linejoin="round"/>
<path d="M26.0885 10.322H28.6796" stroke="#4C241D" stroke-linecap="round" stroke-linejoin="round"/>
<path d="M27.0239 47.3177V44.007" stroke="#4C241D" stroke-linecap="round" stroke-linejoin="round"/>
<path d="M33.9336 47.3177V44.007" stroke="#4C241D" stroke-linecap="round" stroke-linejoin="round"/>
<path d="M20.1141 47.3177V44.007" stroke="#4C241D" stroke-linecap="round" stroke-linejoin="round"/>
<path d="M6.2229 37.961H13.1326" stroke="#4C241D" stroke-linecap="round" stroke-linejoin="round"/>
<path d="M46.2783 27.6024C46.8028 27.6024 47.2281 27.1772 47.2281 26.6526C47.2281 26.1281 46.8028 25.7028 46.2783 25.7028C45.7537 25.7028 45.3285 26.1281 45.3285 26.6526C45.3285 27.1772 45.7537 27.6024 46.2783 27.6024Z" fill="#4C241D"/>
<path d="M47.9771 1V2.34397" stroke="#4C241D" stroke-linecap="round" stroke-linejoin="round"/>
<path d="M47.9771 6.37494V7.7189" stroke="#4C241D" stroke-linecap="round" stroke-linejoin="round"/>
<path d="M44.6176 4.3595H45.9616" stroke="#4C241D" stroke-linecap="round" stroke-linejoin="round"/>
<path d="M49.9926 4.3595H51.3365" stroke="#4C241D" stroke-linecap="round" stroke-linejoin="round"/>
</svg>
