<svg width="78" height="81" viewBox="0 0 78 81" fill="none" xmlns="http://www.w3.org/2000/svg">
<path d="M76.4123 44.8246C77.1923 44.8246 77.8246 44.1923 77.8246 43.4123C77.8246 42.6323 77.1923 42 76.4123 42C75.6323 42 75 42.6323 75 43.4123C75 44.1923 75.6323 44.8246 76.4123 44.8246Z" fill="#4C241D"/>
<path d="M4.39873 11.0692L0.503963 14.964" stroke="#4C241D" stroke-linecap="round" stroke-linejoin="round"/>
<path d="M4.39873 14.964L0.503963 11.0692" stroke="#4C241D" stroke-linecap="round" stroke-linejoin="round"/>
<path d="M24.6385 18.9962V12.3904" stroke="#4C241D" stroke-linecap="round" stroke-linejoin="round"/>
<path d="M30.5453 16.0434C30.5228 17.5126 29.9233 18.9139 28.8763 19.9449C27.8294 20.9759 26.419 21.5538 24.9496 21.5538C23.4802 21.5538 22.0698 20.9759 21.0229 19.9449C19.9759 18.9139 19.3764 17.5126 19.3538 16.0434C19.3538 12.9532 21.864 0.5 24.9489 0.5C28.0338 0.5 30.5453 12.9532 30.5453 16.0434Z" fill="#FFCE56" stroke="#4C241D" stroke-linecap="round" stroke-linejoin="round"/>
<path d="M26.8963 16.7634C26.9031 17.0233 26.8577 17.282 26.763 17.5241C26.6682 17.7662 26.5259 17.9869 26.3444 18.1731C26.163 18.3593 25.9461 18.5073 25.7065 18.6084C25.467 18.7094 25.2096 18.7615 24.9496 18.7615C24.6896 18.7615 24.4322 18.7094 24.1927 18.6084C23.9531 18.5073 23.7362 18.3593 23.5548 18.1731C23.3733 17.9869 23.231 17.7662 23.1362 17.5241C23.0414 17.282 22.9961 17.0233 23.0029 16.7634C23.0029 15.688 23.8735 11.3546 24.9489 11.3546C26.0244 11.3546 26.8963 15.6933 26.8963 16.7634Z" fill="#F53E28"/>
<path d="M27.5239 21.6385H21.7531C19.6984 21.6385 18.0327 23.3041 18.0327 25.3588V60.195C18.0327 62.2497 19.6984 63.9154 21.7531 63.9154H27.5239C29.5786 63.9154 31.2442 62.2497 31.2442 60.195V25.3588C31.2442 23.3041 29.5786 21.6385 27.5239 21.6385Z" fill="#EDEBDC" stroke="#4C241D" stroke-linecap="round" stroke-linejoin="round"/>
<path d="M21.9962 21.6385V25.4791C21.9962 26.5628 22.4267 27.6022 23.193 28.3685C23.9593 29.1349 24.9987 29.5654 26.0825 29.5654V36.047C26.0827 36.4886 26.1962 36.9228 26.412 37.3081C26.6278 37.6934 26.9387 38.017 27.3151 38.248C27.7064 38.4874 28.1543 38.6183 28.6129 38.6272C29.0715 38.636 29.5242 38.5225 29.9244 38.2983C30.3245 38.0742 30.6578 37.7474 30.8897 37.3517C31.1217 36.956 31.2441 36.5057 31.2442 36.047V25.3588C31.2442 24.3721 30.8523 23.4258 30.1546 22.7281C29.4569 22.0304 28.5106 21.6385 27.5239 21.6385H21.9962Z" fill="#E7D1C4" stroke="#4C241D" stroke-linecap="round" stroke-linejoin="round"/>
<path d="M34.4427 73.1635H14.8342C14.4415 73.1631 14.0597 73.0346 13.7467 72.7976C13.4336 72.5607 13.2064 72.228 13.0995 71.8502L11.4969 66.2221C11.4199 65.9532 11.4063 65.6701 11.4572 65.3951C11.508 65.12 11.622 64.8605 11.7901 64.637C11.9582 64.4134 12.1759 64.2319 12.426 64.1067C12.6762 63.9815 12.9519 63.916 13.2316 63.9154H36.0453C36.325 63.916 36.6008 63.9815 36.8509 64.1067C37.101 64.2319 37.3187 64.4134 37.4868 64.637C37.6549 64.8605 37.7689 65.12 37.8197 65.3951C37.8706 65.6701 37.857 65.9532 37.78 66.2221L36.1774 71.8502C36.0705 72.228 35.8433 72.5607 35.5302 72.7976C35.2172 73.0346 34.8354 73.1631 34.4427 73.1635Z" fill="#BF7E68" stroke="#4C241D" stroke-linecap="round" stroke-linejoin="round"/>
<path d="M21.9962 45.4192V54.6673" stroke="white" stroke-linecap="round" stroke-linejoin="round"/>
<path d="M54.3261 21.328C54.3035 22.7972 53.7041 24.1986 52.6571 25.2295C51.6102 26.2605 50.1997 26.8384 48.7304 26.8384C47.261 26.8384 45.8506 26.2605 44.8036 25.2295C43.7567 24.1986 43.1572 22.7972 43.1346 21.328C43.1346 18.2378 45.6448 5.78461 48.7297 5.78461C51.8146 5.78461 54.3261 18.2378 54.3261 21.328Z" fill="#FFCE56" stroke="#4C241D" stroke-linecap="round" stroke-linejoin="round"/>
<path d="M50.6771 22.048C50.6839 22.3079 50.6385 22.5666 50.5437 22.8087C50.4489 23.0508 50.3066 23.2715 50.1252 23.4577C49.9437 23.6439 49.7268 23.7919 49.4873 23.893C49.2477 23.9941 48.9904 24.0461 48.7304 24.0461C48.4704 24.0461 48.213 23.9941 47.9734 23.893C47.7339 23.7919 47.517 23.6439 47.3355 23.4577C47.1541 23.2715 47.0118 23.0508 46.917 22.8087C46.8222 22.5666 46.7769 22.3079 46.7836 22.048C46.7836 20.9726 47.6543 16.6392 48.7297 16.6392C49.8051 16.6392 50.6771 20.9779 50.6771 22.048Z" fill="#F53E28"/>
<path d="M56.5892 26.9231H40.2492C38.1945 26.9231 36.5288 28.5887 36.5288 30.6434V65.4796C36.5288 67.5343 38.1945 69.2 40.2492 69.2H56.5892C58.6439 69.2 60.3096 67.5343 60.3096 65.4796V30.6434C60.3096 28.5887 58.6439 26.9231 56.5892 26.9231Z" fill="#EDEBDC" stroke="#4C241D" stroke-linecap="round" stroke-linejoin="round"/>
<path d="M51.0615 26.9231V30.7637C51.0615 31.3003 51.1672 31.8317 51.3726 32.3274C51.5779 32.8232 51.8789 33.2737 52.2584 33.6531C52.6378 34.0326 53.0883 34.3336 53.5841 34.5389C54.0799 34.7443 54.6112 34.85 55.1479 34.85V41.3316C55.1481 41.7732 55.2616 42.2074 55.4774 42.5927C55.6931 42.9781 56.0041 43.3016 56.3805 43.5326C56.7717 43.7721 57.2197 43.9029 57.6783 43.9118C58.1369 43.9206 58.5896 43.8071 58.9898 43.5829C59.3899 43.3588 59.7231 43.032 59.9551 42.6363C60.1871 42.2406 60.3095 41.7903 60.3096 41.3316V30.6434C60.3096 29.6567 59.9176 28.7105 59.2199 28.0127C58.5222 27.315 57.5759 26.9231 56.5892 26.9231H51.0615Z" fill="#E7D1C4" stroke="#4C241D" stroke-linecap="round" stroke-linejoin="round"/>
<path d="M64.8293 78.4481H32.0092C31.6165 78.4477 31.2347 78.3193 30.9217 78.0823C30.6086 77.8453 30.3814 77.5126 30.2745 77.1349L28.6719 71.5067C28.5949 71.2378 28.5813 70.9547 28.6322 70.6797C28.6831 70.4047 28.797 70.1452 28.9651 69.9216C29.1332 69.6981 29.3509 69.5165 29.601 69.3913C29.8512 69.2661 30.1269 69.2006 30.4066 69.2H66.4318C66.7116 69.2006 66.9873 69.2661 67.2374 69.3913C67.4875 69.5165 67.7052 69.6981 67.8733 69.9216C68.0414 70.1452 68.1554 70.4047 68.2063 70.6797C68.2572 70.9547 68.2435 71.2378 68.1665 71.5067L66.564 77.1349C66.457 77.5126 66.2298 77.8453 65.9168 78.0823C65.6037 78.3193 65.2219 78.4477 64.8293 78.4481Z" fill="#BF7E68" stroke="#4C241D" stroke-linecap="round" stroke-linejoin="round"/>
<path d="M40.4923 33.5288V42.7769" stroke="white" stroke-linecap="round" stroke-linejoin="round"/>
<path d="M44.4558 69.2H39.1712V71.8423C39.1684 72.307 39.2889 72.7641 39.5206 73.167C39.7522 73.5699 40.0865 73.9041 40.4895 74.1355C40.8925 74.367 41.3496 74.4874 41.8143 74.4844C42.279 74.4814 42.7346 74.3552 43.1346 74.1187V77.1269C43.1346 77.8277 43.413 78.4998 43.9085 78.9953C44.4041 79.4908 45.0761 79.7692 45.7769 79.7692C46.4777 79.7692 47.1498 79.4908 47.6453 78.9953C48.1408 78.4998 48.4192 77.8277 48.4192 77.1269V69.2H44.4558Z" fill="#E7D1C4" stroke="#4C241D" stroke-linecap="round" stroke-linejoin="round"/>
<path d="M64.2731 78.4481H72.2" stroke="#4C241D" stroke-linecap="round" stroke-linejoin="round"/>
<path d="M16.7115 73.1635H3.5" stroke="#4C241D" stroke-linecap="round" stroke-linejoin="round"/>
</svg>
