<svg width="51" height="51" viewBox="0 0 51 51" fill="none" xmlns="http://www.w3.org/2000/svg">
<path d="M43.6383 15.2456L41.2556 17.6283" stroke="#4C241D" stroke-linecap="round" stroke-linejoin="round"/>
<path d="M41.2556 15.2456L43.6383 17.6283" stroke="#4C241D" stroke-linecap="round" stroke-linejoin="round"/>
<path d="M30.1981 11.2044C31.3141 11.2044 32.2187 10.2998 32.2187 9.18381C32.2187 8.06786 31.3141 7.16321 30.1981 7.16321C29.0822 7.16321 28.1775 8.06786 28.1775 9.18381C28.1775 10.2998 29.0822 11.2044 30.1981 11.2044Z" stroke="#4C241D" stroke-linecap="round" stroke-linejoin="round"/>
<path d="M27.3693 40.3011H48.3835L41.9176 44.3423H28.9857L27.3693 40.3011Z" fill="#D6D6D6" stroke="#4C241D" stroke-linecap="round" stroke-linejoin="round"/>
<path d="M0.697326 50.0001L5.54677 42.7259L12.8209 39.4929L27.3693 37.8765L28.9857 44.3424H41.9176L43.5341 48.3836L45.1506 50.0001" fill="#EAEAEA"/>
<path d="M0.697326 50.0001L5.54677 42.7259L12.8209 39.4929L27.3693 37.8765L28.9857 44.3424H41.9176L43.5341 48.3836L45.1506 50.0001" stroke="#4C241D" stroke-linecap="round" stroke-linejoin="round"/>
<path d="M15.2457 0.697327H16.8621C17.5052 0.697327 18.122 0.952788 18.5767 1.40751C19.0314 1.86223 19.2869 2.47897 19.2869 3.12205V20.0951H12.8209V3.12205C12.8209 2.47897 13.0764 1.86223 13.5311 1.40751C13.9858 0.952788 14.6026 0.697327 15.2457 0.697327Z" fill="#BF7E68" stroke="#4C241D" stroke-linecap="round" stroke-linejoin="round"/>
<path d="M12.0127 45.1505L10.3962 24.9445H21.7116L20.0951 45.1505" fill="white"/>
<path d="M12.0127 45.1505L10.3962 24.9445H21.7116L20.0951 45.1505" stroke="#4C241D" stroke-linecap="round" stroke-linejoin="round"/>
<path d="M16.0539 27.3693V41.9176" stroke="#D6D6D6" stroke-linecap="round" stroke-linejoin="round"/>
<path d="M16.0539 12.0126C18.2858 12.0126 20.0951 10.2033 20.0951 7.97144C20.0951 5.73954 18.2858 3.93024 16.0539 3.93024C13.822 3.93024 12.0127 5.73954 12.0127 7.97144C12.0127 10.2033 13.822 12.0126 16.0539 12.0126Z" fill="#FFCE56" stroke="#4C241D" stroke-linecap="round" stroke-linejoin="round"/>
<path d="M12.8209 20.0952H19.2869V23.3281H12.8209V20.0952Z" fill="#E66353" stroke="#4C241D" stroke-linecap="round" stroke-linejoin="round"/>
<path d="M26.561 22.5198V23.3281H5.54677V22.5198H3.12205V27.3693H5.54677V25.7528L16.0539 27.3693L26.561 25.7528V27.3693H28.9857V22.5198H26.561Z" fill="#FFCE56" stroke="#4C241D" stroke-linecap="round" stroke-linejoin="round"/>
<path d="M16.0539 45.1506H23.3281" stroke="#4C241D" stroke-linecap="round" stroke-linejoin="round"/>
<path d="M50 50V44.3423L48.3835 40.3011" stroke="#4C241D" stroke-linecap="round" stroke-linejoin="round"/>
<path d="M29.3899 34.2393V30.1981" stroke="#4C241D" stroke-linecap="round" stroke-linejoin="round"/>
<path d="M26.9651 34.2392L25.3487 31.8145" stroke="#4C241D" stroke-linecap="round" stroke-linejoin="round"/>
<path d="M33.4311 31.8145L31.8146 34.2392" stroke="#4C241D" stroke-linecap="round" stroke-linejoin="round"/>
</svg>
