<svg width="172" height="165" viewBox="0 0 172 165" fill="none" xmlns="http://www.w3.org/2000/svg">
<path d="M70.1094 114.219C101.65 114.219 127.219 88.65 127.219 57.1094C127.219 25.5687 101.65 0 70.1094 0C38.5687 0 13 25.5687 13 57.1094C13 88.65 38.5687 114.219 70.1094 114.219Z" fill="#BFE7F4"/>
<path d="M36.1724 32.367C37.7911 32.367 39.1034 31.0547 39.1034 29.4359C39.1034 27.8172 37.7911 26.5049 36.1724 26.5049C34.5536 26.5049 33.2413 27.8172 33.2413 29.4359C33.2413 31.0547 34.5536 32.367 36.1724 32.367Z" fill="#4C241D"/>
<path d="M132.896 32.367C134.515 32.367 135.828 31.0547 135.828 29.4359C135.828 27.8172 134.515 26.5049 132.896 26.5049C131.278 26.5049 129.965 27.8172 129.965 29.4359C129.965 31.0547 131.278 32.367 132.896 32.367Z" fill="#4C241D"/>
<path d="M1 164.264V135.185C1 126.181 5.12983 118.516 10.901 115.647C16.1097 113.273 21.11 110.467 25.8493 107.258L36.1724 99.7808L46.4955 107.258C51.2349 110.467 56.2352 113.273 61.4438 115.647C67.215 118.516 71.3448 126.181 71.3448 135.185V164.264" fill="#F4AEAB"/>
<path d="M1 164.264V135.185C1 126.181 5.12983 118.516 10.901 115.647C16.1097 113.273 21.11 110.467 25.8493 107.258L36.1724 99.7808L46.4955 107.258C51.2349 110.467 56.2352 113.273 61.4438 115.647C67.215 118.516 71.3448 126.181 71.3448 135.185V164.264" stroke="#4C241D" stroke-linecap="round" stroke-linejoin="round"/>
<path d="M62.5517 129.091L36.1724 146.677L9.79309 129.091V67.4193C9.79309 61.2324 12.2509 55.2988 16.6257 50.9239C21.0006 46.549 26.9342 44.0912 33.1212 44.0912H39.2236C45.4106 44.0912 51.3442 46.549 55.7191 50.9239C60.0939 55.2988 62.5517 61.2324 62.5517 67.4193V129.091Z" fill="white" stroke="#4C241D" stroke-linecap="round" stroke-linejoin="round"/>
<path d="M100.655 164.263V126.884C100.82 124.123 101.873 121.49 103.658 119.377C105.442 117.264 107.862 115.785 110.556 115.16C115.634 113.779 120.626 112.099 125.504 110.127L135.828 105.643L146.151 110.13C151.029 112.102 156.021 113.782 161.099 115.163C163.793 115.788 166.213 117.267 167.997 119.38C169.782 121.493 170.835 124.126 171 126.887V164.263" fill="#6B4F5B"/>
<path d="M100.655 164.263V126.884C100.82 124.123 101.873 121.49 103.658 119.377C105.442 117.264 107.862 115.785 110.556 115.16C115.634 113.779 120.626 112.099 125.504 110.127L135.828 105.643L146.151 110.13C151.029 112.102 156.021 113.782 161.099 115.163C163.793 115.788 166.213 117.267 167.997 119.38C169.782 121.493 170.835 124.126 171 126.887V164.263" stroke="#4C241D" stroke-linecap="round" stroke-linejoin="round"/>
<path d="M18.5861 64.6083V90.9876H53.7585V64.6083" fill="#E7D1C4"/>
<path d="M18.5861 64.6083V90.9876H53.7585V64.6083" stroke="#4C241D" stroke-linecap="round" stroke-linejoin="round"/>
<path d="M129.965 99.7808H141.69V108.574C141.69 110.129 141.072 111.62 139.973 112.719C138.873 113.818 137.382 114.436 135.828 114.436C134.273 114.436 132.782 113.818 131.682 112.719C130.583 111.62 129.965 110.129 129.965 108.574V99.7808Z" fill="#E7D1C4" stroke="#4C241D" stroke-linecap="round" stroke-linejoin="round"/>
<path d="M147.552 70.4705H159.276V149.608H147.552V70.4705Z" fill="white" stroke="#4C241D" stroke-linecap="round" stroke-linejoin="round"/>
<path d="M115.31 52.8843H143.155C146.653 52.8843 150.008 54.2739 152.482 56.7474C154.955 59.221 156.345 62.5758 156.345 66.0739V89.5222C156.345 93.0203 154.955 96.3752 152.482 98.8487C150.008 101.322 146.653 102.712 143.155 102.712H128.5C126.768 102.712 125.053 102.371 123.452 101.708C121.852 101.045 120.398 100.073 119.173 98.8487C117.949 97.6239 116.977 96.1699 116.314 94.5697C115.651 92.9694 115.31 91.2543 115.31 89.5222V52.8843Z" fill="#E7D1C4" stroke="#4C241D" stroke-linecap="round" stroke-linejoin="round"/>
<path d="M120.724 47.0222H150.931C153.144 47.0222 155.267 47.9014 156.832 49.4663C158.397 51.0312 159.276 53.1537 159.276 55.3669V70.4705H112.379V55.3669C112.379 53.1537 113.258 51.0312 114.823 49.4663C116.388 47.9014 118.511 47.0222 120.724 47.0222Z" fill="#6B4F5B" stroke="#4C241D" stroke-linecap="round" stroke-linejoin="round"/>
<path d="M118.241 52.8843V46.5738C118.241 44.3606 119.121 42.2381 120.686 40.6732C122.25 39.1083 124.373 38.2291 126.586 38.2291H145.069C147.282 38.2291 149.405 39.1083 150.97 40.6732C152.535 42.2381 153.414 44.3606 153.414 46.5738V52.8843" fill="#6B4F5B"/>
<path d="M118.241 52.8843V46.5738C118.241 44.3606 119.121 42.2381 120.686 40.6732C122.25 39.1083 124.373 38.2291 126.586 38.2291H145.069C147.282 38.2291 149.405 39.1083 150.97 40.6732C152.535 42.2381 153.414 44.3606 153.414 46.5738V52.8843" stroke="#4C241D" stroke-linecap="round" stroke-linejoin="round"/>
<path d="M135.828 143.746V114.436" stroke="#4C241D" stroke-linecap="round" stroke-linejoin="round"/>
<path d="M18.5861 90.9875H53.7585C53.7585 94.8743 52.2145 98.6019 49.4661 101.35C46.7178 104.099 42.9902 105.643 39.1034 105.643H33.2413C29.3545 105.643 25.6269 104.099 22.8785 101.35C20.1301 98.6019 18.5861 94.8743 18.5861 90.9875Z" fill="#F4AEAB" stroke="#4C241D" stroke-linecap="round" stroke-linejoin="round"/>
<path d="M15.6552 64.6085H27.3793C29.0494 64.6044 30.699 64.2411 32.2162 63.5432C33.7334 62.8452 35.0827 61.8291 36.1724 60.5637C37.2622 61.8291 38.6115 62.8452 40.1287 63.5432C41.6459 64.2411 43.2955 64.6044 44.9656 64.6085H56.6897" fill="#FFCE56"/>
<path d="M15.6552 64.6085H27.3793C29.0494 64.6044 30.699 64.2411 32.2162 63.5432C33.7334 62.8452 35.0827 61.8291 36.1724 60.5637C37.2622 61.8291 38.6115 62.8452 40.1287 63.5432C41.6459 64.2411 43.2955 64.6044 44.9656 64.6085H56.6897" stroke="#4C241D" stroke-linecap="round" stroke-linejoin="round"/>
<path d="M127.034 90.9878L132.896 88.0568H138.758L144.621 90.9878" stroke="#4C241D" stroke-linecap="round" stroke-linejoin="round"/>
<path d="M62.074 5L51.3054 15.7686" stroke="#4C241D" stroke-linecap="round" stroke-linejoin="round"/>
<path d="M51.3054 5L62.074 15.7686" stroke="#4C241D" stroke-linecap="round" stroke-linejoin="round"/>
<path d="M111.902 10.8619L101.133 21.6306" stroke="#4C241D" stroke-linecap="round" stroke-linejoin="round"/>
<path d="M101.133 10.8619L111.902 21.6306" stroke="#4C241D" stroke-linecap="round" stroke-linejoin="round"/>
</svg>
