<svg width="19" height="19" viewBox="0 0 19 19" fill="none" xmlns="http://www.w3.org/2000/svg">
<path d="M16.6403 0.269677C16.4687 0.0980461 16.2296 0 15.9906 0C15.7454 0 15.5125 0.0980461 15.3409 0.269677L8.31093 7.29352C8.15157 7.45289 8.05965 7.66743 8.04738 7.89419L7.92479 10.1068C7.91252 10.3642 8.01061 10.6216 8.19447 10.8055C8.3661 10.9771 8.59901 11.0752 8.84415 11.0752H8.89319L11.1058 10.9526C11.3264 10.9403 11.5409 10.8423 11.7003 10.6829L18.7303 3.66515C18.9019 3.48742 19 3.25452 19 3.01547C19 2.7703 18.9019 2.53743 18.7303 2.35966L16.6403 0.269677Z" fill="white"/>
<path d="M3.10402 19H13.2995C15.0113 19 16.4035 17.6075 16.4035 15.896V9.611C16.4035 9.10315 15.9917 8.69165 15.4842 8.69165C14.9766 8.69165 14.5648 9.10315 14.5648 9.611V15.896C14.5648 16.5935 13.9974 17.1613 13.2995 17.1613H3.10402C2.40612 17.1613 1.83871 16.5936 1.83871 15.896V5.70045C1.83871 5.00286 2.40612 4.43515 3.10402 4.43515H9.38927C9.89683 4.43515 10.3086 4.02365 10.3086 3.51579C10.3086 3.00793 9.89683 2.59644 9.38927 2.59644H3.10402C1.3922 2.59644 0 3.98893 0 5.70045V15.896C0 17.6075 1.3922 19 3.10402 19Z" fill="white"/>
</svg>
