<svg width="18" height="18" viewBox="0 0 18 18" fill="none" xmlns="http://www.w3.org/2000/svg">
<path d="M3.81857 11.4146L0 14.4878V0.878049C0 0.645176 0.0903058 0.421841 0.251051 0.257174C0.411797 0.0925084 0.629814 0 0.857143 0H13.7143C13.9416 0 14.1596 0.0925084 14.3204 0.257174C14.4811 0.421841 14.5714 0.645176 14.5714 0.878049V11.4146H3.81857ZM3.22543 9.65854H12.8571V1.7561H1.71429V10.8746L3.22543 9.65854ZM6 13.1707H14.7746L16.2857 14.3868V5.26829H17.1429C17.3702 5.26829 17.5882 5.3608 17.7489 5.52547C17.9097 5.69013 18 5.91347 18 6.14634V18L14.1814 14.9268H6.85714C6.62981 14.9268 6.4118 14.8343 6.25105 14.6697C6.09031 14.505 6 14.2817 6 14.0488V13.1707Z" fill="#FF7F11"/>
</svg>
