<svg width="172" height="172" viewBox="0 0 172 172" fill="none" xmlns="http://www.w3.org/2000/svg">
<path d="M77.1094 144.219C108.65 144.219 134.219 118.65 134.219 87.1094C134.219 55.5687 108.65 30 77.1094 30C45.5687 30 20 55.5687 20 87.1094C20 118.65 45.5687 144.219 77.1094 144.219Z" fill="#BFE7F4"/>
<path d="M149.064 51.1638L140.849 59.3795" stroke="#4C241D" stroke-linecap="round" stroke-linejoin="round"/>
<path d="M140.849 51.1638L149.064 59.3795" stroke="#4C241D" stroke-linecap="round" stroke-linejoin="round"/>
<path d="M102.721 37.2293C106.569 37.2293 109.689 34.11 109.689 30.2621C109.689 26.4142 106.569 23.2949 102.721 23.2949C98.8734 23.2949 95.7541 26.4142 95.7541 30.2621C95.7541 34.11 98.8734 37.2293 102.721 37.2293Z" stroke="#4C241D" stroke-linecap="round" stroke-linejoin="round"/>
<path d="M92.9672 137.557H165.426L143.131 151.492H98.541L92.9672 137.557Z" fill="#D6D6D6" stroke="#4C241D" stroke-linecap="round" stroke-linejoin="round"/>
<path d="M1 171L17.7213 145.918L42.8033 134.771L92.9672 129.197L98.541 151.492H143.131L148.705 165.426L154.279 171" fill="#EAEAEA"/>
<path d="M1 171L17.7213 145.918L42.8033 134.771L92.9672 129.197L98.541 151.492H143.131L148.705 165.426L154.279 171" stroke="#4C241D" stroke-linecap="round" stroke-linejoin="round"/>
<path d="M51.1639 1H56.7377C58.9551 1 61.0817 1.88085 62.6496 3.44878C64.2175 5.01671 65.0984 7.14327 65.0984 9.36066V67.8852H42.8033V9.36066C42.8033 7.14327 43.6841 5.01671 45.2521 3.44878C46.82 1.88085 48.9466 1 51.1639 1Z" fill="#BF7E68" stroke="#4C241D" stroke-linecap="round" stroke-linejoin="round"/>
<path d="M40.0164 154.278L34.4426 84.6063H73.459L67.8852 154.278" fill="white"/>
<path d="M40.0164 154.278L34.4426 84.6063H73.459L67.8852 154.278" stroke="#4C241D" stroke-linecap="round" stroke-linejoin="round"/>
<path d="M53.9508 92.9672V143.131" stroke="#D6D6D6" stroke-linecap="round" stroke-linejoin="round"/>
<path d="M53.9508 40.0162C61.6466 40.0162 67.8853 33.7775 67.8853 26.0818C67.8853 18.386 61.6466 12.1473 53.9508 12.1473C46.2551 12.1473 40.0164 18.386 40.0164 26.0818C40.0164 33.7775 46.2551 40.0162 53.9508 40.0162Z" fill="#FFCE56" stroke="#4C241D" stroke-linecap="round" stroke-linejoin="round"/>
<path d="M42.8033 67.8854H65.0984V79.033H42.8033V67.8854Z" fill="#E66353" stroke="#4C241D" stroke-linecap="round" stroke-linejoin="round"/>
<path d="M90.1803 76.246V79.0329H17.7213V76.246H9.36066V92.9673H17.7213V87.3935L53.9508 92.9673L90.1803 87.3935V92.9673H98.541V76.246H90.1803Z" fill="#FFCE56" stroke="#4C241D" stroke-linecap="round" stroke-linejoin="round"/>
<path d="M53.9508 154.279H79.0328" stroke="#4C241D" stroke-linecap="round" stroke-linejoin="round"/>
<path d="M171 171V151.492L165.426 137.557" stroke="#4C241D" stroke-linecap="round" stroke-linejoin="round"/>
<path d="M99.9344 116.656V102.721" stroke="#4C241D" stroke-linecap="round" stroke-linejoin="round"/>
<path d="M91.5738 116.655L86 108.295" stroke="#4C241D" stroke-linecap="round" stroke-linejoin="round"/>
<path d="M113.869 108.295L108.295 116.655" stroke="#4C241D" stroke-linecap="round" stroke-linejoin="round"/>
</svg>
