<svg width="172" height="154" viewBox="0 0 172 154" fill="none" xmlns="http://www.w3.org/2000/svg">
<path d="M89.1094 117.219C120.65 117.219 146.219 91.65 146.219 60.1094C146.219 28.5687 120.65 3 89.1094 3C57.5687 3 32 28.5687 32 60.1094C32 91.65 57.5687 117.219 89.1094 117.219Z" fill="#BFE7F4"/>
<path d="M103.596 138.178C103.758 137.481 104.056 136.823 104.473 136.243C104.891 135.662 105.419 135.169 106.028 134.794C106.637 134.419 107.314 134.168 108.021 134.056C108.727 133.944 109.449 133.973 110.144 134.141C110.839 134.31 111.494 134.614 112.07 135.038C112.647 135.461 113.134 135.994 113.504 136.606C113.873 137.219 114.117 137.899 114.222 138.606C114.327 139.314 114.291 140.035 114.116 140.728L111.258 152.517H117.941L120.429 142.261C120.59 141.564 120.889 140.907 121.306 140.326C121.723 139.745 122.252 139.253 122.861 138.877C123.47 138.502 124.147 138.251 124.853 138.139C125.56 138.027 126.281 138.056 126.976 138.224C127.671 138.393 128.326 138.698 128.903 139.121C129.48 139.544 129.967 140.077 130.336 140.69C130.705 141.302 130.95 141.982 131.055 142.689C131.16 143.397 131.124 144.118 130.948 144.811L129.08 152.517H135.763L137.259 146.342C137.598 144.947 138.477 143.743 139.702 142.996C140.928 142.249 142.401 142.019 143.796 142.357C145.191 142.696 146.395 143.575 147.142 144.801C147.89 146.027 148.119 147.499 147.781 148.895L166.917 69.9971L122.734 59.2784L100.119 152.517L103.596 138.178Z" fill="#E7D1C4" stroke="#4C241D" stroke-linecap="round" stroke-linejoin="round"/>
<path d="M133.09 44.1368L164.65 51.7916L160.605 68.4654L129.046 60.8106L133.09 44.1368Z" fill="#EDEBDC" stroke="#4C241D" stroke-linecap="round" stroke-linejoin="round"/>
<path d="M127.634 42.8139L171 53.1646" stroke="#4C241D" stroke-linecap="round" stroke-linejoin="round"/>
<path d="M149.961 48.0617L154.042 31.2291" stroke="#4C241D" stroke-linecap="round" stroke-linejoin="round"/>
<path d="M154.041 31.229L166.665 34.291L165.134 40.6028L152.51 37.5409L154.041 31.229Z" fill="#E66353" stroke="#4C241D" stroke-linecap="round" stroke-linejoin="round"/>
<path d="M134.754 51.0552C135.591 51.2583 136.313 51.7855 136.761 52.5209C137.209 53.2563 137.347 54.1396 137.144 54.9767L135.358 62.3405L129.046 60.8095L130.832 53.4457C131.035 52.6087 131.562 51.8866 132.298 51.4383C133.033 50.99 133.917 50.8522 134.754 51.0552Z" fill="white" stroke="#4C241D" stroke-linecap="round" stroke-linejoin="round"/>
<path d="M147.376 54.1179C148.213 54.3209 148.935 54.8481 149.383 55.5835C149.832 56.3189 149.97 57.2023 149.767 58.0393L147.98 65.4031L141.669 63.8722L143.455 56.5084C143.658 55.6714 144.185 54.9493 144.92 54.501C145.656 54.0527 146.539 53.9149 147.376 54.1179Z" fill="white" stroke="#4C241D" stroke-linecap="round" stroke-linejoin="round"/>
<path d="M160.001 57.1783C160.838 57.3813 161.56 57.9085 162.008 58.6439C162.456 59.3793 162.594 60.2627 162.391 61.0997L160.605 68.4635L154.293 66.9326L156.079 59.5688C156.282 58.7317 156.81 58.0097 157.545 57.5614C158.28 57.1131 159.164 56.9753 160.001 57.1783Z" fill="white" stroke="#4C241D" stroke-linecap="round" stroke-linejoin="round"/>
<path d="M116.61 84.5275L118.141 78.2156L162.324 88.9323L160.793 95.2442L116.61 84.5275Z" fill="#EDEBDC" stroke="#4C241D" stroke-linecap="round" stroke-linejoin="round"/>
<path d="M110.997 107.67L112.528 101.359L156.711 112.075L155.18 118.387L110.997 107.67Z" fill="#EDEBDC" stroke="#4C241D" stroke-linecap="round" stroke-linejoin="round"/>
<path d="M104.874 132.919L106.405 126.607L150.588 137.323L149.057 143.635L104.874 132.919Z" fill="#EDEBDC" stroke="#4C241D" stroke-linecap="round" stroke-linejoin="round"/>
<path d="M127.067 78.1524L131.15 61.3199" stroke="#4C241D" stroke-linecap="round" stroke-linejoin="round"/>
<path d="M135.484 80.194L139.565 63.3614" stroke="#4C241D" stroke-linecap="round" stroke-linejoin="round"/>
<path d="M146.003 82.7443L150.087 65.9139" stroke="#4C241D" stroke-linecap="round" stroke-linejoin="round"/>
<path d="M154.419 84.7858L158.502 67.9555" stroke="#4C241D" stroke-linecap="round" stroke-linejoin="round"/>
<path d="M120.944 103.4L125.025 86.5677" stroke="#4C241D" stroke-linecap="round" stroke-linejoin="round"/>
<path d="M129.359 105.442L133.442 88.6092" stroke="#4C241D" stroke-linecap="round" stroke-linejoin="round"/>
<path d="M139.879 107.992L143.962 91.1617" stroke="#4C241D" stroke-linecap="round" stroke-linejoin="round"/>
<path d="M148.294 110.034L152.377 93.2032" stroke="#4C241D" stroke-linecap="round" stroke-linejoin="round"/>
<path d="M115.33 126.544L119.413 109.711" stroke="#4C241D" stroke-linecap="round" stroke-linejoin="round"/>
<path d="M123.745 128.585L127.829 111.753" stroke="#4C241D" stroke-linecap="round" stroke-linejoin="round"/>
<path d="M134.265 131.135L138.348 114.305" stroke="#4C241D" stroke-linecap="round" stroke-linejoin="round"/>
<path d="M142.68 133.177L146.763 116.347" stroke="#4C241D" stroke-linecap="round" stroke-linejoin="round"/>
<path d="M110.132 134.192C109.441 134.025 108.724 133.995 108.022 134.105C107.319 134.214 106.646 134.461 106.039 134.831C105.432 135.201 104.904 135.687 104.485 136.262C104.065 136.836 103.764 137.487 103.596 138.178L100.119 152.516H111.258L114.116 140.728C114.454 139.333 114.225 137.861 113.478 136.635C112.731 135.41 111.527 134.531 110.132 134.192Z" fill="#EDEBDC" stroke="#4C241D" stroke-linecap="round" stroke-linejoin="round"/>
<path d="M126.965 138.275C126.274 138.108 125.557 138.078 124.854 138.188C124.152 138.297 123.478 138.544 122.871 138.914C122.264 139.284 121.736 139.771 121.317 140.345C120.898 140.919 120.596 141.57 120.429 142.261L117.941 152.517H129.08L130.948 144.811C131.287 143.416 131.057 141.944 130.31 140.718C129.563 139.493 128.36 138.614 126.965 138.275Z" fill="#EDEBDC" stroke="#4C241D" stroke-linecap="round" stroke-linejoin="round"/>
<path d="M147.781 148.895L146.902 152.517" stroke="#4C241D" stroke-linecap="round" stroke-linejoin="round"/>
<path d="M143.795 142.359C142.4 142.02 140.928 142.25 139.702 142.997C138.476 143.744 137.598 144.947 137.259 146.342L135.763 152.516H146.902L147.781 148.895C147.948 148.204 147.978 147.487 147.869 146.784C147.759 146.082 147.512 145.408 147.142 144.801C146.772 144.194 146.286 143.666 145.711 143.247C145.137 142.828 144.486 142.526 143.795 142.359Z" fill="#EDEBDC" stroke="#4C241D" stroke-linecap="round" stroke-linejoin="round"/>
<path d="M86.5494 152.516H160.158Z" fill="#E7D1C4"/>
<path d="M86.5494 152.516H160.158" stroke="#4C241D" stroke-linecap="round" stroke-linejoin="round"/>
<path d="M1 152.543H71.4529" stroke="#4C241D" stroke-linecap="round" stroke-linejoin="round"/>
<path d="M10.4311 145.47H62.3023V152.543H10.4311V145.47Z" stroke="#4C241D" stroke-linecap="round" stroke-linejoin="round"/>
<path d="M15.1467 58.2319H57.5867V145.47H15.1467V58.2319Z" fill="#EDEBDC" stroke="#4C241D" stroke-linecap="round" stroke-linejoin="round"/>
<path d="M31.6511 51.1586H41.1388V145.47H31.6511V51.1586Z" fill="#B5A19C" stroke="#4C241D" stroke-linecap="round" stroke-linejoin="round"/>
<path d="M47.677 51.1586H25.113L23.8398 44.0852H48.9502L47.677 51.1586Z" fill="#B5A19C" stroke="#4C241D" stroke-linecap="round" stroke-linejoin="round"/>
<path d="M50.9048 44.0853H21.8852L17.561 34.6541H55.2289L50.9048 44.0853Z" fill="#E7D1C4" stroke="#4C241D" stroke-linecap="round" stroke-linejoin="round"/>
<path d="M26.9355 27.5808H45.7978V34.6541H26.9355V27.5808Z" fill="#B5A19C" stroke="#4C241D" stroke-linecap="round" stroke-linejoin="round"/>
<path d="M36.3668 27.5808V11.0764" stroke="#4C241D" stroke-linecap="round" stroke-linejoin="round"/>
<path d="M48.1556 65.3053H50.5134" stroke="#4C241D" stroke-linecap="round" stroke-linejoin="round"/>
<path d="M48.1556 88.8832H50.5134" stroke="#4C241D" stroke-linecap="round" stroke-linejoin="round"/>
<path d="M48.1556 77.0942H50.5134" stroke="#4C241D" stroke-linecap="round" stroke-linejoin="round"/>
<path d="M48.1556 100.672H50.5134" stroke="#4C241D" stroke-linecap="round" stroke-linejoin="round"/>
<path d="M48.1556 124.25H50.5134" stroke="#4C241D" stroke-linecap="round" stroke-linejoin="round"/>
<path d="M48.1556 136.039H50.5134" stroke="#4C241D" stroke-linecap="round" stroke-linejoin="round"/>
<path d="M48.1556 112.461H50.5134" stroke="#4C241D" stroke-linecap="round" stroke-linejoin="round"/>
<path d="M22.22 65.3053H24.5778" stroke="#4C241D" stroke-linecap="round" stroke-linejoin="round"/>
<path d="M22.22 88.8832H24.5778" stroke="#4C241D" stroke-linecap="round" stroke-linejoin="round"/>
<path d="M22.22 77.0942H24.5778" stroke="#4C241D" stroke-linecap="round" stroke-linejoin="round"/>
<path d="M22.22 100.672H24.5778" stroke="#4C241D" stroke-linecap="round" stroke-linejoin="round"/>
<path d="M22.22 124.25H24.5778" stroke="#4C241D" stroke-linecap="round" stroke-linejoin="round"/>
<path d="M22.22 136.039H24.5778" stroke="#4C241D" stroke-linecap="round" stroke-linejoin="round"/>
<path d="M22.22 112.461H24.5778" stroke="#4C241D" stroke-linecap="round" stroke-linejoin="round"/>
<path d="M77.7899 43.7275C80.5796 43.7275 82.841 41.4661 82.841 38.6764C82.841 35.8868 80.5796 33.6253 77.7899 33.6253C75.0003 33.6253 72.7388 35.8868 72.7388 38.6764C72.7388 41.4661 75.0003 43.7275 77.7899 43.7275Z" stroke="#4C241D" stroke-linecap="round" stroke-linejoin="round"/>
<path d="M159.363 145.35C160.758 145.35 161.889 144.219 161.889 142.824C161.889 141.43 160.758 140.299 159.363 140.299C157.968 140.299 156.838 141.43 156.838 142.824C156.838 144.219 157.968 145.35 159.363 145.35Z" fill="#4C241D"/>
<path d="M127.493 1V4.57365" stroke="#4C241D" stroke-linecap="round" stroke-linejoin="round"/>
<path d="M127.493 15.2921V18.8658" stroke="#4C241D" stroke-linecap="round" stroke-linejoin="round"/>
<path d="M118.561 9.93292H122.134" stroke="#4C241D" stroke-linecap="round" stroke-linejoin="round"/>
<path d="M132.853 9.93292H136.426" stroke="#4C241D" stroke-linecap="round" stroke-linejoin="round"/>
</svg>
