<svg width="52" height="49" viewBox="0 0 52 49" fill="none" xmlns="http://www.w3.org/2000/svg">
<path d="M11.3857 9.13188C11.8667 9.13188 12.2566 8.74195 12.2566 8.26095C12.2566 7.77995 11.8667 7.39001 11.3857 7.39001C10.9047 7.39001 10.5148 7.77995 10.5148 8.26095C10.5148 8.74195 10.9047 9.13188 11.3857 9.13188Z" fill="#4C241D"/>
<path d="M40.1265 9.13188C40.6076 9.13188 40.9975 8.74195 40.9975 8.26095C40.9975 7.77995 40.6076 7.39001 40.1265 7.39001C39.6455 7.39001 39.2556 7.77995 39.2556 8.26095C39.2556 8.74195 39.6455 9.13188 40.1265 9.13188Z" fill="#4C241D"/>
<path d="M0.934509 48.3239V39.6834C0.934509 37.0079 2.16166 34.7304 3.87653 33.8778C5.42423 33.1726 6.91003 32.3388 8.31829 31.3851L11.3857 29.1634L14.4532 31.3851C15.8614 32.3388 17.3472 33.1726 18.8949 33.8778C20.6098 34.7304 21.8369 37.0079 21.8369 39.6834V48.3239" fill="#F4AEAB"/>
<path d="M0.934509 48.3239V39.6834C0.934509 37.0079 2.16166 34.7304 3.87653 33.8778C5.42423 33.1726 6.91003 32.3388 8.31829 31.3851L11.3857 29.1634L14.4532 31.3851C15.8614 32.3388 17.3472 33.1726 18.8949 33.8778C20.6098 34.7304 21.8369 37.0079 21.8369 39.6834V48.3239" stroke="#4C241D" stroke-linecap="round" stroke-linejoin="round"/>
<path d="M19.2241 37.8728L11.3857 43.0984L3.5473 37.8728V19.5474C3.5473 17.709 4.27761 15.9459 5.57757 14.6459C6.87753 13.346 8.64065 12.6157 10.4791 12.6157H12.2924C14.1308 12.6157 15.8939 13.346 17.1939 14.6459C18.4938 15.9459 19.2241 17.709 19.2241 19.5474V37.8728Z" fill="white" stroke="#4C241D" stroke-linecap="round" stroke-linejoin="round"/>
<path d="M30.5463 48.3239V37.2169C30.5953 36.3966 30.9083 35.6141 31.4385 34.9862C31.9687 34.3584 32.6878 33.9188 33.4883 33.7331C34.9972 33.323 36.4804 32.8236 37.9301 32.2377L40.9975 30.9052L44.0649 32.2386C45.5146 32.8245 46.9978 33.3239 48.5067 33.734C49.3072 33.9197 50.0263 34.3592 50.5565 34.9871C51.0867 35.6149 51.3997 36.3974 51.4487 37.2177V48.3239" fill="#6B4F5B"/>
<path d="M30.5463 48.3239V37.2169C30.5953 36.3966 30.9083 35.6141 31.4385 34.9862C31.9687 34.3584 32.6878 33.9188 33.4883 33.7331C34.9972 33.323 36.4804 32.8236 37.9301 32.2377L40.9975 30.9052L44.0649 32.2386C45.5146 32.8245 46.9978 33.3239 48.5067 33.734C49.3072 33.9197 50.0263 34.3592 50.5565 34.9871C51.0867 35.6149 51.3997 36.3974 51.4487 37.2177V48.3239" stroke="#4C241D" stroke-linecap="round" stroke-linejoin="round"/>
<path d="M6.16013 18.7122V26.5506H16.6113V18.7122" fill="#E7D1C4"/>
<path d="M6.16013 18.7122V26.5506H16.6113V18.7122" stroke="#4C241D" stroke-linecap="round" stroke-linejoin="round"/>
<path d="M39.2556 29.1634H42.7394V31.7762C42.7394 32.2382 42.5558 32.6812 42.2292 33.0079C41.9025 33.3345 41.4595 33.5181 40.9975 33.5181C40.5355 33.5181 40.0925 33.3345 39.7658 33.0079C39.4391 32.6812 39.2556 32.2382 39.2556 31.7762V29.1634Z" fill="#E7D1C4" stroke="#4C241D" stroke-linecap="round" stroke-linejoin="round"/>
<path d="M44.4812 20.454H47.9649V43.9693H44.4812V20.454Z" fill="white" stroke="#4C241D" stroke-linecap="round" stroke-linejoin="round"/>
<path d="M34.9009 15.2285H43.1748C44.2143 15.2285 45.2111 15.6414 45.9461 16.3764C46.6811 17.1114 47.094 18.1082 47.094 19.1477V26.1151C47.094 27.1546 46.6811 28.1514 45.9461 28.8864C45.2111 29.6214 44.2143 30.0343 43.1748 30.0343H38.8201C38.3055 30.0343 37.7958 29.933 37.3203 29.736C36.8448 29.539 36.4128 29.2504 36.0488 28.8864C35.6849 28.5225 35.3962 28.0904 35.1993 27.6149C35.0023 27.1394 34.9009 26.6298 34.9009 26.1151V15.2285Z" fill="#E7D1C4" stroke="#4C241D" stroke-linecap="round" stroke-linejoin="round"/>
<path d="M36.5096 13.4866H45.4854C46.143 13.4866 46.7737 13.7478 47.2387 14.2128C47.7037 14.6778 47.965 15.3085 47.965 15.9661V20.454H34.03V15.9661C34.03 15.3085 34.2913 14.6778 34.7563 14.2128C35.2213 13.7478 35.852 13.4866 36.5096 13.4866Z" fill="#6B4F5B" stroke="#4C241D" stroke-linecap="round" stroke-linejoin="round"/>
<path d="M35.7719 15.2285V13.3533C35.7719 12.6957 36.0331 12.065 36.4982 11.6C36.9632 11.135 37.5938 10.8738 38.2515 10.8738H43.7436C44.4012 10.8738 45.0319 11.135 45.4969 11.6C45.9619 12.065 46.2231 12.6957 46.2231 13.3533V15.2285" fill="#6B4F5B"/>
<path d="M35.7719 15.2285V13.3533C35.7719 12.6957 36.0331 12.065 36.4982 11.6C36.9632 11.135 37.5938 10.8738 38.2515 10.8738H43.7436C44.4012 10.8738 45.0319 11.135 45.4969 11.6C45.9619 12.065 46.2231 12.6957 46.2231 13.3533V15.2285" stroke="#4C241D" stroke-linecap="round" stroke-linejoin="round"/>
<path d="M40.9975 42.2273V33.518" stroke="#4C241D" stroke-linecap="round" stroke-linejoin="round"/>
<path d="M6.16013 26.5505H16.6113C16.6113 27.7055 16.1525 28.8131 15.3359 29.6298C14.5192 30.4464 13.4116 30.9052 12.2567 30.9052H10.5148C9.35987 30.9052 8.25224 30.4464 7.43558 29.6298C6.61892 28.8131 6.16013 27.7055 6.16013 26.5505Z" fill="#F4AEAB" stroke="#4C241D" stroke-linecap="round" stroke-linejoin="round"/>
<path d="M5.28915 18.7122H8.77289C9.26912 18.711 9.75929 18.603 10.2101 18.3956C10.6609 18.1883 11.0619 17.8863 11.3857 17.5103C11.7095 17.8863 12.1105 18.1883 12.5613 18.3956C13.0121 18.603 13.5023 18.711 13.9985 18.7122H17.4822" fill="#FFCE56"/>
<path d="M5.28915 18.7122H8.77289C9.26912 18.711 9.75929 18.603 10.2101 18.3956C10.6609 18.1883 11.0619 17.8863 11.3857 17.5103C11.7095 17.8863 12.1105 18.1883 12.5613 18.3956C13.0121 18.603 13.5023 18.711 13.9985 18.7122H17.4822" stroke="#4C241D" stroke-linecap="round" stroke-linejoin="round"/>
<path d="M38.3847 26.5506L40.1265 25.6797H41.8684L43.6103 26.5506" stroke="#4C241D" stroke-linecap="round" stroke-linejoin="round"/>
<path d="M19.0822 1L15.8824 4.19981" stroke="#4C241D" stroke-linecap="round" stroke-linejoin="round"/>
<path d="M15.8824 1L19.0822 4.19981" stroke="#4C241D" stroke-linecap="round" stroke-linejoin="round"/>
<path d="M33.8881 2.74182L30.6883 5.94163" stroke="#4C241D" stroke-linecap="round" stroke-linejoin="round"/>
<path d="M30.6883 2.74182L33.8881 5.94163" stroke="#4C241D" stroke-linecap="round" stroke-linejoin="round"/>
</svg>
