<svg width="17" height="17" viewBox="0 0 17 17" fill="none" xmlns="http://www.w3.org/2000/svg">
<path d="M-2.20831e-05 15.3L-2.32721e-05 1.69993C-2.33538e-05 0.764922 0.764981 -8.0993e-05 1.69998 -8.10747e-05L10.7667 -8.18674e-05C11.7017 -8.19491e-05 12.4667 0.764921 12.4667 1.69993L12.4667 6.23328C12.4667 6.54495 12.2117 6.79995 11.9 6.79995C11.5884 6.79995 11.3334 6.54495 11.3334 6.23328L11.3334 1.69993C11.3334 1.38826 11.0784 1.13326 10.7667 1.13326L3.10533 1.13326L6.15401 2.0456C6.87934 2.2666 7.36668 2.91827 7.36668 3.6776L7.36668 13.3223C7.36668 14.0817 6.87935 14.7333 6.15401 14.9543L3.10533 15.8667L10.7667 15.8667C11.0784 15.8667 11.3334 15.6117 11.3334 15.3L11.3334 10.7666C11.3334 10.455 11.5884 10.2 11.9 10.2C12.2117 10.2 12.4667 10.455 12.4667 10.7666L12.4667 15.3C12.4667 16.235 11.7017 17 10.7667 17L1.69999 17C0.764982 17 -2.20014e-05 16.235 -2.20831e-05 15.3Z" fill="white"/>
<path d="M9.0667 9.0667L14.1667 9.0667L14.1667 10.2C14.1667 10.3451 14.2223 10.4902 14.3328 10.6007C14.5543 10.8222 14.9125 10.8222 15.134 10.6007L16.834 8.90066C17.0556 8.67909 17.0556 8.32096 16.834 8.09939L15.134 6.39938C15.0235 6.28888 14.8785 6.23335 14.7334 6.23335C14.5883 6.23335 14.4433 6.28888 14.3328 6.39938C14.2223 6.50988 14.1667 6.65495 14.1667 6.80002L14.1667 7.93336L9.0667 7.93336C8.7539 7.93336 8.50003 8.18723 8.50003 8.50003C8.50003 8.81283 8.7539 9.0667 9.0667 9.0667Z" fill="white"/>
</svg>
