<svg width="171" height="168" viewBox="0 0 171 168" fill="none" xmlns="http://www.w3.org/2000/svg">
<path d="M63.1094 114.219C94.65 114.219 120.219 88.65 120.219 57.1094C120.219 25.5687 94.65 0 63.1094 0C31.5687 0 6 25.5687 6 57.1094C6 88.65 31.5687 114.219 63.1094 114.219Z" fill="#BFE7F4"/>
<path d="M26.026 15V20.7503" stroke="#4C241D" stroke-linecap="round" stroke-linejoin="round"/>
<path d="M26.026 32.251V38.0013" stroke="#4C241D" stroke-linecap="round" stroke-linejoin="round"/>
<path d="M14.5253 26.5007H20.2757" stroke="#4C241D" stroke-linecap="round" stroke-linejoin="round"/>
<path d="M31.7764 26.5007H37.5267" stroke="#4C241D" stroke-linecap="round" stroke-linejoin="round"/>
<path d="M30.3388 81.1288C34.3085 81.1288 37.5267 77.9107 37.5267 73.9409C37.5267 69.9711 34.3085 66.753 30.3388 66.753C26.369 66.753 23.1508 69.9711 23.1508 73.9409C23.1508 77.9107 26.369 81.1288 30.3388 81.1288Z" stroke="#4C241D" stroke-linecap="round" stroke-linejoin="round"/>
<path d="M3.07355 57.7277C4.77103 57.7277 6.14711 56.3516 6.14711 54.6542C6.14711 52.9567 4.77103 51.5806 3.07355 51.5806C1.37608 51.5806 0 52.9567 0 54.6542C0 56.3516 1.37608 57.7277 3.07355 57.7277Z" fill="#4C241D"/>
<path d="M143.908 25.2959V65.0939L151.817 70.0335L170 52.2448L143.908 25.2959Z" fill="#D6D6D6" stroke="#4C241D" stroke-linecap="round" stroke-linejoin="round"/>
<path d="M88.3395 20.2212C99.3275 18.3224 110.56 18.3224 121.548 20.2212V43.9414H88.3395V20.2212Z" fill="#B5A19C" stroke="#4C241D" stroke-linecap="round" stroke-linejoin="round"/>
<path d="M66.2783 25.2959V65.0939L58.3687 70.0335L40.1862 52.2448L66.2783 25.2959Z" fill="#D6D6D6" stroke="#4C241D" stroke-linecap="round" stroke-linejoin="round"/>
<path d="M122.246 20.2557C121.806 24.5414 119.792 28.5112 116.592 31.3963C113.393 34.2813 109.236 35.8762 104.928 35.8719C100.62 35.8676 96.4665 34.2645 93.2728 31.373C90.079 28.4816 88.0721 24.5077 87.6408 20.2212C80.4008 21.1883 73.2549 22.7617 66.2783 24.925V141.194H143.908V24.925C136.824 22.7921 129.58 21.2307 122.246 20.2557Z" fill="white" stroke="#4C241D" stroke-linecap="round" stroke-linejoin="round"/>
<path d="M102.945 99.3314H34.364C28.7061 112.659 25.7911 126.991 25.7931 141.47V167.384H62.946L69.1535 153.008L74.3748 167.384H111.516V141.47C111.518 126.991 108.603 112.659 102.945 99.3314Z" fill="#D6D6D6" stroke="#4C241D" stroke-linecap="round" stroke-linejoin="round"/>
<path d="M33.8867 89.7542H103.431V101.255H33.8867V89.7542Z" fill="white" stroke="#4C241D" stroke-linecap="round" stroke-linejoin="round"/>
<path d="M69.1535 104.13V153.008" stroke="#4C241D" stroke-linecap="round" stroke-linejoin="round"/>
<path d="M60.5279 104.13V124.256" stroke="#4C241D" stroke-linecap="round" stroke-linejoin="round"/>
<path d="M77.779 104.13V124.256" stroke="#4C241D" stroke-linecap="round" stroke-linejoin="round"/>
<path d="M135.282 52.3769H123.782V46.6266H115.156V52.3769H103.655V61.0024H115.156V66.7528H123.782V61.0024H135.282V52.3769Z" fill="#E66353" stroke="#4C241D" stroke-linecap="round" stroke-linejoin="round"/>
</svg>
