<svg width="60" height="55" viewBox="0 0 60 55" fill="none" xmlns="http://www.w3.org/2000/svg">
<path d="M55.4142 22.7333V24.5262" stroke="#4C241D" stroke-linecap="round" stroke-linejoin="round"/>
<path d="M55.4142 28.1119V29.9048" stroke="#4C241D" stroke-linecap="round" stroke-linejoin="round"/>
<path d="M51.8285 26.319H53.6214" stroke="#4C241D" stroke-linecap="round" stroke-linejoin="round"/>
<path d="M57.2071 26.319H59" stroke="#4C241D" stroke-linecap="round" stroke-linejoin="round"/>
<path d="M7.56628 34.9687C8.30892 34.9687 8.91094 34.3667 8.91094 33.6241C8.91094 32.8814 8.30892 32.2794 7.56628 32.2794C6.82365 32.2794 6.22162 32.8814 6.22162 33.6241C6.22162 34.3667 6.82365 34.9687 7.56628 34.9687Z" fill="#4C241D"/>
<path d="M44.7686 53.794H11.6003V46.4208C11.6026 44.7917 12.0783 43.1985 12.9696 41.8348C13.8608 40.4712 15.1292 39.396 16.6203 38.7401L28.1844 33.6241L39.753 38.7401C41.2433 39.3967 42.5107 40.4722 43.4011 41.8358C44.2915 43.1993 44.7666 44.7922 44.7686 46.4208V53.794Z" fill="white" stroke="#4C241D" stroke-linecap="round" stroke-linejoin="round"/>
<path d="M31.3219 37.658H35.8042V53.7939H31.3219V37.658Z" fill="#E66353" stroke="#4C241D" stroke-linecap="round" stroke-linejoin="round"/>
<path d="M28.1844 43.0367C29.974 43.0359 31.7179 42.4712 33.1684 41.423C34.619 40.3748 35.7024 38.8962 36.2649 37.1973L28.1844 33.6241L20.1039 37.1973C20.6664 38.8962 21.7498 40.3748 23.2004 41.423C24.6509 42.4712 26.3948 43.0359 28.1844 43.0367Z" fill="#E66353" stroke="#4C241D" stroke-linecap="round" stroke-linejoin="round"/>
<path d="M24.1504 32.2794H32.2184V34.9687C32.2184 35.9197 31.8406 36.8318 31.1681 37.5043C30.4957 38.1767 29.5836 38.5545 28.6326 38.5545H27.7362C26.7852 38.5545 25.8731 38.1767 25.2007 37.5043C24.5282 36.8318 24.1504 35.9197 24.1504 34.9687V32.2794Z" fill="#E7D1C4" stroke="#4C241D" stroke-linecap="round" stroke-linejoin="round"/>
<path d="M16.9789 20.1774C16.6776 20.1772 16.3794 20.2377 16.102 20.3554C15.8246 20.4731 15.5739 20.6455 15.3647 20.8624C15.1554 21.0792 14.9921 21.336 14.8844 21.6174C14.7767 21.8987 14.7268 22.199 14.7378 22.5001C14.7647 22.8567 14.8746 23.2021 15.0588 23.5087C15.2429 23.8153 15.4961 24.0747 15.7983 24.266C16.0657 24.4653 16.3788 24.5942 16.7089 24.6412C17.039 24.6882 17.3756 24.6517 17.688 24.535C18.1306 26.6996 19.1408 28.7077 20.615 30.3533C22.0893 31.999 23.9746 33.2231 26.0778 33.9001C27.3308 34.2896 28.6746 34.2751 29.919 33.8589L30.317 33.7298C32.3891 33.0575 34.2488 31.8537 35.7105 30.2384C37.1722 28.6232 38.1849 26.653 38.6477 24.5242C38.9545 24.642 39.2853 24.6841 39.6119 24.647C39.9385 24.6098 40.2513 24.4946 40.5239 24.3109C40.8128 24.1399 41.0603 23.9072 41.2486 23.6293C41.4369 23.3514 41.5614 23.0352 41.6131 22.7035C41.6536 22.3877 41.6263 22.0669 41.5331 21.7625C41.4399 21.458 41.2829 21.1769 41.0726 20.9379C40.8622 20.6989 40.6033 20.5074 40.3132 20.3763C40.0231 20.2451 39.7083 20.1773 39.3899 20.1774V16.4832L21.2693 14.4993L16.9789 16.1434V20.1774Z" fill="#E7D1C4" stroke="#4C241D" stroke-linecap="round" stroke-linejoin="round"/>
<path d="M32.6666 24.6597C33.1617 24.6597 33.563 24.2584 33.563 23.7633C33.563 23.2682 33.1617 22.8668 32.6666 22.8668C32.1715 22.8668 31.7702 23.2682 31.7702 23.7633C31.7702 24.2584 32.1715 24.6597 32.6666 24.6597Z" fill="#4C241D"/>
<path d="M23.7022 24.6597C24.1973 24.6597 24.5986 24.2584 24.5986 23.7633C24.5986 23.2682 24.1973 22.8668 23.7022 22.8668C23.2071 22.8668 22.8058 23.2682 22.8058 23.7633C22.8058 24.2584 23.2071 24.6597 23.7022 24.6597Z" fill="#4C241D"/>
<path d="M39.3899 16.1435C39.3899 0.903969 16.9296 2.69685 16.9789 14.2027C16.9843 15.4944 17.0121 16.892 16.9986 17.8655C18.1403 17.937 19.2845 17.7751 20.3615 17.3898C21.4385 17.0045 22.4257 16.4038 23.263 15.6244C25.877 20.6857 33.1632 22.7619 39.3899 17.9094V16.1435Z" fill="#BF7E68" stroke="#4C241D" stroke-linecap="round" stroke-linejoin="round"/>
<path d="M16.9789 53.7939V49.3117" stroke="#4C241D" stroke-linecap="round" stroke-linejoin="round"/>
<path d="M38.4935 53.7939V49.3117" stroke="#4C241D" stroke-linecap="round" stroke-linejoin="round"/>
<path d="M40.2864 14.6176H16.0825V11.3008C16.0653 10.3761 16.2848 9.46248 16.7202 8.6466C17.1556 7.83072 17.7924 7.13973 18.5701 6.63928C24.8326 2.8572 31.2099 3.00601 37.6947 6.69575C38.5012 7.1868 39.1649 7.88066 39.6196 8.70816C40.0743 9.53566 40.3042 10.4679 40.2864 11.4119V14.6176Z" fill="#6B4F5B" stroke="#4C241D" stroke-linecap="round" stroke-linejoin="round"/>
<path d="M0.954055 0.704407L3.48919 3.23954" stroke="#4C241D" stroke-linecap="round" stroke-linejoin="round"/>
<path d="M3.48919 0.704407L0.954055 3.23954" stroke="#4C241D" stroke-linecap="round" stroke-linejoin="round"/>
</svg>
